<?xml version="1.0" encoding="UTF-8" standalone="no"?>
<!-- Created with Inkscape (http://www.inkscape.org/) -->

<svg
   xmlns:dc="http://purl.org/dc/elements/1.1/"
   xmlns:cc="http://creativecommons.org/ns#"
   xmlns:rdf="http://www.w3.org/1999/02/22-rdf-syntax-ns#"
   xmlns:svg="http://www.w3.org/2000/svg"
   xmlns="http://www.w3.org/2000/svg"
   xmlns:sodipodi="http://sodipodi.sourceforge.net/DTD/sodipodi-0.dtd"
   xmlns:inkscape="http://www.inkscape.org/namespaces/inkscape"
   width="28mm"
   height="15mm"
   id="svg3347"
   version="1.1"
   inkscape:version="0.92.2 (5c3e80d, 2017-08-06)"
   viewBox="0 0 29.866667 16"
   sodipodi:docname="Pre-Prefaci-JMB.svg">
  <defs
     id="defs3349">
    <inkscape:path-effect
       effect="bspline"
       id="path-effect4611"
       is_visible="true"
       weight="33.333333"
       steps="2"
       helper_size="0"
       apply_no_weight="true"
       apply_with_weight="true"
       only_selected="false" />
    <inkscape:path-effect
       effect="bspline"
       id="path-effect4607"
       is_visible="true"
       weight="33.333333"
       steps="2"
       helper_size="0"
       apply_no_weight="true"
       apply_with_weight="true"
       only_selected="false" />
    <inkscape:path-effect
       effect="spiro"
       id="path-effect4603"
       is_visible="true" />
    <inkscape:path-effect
       effect="spiro"
       id="path-effect4599"
       is_visible="true" />
    <inkscape:path-effect
       effect="spiro"
       id="path-effect4595"
       is_visible="true" />
    <inkscape:path-effect
       effect="spiro"
       id="path-effect4591"
       is_visible="true" />
    <inkscape:path-effect
       effect="spiro"
       id="path-effect4583"
       is_visible="true" />
    <inkscape:path-effect
       effect="bspline"
       id="path-effect4577"
       is_visible="true"
       weight="33.333333"
       steps="2"
       helper_size="0"
       apply_no_weight="true"
       apply_with_weight="true"
       only_selected="false" />
    <marker
       inkscape:stockid="Arrow1Lend"
       orient="auto"
       refY="0"
       refX="0"
       id="marker5809"
       style="overflow:visible"
       inkscape:isstock="true">
      <path
         id="path5811"
         d="M 0,0 5,-5 -12.5,0 5,5 Z"
         style="fill:#000000;fill-opacity:1;fill-rule:evenodd;stroke:#000000;stroke-width:1.00000003pt;stroke-opacity:1"
         transform="matrix(-0.8,0,0,-0.8,-10,0)"
         inkscape:connector-curvature="0" />
    </marker>
    <marker
       inkscape:stockid="Arrow1Lstart"
       orient="auto"
       refY="0"
       refX="0"
       id="Arrow1Lstart"
       style="overflow:visible"
       inkscape:isstock="true">
      <path
         id="path4165"
         d="M 0,0 5,-5 -12.5,0 5,5 Z"
         style="fill:#000000;fill-opacity:1;fill-rule:evenodd;stroke:#000000;stroke-width:1.00000003pt;stroke-opacity:1"
         transform="matrix(0.8,0,0,0.8,10,0)"
         inkscape:connector-curvature="0" />
    </marker>
    <marker
       inkscape:stockid="Arrow1Lend"
       orient="auto"
       refY="0"
       refX="0"
       id="marker5277"
       style="overflow:visible"
       inkscape:isstock="true">
      <path
         id="path5279"
         d="M 0,0 5,-5 -12.5,0 5,5 Z"
         style="fill:#000000;fill-opacity:1;fill-rule:evenodd;stroke:#000000;stroke-width:1.00000003pt;stroke-opacity:1"
         transform="matrix(-0.8,0,0,-0.8,-10,0)"
         inkscape:connector-curvature="0" />
    </marker>
    <marker
       inkscape:stockid="Arrow1Lend"
       orient="auto"
       refY="0"
       refX="0"
       id="Arrow1Lend"
       style="overflow:visible"
       inkscape:isstock="true">
      <path
         id="path4168"
         d="M 0,0 5,-5 -12.5,0 5,5 Z"
         style="fill:#000000;fill-opacity:1;fill-rule:evenodd;stroke:#000000;stroke-width:1.00000003pt;stroke-opacity:1"
         transform="matrix(-0.8,0,0,-0.8,-10,0)"
         inkscape:connector-curvature="0" />
    </marker>
    <marker
       inkscape:stockid="Arrow2Lstart"
       orient="auto"
       refY="0"
       refX="0"
       id="Arrow2Lstart"
       style="overflow:visible"
       inkscape:isstock="true">
      <path
         id="path4183"
         style="fill:#000000;fill-opacity:1;fill-rule:evenodd;stroke:#000000;stroke-width:0.625;stroke-linejoin:round;stroke-opacity:1"
         d="M 8.7185878,4.0337352 -2.2072895,0.01601326 8.7185884,-4.0017078 c -1.7454984,2.3720609 -1.7354408,5.6174519 -6e-7,8.035443 z"
         transform="matrix(1.1,0,0,1.1,1.1,0)"
         inkscape:connector-curvature="0" />
    </marker>
    <inkscape:path-effect
       effect="bspline"
       id="path-effect4611-0"
       is_visible="true"
       weight="33.333333"
       steps="2"
       helper_size="0"
       apply_no_weight="true"
       apply_with_weight="true"
       only_selected="false" />
    <inkscape:path-effect
       effect="bspline"
       id="path-effect4611-0-0"
       is_visible="true"
       weight="33.333333"
       steps="2"
       helper_size="0"
       apply_no_weight="true"
       apply_with_weight="true"
       only_selected="false" />
  </defs>
  <sodipodi:namedview
     id="base"
     pagecolor="#ffffff"
     bordercolor="#666666"
     borderopacity="1.0"
     inkscape:pageopacity="0.0"
     inkscape:pageshadow="2"
     inkscape:zoom="10.757202"
     inkscape:cx="43.85031"
     inkscape:cy="22.07215"
     inkscape:document-units="mm"
     inkscape:current-layer="capa1"
     showgrid="true"
     inkscape:window-width="1920"
     inkscape:window-height="1001"
     inkscape:window-x="-9"
     inkscape:window-y="-9"
     inkscape:window-maximized="1"
     fit-margin-top="0"
     fit-margin-left="0"
     fit-margin-right="0"
     fit-margin-bottom="0"
     units="mm"
     inkscape:snap-bbox="true"
     showguides="true"
     inkscape:snap-grids="true"
     inkscape:object-paths="true"
     inkscape:guide-bbox="true"
     inkscape:snap-intersection-paths="true"
     inkscape:snap-global="false">
    <inkscape:grid
       type="xygrid"
       id="grid4179"
       snapvisiblegridlinesonly="false"
       units="mm"
       empspacing="5"
       visible="true"
       enabled="true"
       originx="-163.36104"
       originy="-146.63747"
       spacingx="1.7716535"
       spacingy="1.7716535" />
    <sodipodi:guide
       orientation="0,1"
       position="38.60746,-1.361876"
       id="guide4238"
       inkscape:locked="false" />
  </sodipodi:namedview>
  <metadata
     id="metadata3352">
    <rdf:RDF>
      <cc:Work
         rdf:about="">
        <dc:format>image/svg+xml</dc:format>
        <dc:type
           rdf:resource="http://purl.org/dc/dcmitype/StillImage" />
        <dc:title></dc:title>
      </cc:Work>
    </rdf:RDF>
  </metadata>
  <g
     inkscape:label="Capa 1"
     inkscape:groupmode="layer"
     id="capa1"
     transform="translate(-400.85071,-75.590691)"
     style="display:inline">
    <path
       style="fill:none;stroke:#000000;stroke-width:1.06666672;stroke-linecap:round;stroke-linejoin:round;stroke-miterlimit:4;stroke-dasharray:none;stroke-opacity:1"
       d="m 407.5684,77.076279 10e-6,13.922911 -5.78481,-6.904884 h 28.34645"
       id="path4194"
       inkscape:connector-curvature="0"
       sodipodi:nodetypes="cccc" />
    <path
       style="fill:none;fill-rule:evenodd;stroke:#000000;stroke-width:1.06666672;stroke-linecap:round;stroke-linejoin:round;stroke-miterlimit:4;stroke-dasharray:none;stroke-opacity:1"
       d="m 410.83136,90.885737 c -0.12372,-0.185577 -0.2474,-0.371092 -0.3896,-0.686426 -0.1422,-0.315334 -0.30304,-0.760742 -0.41742,-1.162654 -0.11438,-0.401912 -0.18243,-0.760704 -0.24425,-1.137802 -0.0618,-0.377098 -0.1175,-0.773109 -0.16387,-1.178155 -0.0464,-0.405045 -0.0835,-0.819364 -0.1082,-1.199577 -0.0247,-0.380213 -0.0371,-0.726701 -0.0186,-1.125398 0.0186,-0.398697 0.0681,-0.850468 0.12062,-1.230674 0.0525,-0.380206 0.10824,-0.689608 0.17933,-1.020271 0.0711,-0.330663 0.15774,-0.68349 0.24741,-1.026687 0.0897,-0.343197 0.18243,-0.677135 0.30298,-0.992378 0.12056,-0.315243 0.26911,-0.61233 0.42055,-0.875004 0.15144,-0.262674 0.30621,-0.491736 0.45763,-0.689485 0.15141,-0.197749 0.30004,-0.364953 0.47921,-0.525561 0.17916,-0.160607 0.38979,-0.31548 0.586,-0.434417 0.19622,-0.118937 0.3789,-0.202539 0.58296,-0.267425 0.20406,-0.06489 0.42977,-0.111265 0.65701,-0.137518 0.22724,-0.02625 0.45646,-0.03245 0.66625,0.0046 0.20979,0.03707 0.40184,0.117605 0.56261,0.185625 0.16077,0.06802 0.29063,0.123675 0.47913,0.228743 0.18849,0.105068 0.43601,0.259767 0.63073,0.426659 0.19471,0.166892 0.33698,0.346277 0.47614,0.510175 0.13916,0.163898 0.27518,0.312281 0.42357,0.525597 0.1484,0.213316 0.30917,0.49156 0.45141,0.772947 0.14225,0.281388 0.26588,0.56575 0.36175,0.850234 0.0959,0.284483 0.16386,0.568811 0.22881,0.800793 0.065,0.231982 0.12668,0.411011 0.18549,0.649274 0.0588,0.238262 0.11439,0.534544 0.14537,0.819228 0.031,0.284684 0.0372,0.556541 0.0526,0.782342 0.0155,0.2258 0.0402,0.404981 0.0495,0.621556 0.009,0.216574 0.003,0.46977 -0.003,0.714165 -0.006,0.244395 -0.0124,0.479109 -0.0279,0.708038 -0.0155,0.228929 -0.0402,0.451271 -0.0618,0.677141 -0.0217,0.22587 -0.0402,0.45435 -0.0866,0.711151 -0.0464,0.2568 -0.12051,0.540884 -0.19476,0.816219 -0.0742,0.275335 -0.14826,0.540567 -0.22875,0.800633 -0.0805,0.260066 -0.16694,0.513263 -0.25663,0.720523 -0.0897,0.207261 -0.18232,0.367838 -0.27207,0.519497 -0.0898,0.151659 -0.17615,0.29358 -0.26589,0.420492 -0.0897,0.126912 -0.18229,0.237956 -0.29687,0.290669 -0.11458,0.05271 -0.25025,0.04655 -0.25758,0.02958 -0.007,-0.01697 0.11352,-0.04453 0.13434,-0.04688 0.0208,-0.0024 -0.0587,0.02058 -0.13851,0.04361"
       id="path4609"
       inkscape:connector-curvature="0"
       inkscape:path-effect="#path-effect4611"
       inkscape:original-d="m 410.83136,90.885737 c -0.12339,-0.185796 -0.24707,-0.371309 -0.37103,-0.556542 -0.16043,-0.445341 -0.32127,-0.890749 -0.48233,-1.335701 -0.0677,-0.358814 -0.13576,-0.717603 -0.20407,-1.075982 -0.0553,-0.395805 -0.11103,-0.79181 -0.16696,-1.18729 -0.0368,-0.414596 -0.0739,-0.828916 -0.11131,-1.242944 -0.0121,-0.346378 -0.0244,-0.692868 -0.0371,-1.038879 0.0497,-0.451345 0.0992,-0.903117 0.14841,-1.354253 0.0559,-0.30926 0.11159,-0.618662 0.16696,-0.92757 0.0868,-0.352402 0.17343,-0.705236 0.25972,-1.05743 0.093,-0.334207 0.1858,-0.668134 0.27827,-1.001776 0.14856,-0.296844 0.29711,-0.593928 0.44524,-0.890468 0.1547,-0.228822 0.30947,-0.457884 0.46378,-0.686402 0.14848,-0.167008 0.29711,-0.334208 0.44523,-0.500888 0.21016,-0.154601 0.42079,-0.309472 0.63075,-0.463785 0.18244,-0.08364 0.36512,-0.167245 0.54726,-0.250444 0.226,-0.04666 0.45171,-0.09304 0.67714,-0.139136 0.22908,-0.0065 0.4583,-0.01267 0.6864,-0.01856 0.19163,0.07996 0.38368,0.160499 0.57509,0.241168 0.13014,0.05537 0.26,0.111025 0.38958,0.166963 0.24747,0.154208 0.49499,0.308908 0.74206,0.463785 0.14246,0.178993 0.28473,0.358378 0.42668,0.537991 0.13635,0.148159 0.27237,0.29654 0.40813,0.445234 0.16108,0.278013 0.32184,0.55626 0.48234,0.834813 0.124,0.284264 0.24763,0.568628 0.37102,0.853365 0.0683,0.284307 0.13633,0.568627 0.20407,0.853365 0.0622,0.179177 0.1239,0.358217 0.18551,0.537991 0.056,0.296808 0.11157,0.593089 0.16701,0.890467 0.006,0.272056 0.0127,0.543901 0.0186,0.816262 0.025,0.179209 0.0498,0.358378 0.0742,0.537991 -0.006,0.253591 -0.0121,0.506789 -0.0186,0.760607 -0.006,0.23497 -0.0121,0.469687 -0.0186,0.704954 -0.0245,0.222609 -0.0492,0.444951 -0.0742,0.66785 -0.0183,0.228837 -0.0368,0.45732 -0.0557,0.686403 -0.074,0.284549 -0.14813,0.568627 -0.22261,0.853364 -0.074,0.265939 -0.14803,0.531168 -0.22262,0.797711 -0.0864,0.253595 -0.17286,0.506791 -0.25972,0.760608 -0.0926,0.160692 -0.18523,0.321275 -0.27827,0.482336 -0.0865,0.142241 -0.17287,0.284173 -0.25972,0.426683 -0.0927,0.111285 -0.18523,0.222334 -0.27827,0.333925 -0.13614,-0.0065 -0.27181,-0.01265 -0.40813,-0.01855 0.1216,-0.02795 0.24245,-0.05551 0.36319,-0.08282 -0.0791,0.02264 -0.15859,0.04556 -0.23838,0.06878"
       sodipodi:nodetypes="ccccccccccccccccccccccccccccccccccccccccccc" />
    <path
       style="display:inline;fill:none;fill-rule:evenodd;stroke:#000000;stroke-width:1.06666672;stroke-linecap:round;stroke-linejoin:round;stroke-miterlimit:4;stroke-dasharray:none;stroke-opacity:1"
       d="m 421.92424,90.584291 c 0.0991,-0.08091 0.19805,-0.161671 0.328,-0.431096 0.12994,-0.269425 0.29043,-0.725868 0.40481,-1.133795 0.11438,-0.407927 0.18243,-0.766719 0.24425,-1.143817 0.0618,-0.377098 0.1175,-0.773109 0.16387,-1.178155 0.0464,-0.405045 0.0835,-0.819364 0.1082,-1.199577 0.0247,-0.380213 0.0371,-0.726701 0.0186,-1.125398 -0.0186,-0.398697 -0.0681,-0.850468 -0.12062,-1.230674 -0.0525,-0.380206 -0.10824,-0.689608 -0.17933,-1.020271 -0.0711,-0.330663 -0.15774,-0.68349 -0.24741,-1.026687 -0.0897,-0.343197 -0.18243,-0.677135 -0.30298,-0.992378 -0.12056,-0.315243 -0.26911,-0.61233 -0.42055,-0.875004 -0.15144,-0.262674 -0.30621,-0.491736 -0.45763,-0.689485 -0.15141,-0.197749 -0.30004,-0.364953 -0.47921,-0.525561 -0.17916,-0.160607 -0.38979,-0.31548 -0.56594,-0.423607 -0.17614,-0.108126 -0.31858,-0.170057 -0.52264,-0.234954 -0.20406,-0.0649 -0.46997,-0.132921 -0.7173,-0.169986 -0.24733,-0.03706 -0.47655,-0.04326 -0.68634,-0.01855 -0.2098,0.02471 -0.40066,0.08013 -0.56202,0.148341 -0.16137,0.06822 -0.29123,0.148607 -0.47972,0.266027 -0.18849,0.11742 -0.43601,0.272119 -0.63073,0.439011 -0.19471,0.166892 -0.33698,0.346277 -0.47614,0.510175 -0.13916,0.163898 -0.27518,0.312281 -0.42357,0.525597 -0.1484,0.213316 -0.30917,0.49156 -0.45141,0.772947 -0.14225,0.281388 -0.26588,0.56575 -0.36175,0.850234 -0.0959,0.284483 -0.16386,0.568811 -0.22881,0.800793 -0.065,0.231982 -0.12668,0.411011 -0.18549,0.649274 -0.0588,0.238262 -0.11439,0.534544 -0.14537,0.819228 -0.031,0.284684 -0.0372,0.556541 -0.0526,0.782342 -0.0155,0.2258 -0.0402,0.404981 -0.0495,0.621556 -0.009,0.216574 -0.003,0.46977 0.003,0.714165 0.006,0.244395 0.0124,0.479109 0.0279,0.708038 0.0155,0.228929 0.0402,0.451271 0.0618,0.677141 0.0217,0.22587 0.0402,0.45435 0.0866,0.711151 0.0464,0.2568 0.12051,0.540884 0.19476,0.816219 0.0742,0.275335 0.14826,0.540567 0.22875,0.800633 0.0805,0.260067 0.16694,0.513263 0.25663,0.720523 0.0897,0.207261 0.18232,0.367838 0.27208,0.519497 0.0898,0.15166 0.17614,0.29358 0.26588,0.420492 0.0897,0.126912 0.18229,0.237956 0.29687,0.290669 0.11458,0.05271 0.25025,0.04655 0.34319,0.01866 0.0929,-0.02788 0.14233,-0.07727 0.1609,-0.09276 0.0186,-0.01549 0.006,0.0031 -0.006,0.0217"
       id="path4609-1"
       inkscape:connector-curvature="0"
       inkscape:path-effect="#path-effect4611-0"
       inkscape:original-d="m 421.92424,90.584291 c 0.0991,-0.08093 0.19803,-0.1617 0.29682,-0.242294 0.16128,-0.45817 0.32177,-0.914613 0.48233,-1.371774 0.0677,-0.358815 0.13576,-0.717604 0.20407,-1.075983 0.0553,-0.395805 0.11103,-0.79181 0.16696,-1.18729 0.0368,-0.414596 0.0739,-0.828916 0.11131,-1.242944 0.0121,-0.346378 0.0244,-0.692868 0.0371,-1.038879 -0.0497,-0.451345 -0.0992,-0.903117 -0.14841,-1.354253 -0.0559,-0.30926 -0.11159,-0.618662 -0.16696,-0.92757 -0.0868,-0.352402 -0.17343,-0.705236 -0.25972,-1.05743 -0.093,-0.334207 -0.1858,-0.668134 -0.27827,-1.001776 -0.14856,-0.296844 -0.29711,-0.593928 -0.44524,-0.890468 -0.1547,-0.228822 -0.30947,-0.457884 -0.46378,-0.686402 -0.14848,-0.167008 -0.29711,-0.334208 -0.44523,-0.500888 -0.21016,-0.154601 -0.42079,-0.309472 -0.63075,-0.463785 -0.1423,-0.06203 -0.28474,-0.123959 -0.42668,-0.185514 -0.26619,-0.0683 -0.5321,-0.136328 -0.79772,-0.204066 -0.22908,-0.0065 -0.4583,-0.01267 -0.6864,-0.01856 -0.19155,0.05541 -0.38241,0.110823 -0.57509,0.166962 -0.13005,0.0804 -0.25991,0.160791 -0.38958,0.241169 -0.24747,0.154208 -0.49499,0.308908 -0.74206,0.463785 -0.14246,0.178993 -0.28473,0.358378 -0.42668,0.537991 -0.13635,0.148159 -0.27237,0.29654 -0.40813,0.445234 -0.16108,0.278013 -0.32184,0.55626 -0.48234,0.834813 -0.124,0.284264 -0.24763,0.568628 -0.37102,0.853365 -0.0683,0.284307 -0.13633,0.568627 -0.20407,0.853365 -0.0622,0.179177 -0.1239,0.358217 -0.18551,0.537991 -0.056,0.296808 -0.11157,0.593089 -0.16701,0.890467 -0.006,0.272056 -0.0127,0.543901 -0.0186,0.816262 -0.025,0.179209 -0.0498,0.358378 -0.0742,0.537991 0.006,0.253591 0.0121,0.506789 0.0186,0.760607 0.006,0.23497 0.0121,0.469687 0.0186,0.704954 0.0245,0.222609 0.0492,0.444951 0.0742,0.66785 0.0183,0.228837 0.0368,0.45732 0.0557,0.686403 0.074,0.284549 0.14813,0.568627 0.22261,0.853364 0.074,0.265939 0.14803,0.531168 0.22262,0.797711 0.0864,0.253596 0.17286,0.506791 0.25972,0.760608 0.0926,0.160692 0.18523,0.321275 0.27827,0.482336 0.0865,0.142242 0.17287,0.284173 0.25972,0.426683 0.0927,0.111285 0.18523,0.222335 0.27827,0.333926 0.13614,-0.0065 0.27181,-0.01265 0.40813,-0.01855 0.0493,-0.04985 0.0987,-0.09922 0.14841,-0.148412 -0.0126,0.01827 -0.025,0.03682 -0.0371,0.05566"
       sodipodi:nodetypes="ccccccccccccccccccccccccccccccccccccccccccc" />
    <path
       style="display:inline;fill:none;fill-rule:evenodd;stroke:#000000;stroke-width:1.06666672;stroke-linecap:round;stroke-linejoin:round;stroke-miterlimit:4;stroke-dasharray:none;stroke-opacity:1"
       d="m 427.15374,90.764741 c 0.12372,-0.185578 0.2474,-0.371093 0.3896,-0.686426 0.1422,-0.315334 0.30304,-0.760743 0.41742,-1.162655 0.11438,-0.401912 0.18243,-0.760704 0.24425,-1.137802 0.0618,-0.377098 0.1175,-0.773109 0.16387,-1.178155 0.0464,-0.405045 0.0835,-0.819364 0.1082,-1.199577 0.0247,-0.380213 0.0371,-0.726701 0.0186,-1.125398 -0.0186,-0.398697 -0.0681,-0.850468 -0.12062,-1.230674 -0.0525,-0.380206 -0.10824,-0.689608 -0.17933,-1.020271 -0.0711,-0.330663 -0.15774,-0.68349 -0.24741,-1.026687 -0.0897,-0.343197 -0.18243,-0.677135 -0.30298,-0.992378 -0.12056,-0.315243 -0.26911,-0.61233 -0.42055,-0.875004 -0.15144,-0.262674 -0.30621,-0.491736 -0.45763,-0.689485 -0.15141,-0.197749 -0.30004,-0.364953 -0.47921,-0.525561 -0.17916,-0.160607 -0.38979,-0.31548 -0.56594,-0.423607 -0.17614,-0.108126 -0.31858,-0.170057 -0.52264,-0.234954 -0.20406,-0.0649 -0.46997,-0.132921 -0.7173,-0.169986 -0.24733,-0.03707 -0.47655,-0.04326 -0.68789,-0.01701 -0.21133,0.02626 -0.40528,0.08475 -0.56665,0.152968 -0.16136,0.06822 -0.28813,0.145518 -0.47508,0.261397 -0.18695,0.115879 -0.43447,0.270578 -0.62919,0.43747 -0.19471,0.166892 -0.33698,0.346277 -0.47614,0.510175 -0.13916,0.163898 -0.27518,0.312281 -0.42357,0.525597 -0.1484,0.213316 -0.30917,0.49156 -0.45141,0.772947 -0.14225,0.281388 -0.26588,0.56575 -0.36175,0.850234 -0.0959,0.284483 -0.16386,0.568811 -0.22881,0.800793 -0.065,0.231982 -0.12668,0.411011 -0.18549,0.649274 -0.0588,0.238262 -0.11439,0.534544 -0.14537,0.819228 -0.031,0.284684 -0.0372,0.556541 -0.0526,0.782342 -0.0155,0.2258 -0.0402,0.404981 -0.0495,0.621556 -0.009,0.216574 -0.003,0.46977 0.003,0.714165 0.006,0.244395 0.0124,0.479109 0.0279,0.708038 0.0155,0.228929 0.0402,0.451271 0.0618,0.677141 0.0217,0.22587 0.0402,0.45435 0.0866,0.711151 0.0464,0.2568 0.12051,0.540884 0.19476,0.816219 0.0742,0.275335 0.14826,0.540567 0.22875,0.800633 0.0805,0.260067 0.16694,0.513263 0.25663,0.720523 0.0897,0.207261 0.18232,0.367838 0.27208,0.519497 0.0897,0.15166 0.17614,0.29358 0.26588,0.420492 0.0898,0.126912 0.18229,0.237956 0.29687,0.290669 0.11458,0.05271 0.25025,0.04655 0.34319,0.01866 0.0929,-0.02789 0.14233,-0.07727 0.1609,-0.09276 0.0186,-0.01549 0.006,0.0031 -0.006,0.0217"
       id="path4609-1-8"
       inkscape:connector-curvature="0"
       inkscape:path-effect="#path-effect4611-0-0"
       inkscape:original-d="m 427.15374,90.764741 c 0.12339,-0.185797 0.24707,-0.37131 0.37103,-0.556543 0.16043,-0.44534 0.32127,-0.890749 0.48233,-1.3357 0.0677,-0.358815 0.13576,-0.717604 0.20407,-1.075983 0.0553,-0.395805 0.11103,-0.79181 0.16696,-1.18729 0.0368,-0.414596 0.0739,-0.828916 0.11131,-1.242944 0.0121,-0.346378 0.0244,-0.692868 0.0371,-1.038879 -0.0497,-0.451345 -0.0992,-0.903117 -0.14841,-1.354253 -0.0559,-0.30926 -0.11159,-0.618662 -0.16696,-0.92757 -0.0868,-0.352402 -0.17343,-0.705236 -0.25972,-1.05743 -0.093,-0.334207 -0.1858,-0.668134 -0.27827,-1.001776 -0.14856,-0.296844 -0.29711,-0.593928 -0.44524,-0.890468 -0.1547,-0.228822 -0.30947,-0.457884 -0.46378,-0.686402 -0.14848,-0.167008 -0.29711,-0.334208 -0.44523,-0.500888 -0.21016,-0.154601 -0.42079,-0.309472 -0.63075,-0.463785 -0.1423,-0.06203 -0.28474,-0.123959 -0.42668,-0.185514 -0.26619,-0.0683 -0.5321,-0.136328 -0.79772,-0.204066 -0.22908,-0.0065 -0.4583,-0.01267 -0.6864,-0.01856 -0.19464,0.0585 -0.38858,0.116995 -0.58437,0.176238 -0.12694,0.0773 -0.25371,0.154596 -0.3803,0.231893 -0.24747,0.154208 -0.49499,0.308908 -0.74206,0.463785 -0.14246,0.178993 -0.28473,0.358378 -0.42668,0.537991 -0.13635,0.148159 -0.27237,0.29654 -0.40813,0.445234 -0.16108,0.278013 -0.32184,0.55626 -0.48234,0.834813 -0.124,0.284264 -0.24763,0.568628 -0.37102,0.853365 -0.0683,0.284307 -0.13633,0.568627 -0.20407,0.853365 -0.0622,0.179177 -0.1239,0.358217 -0.18551,0.537991 -0.056,0.296808 -0.11157,0.593089 -0.16701,0.890467 -0.006,0.272056 -0.0127,0.543901 -0.0186,0.816262 -0.025,0.179209 -0.0498,0.358378 -0.0742,0.537991 0.006,0.253591 0.0121,0.506789 0.0186,0.760607 0.006,0.23497 0.0121,0.469687 0.0186,0.704954 0.0245,0.222609 0.0492,0.444951 0.0742,0.66785 0.0183,0.228837 0.0368,0.45732 0.0557,0.686403 0.074,0.284549 0.14813,0.568627 0.22261,0.853364 0.074,0.265939 0.14803,0.531168 0.22262,0.797711 0.0864,0.253596 0.17286,0.506791 0.25972,0.760608 0.0926,0.160692 0.18523,0.321275 0.27827,0.482336 0.0865,0.142242 0.17287,0.284173 0.25972,0.426683 0.0927,0.111285 0.18523,0.222335 0.27827,0.333926 0.13614,-0.0065 0.27181,-0.01265 0.40813,-0.01855 0.0493,-0.04985 0.0987,-0.09922 0.14841,-0.148412 -0.0126,0.01827 -0.025,0.03682 -0.0371,0.05566"
       sodipodi:nodetypes="ccccccccccccccccccccccccccccccccccccccccccc" />
  </g>
</svg>
