<?xml version="1.0" encoding="UTF-8" standalone="no"?>
<!-- Created with Inkscape (http://www.inkscape.org/) -->

<svg
   xmlns:dc="http://purl.org/dc/elements/1.1/"
   xmlns:cc="http://creativecommons.org/ns#"
   xmlns:rdf="http://www.w3.org/1999/02/22-rdf-syntax-ns#"
   xmlns:svg="http://www.w3.org/2000/svg"
   xmlns="http://www.w3.org/2000/svg"
   xmlns:sodipodi="http://sodipodi.sourceforge.net/DTD/sodipodi-0.dtd"
   xmlns:inkscape="http://www.inkscape.org/namespaces/inkscape"
   sodipodi:docname="Cap-Fonaments-Trafo-Ideal.pdf"
   viewBox="0 0 53.999997 26.999999"
   inkscape:version="0.48.5 r10040"
   version="1.1"
   id="svg3347"
   height="95.669289"
   width="191.33858">
  <sodipodi:namedview
     id="base"
     pagecolor="#ffffff"
     bordercolor="#666666"
     borderopacity="1.0"
     inkscape:pageopacity="0.0"
     inkscape:pageshadow="2"
     inkscape:zoom="5.977266"
     inkscape:cx="127.54742"
     inkscape:cy="48.069071"
     inkscape:document-units="mm"
     inkscape:current-layer="layer1"
     showgrid="true"
     inkscape:window-width="1536"
     inkscape:window-height="799"
     inkscape:window-x="-8"
     inkscape:window-y="-8"
     inkscape:window-maximized="1"
     fit-margin-top="0"
     fit-margin-left="0"
     fit-margin-right="0"
     fit-margin-bottom="0"
     units="mm"
     inkscape:snap-bbox="true"
     showguides="true"
     inkscape:snap-grids="true"
     inkscape:object-paths="false"
     inkscape:guide-bbox="true"
     inkscape:snap-global="true"
     inkscape:object-nodes="false"
     inkscape:snap-midpoints="true"
     inkscape:snap-nodes="true"
     inkscape:snap-bbox-edge-midpoints="false"
     inkscape:bbox-nodes="false"
     inkscape:snap-bbox-midpoints="false"
     inkscape:bbox-paths="false">
    <inkscape:grid
       snapvisiblegridlinesonly="true"
       id="grid4179"
       type="xygrid"
       color="#3f3fff"
       opacity="0.39215686"
       empcolor="#933fff"
       empopacity="0.39215686"
       units="mm"
       empspacing="5"
       visible="true"
       enabled="true"
       originx="0mm"
       originy="0mm" />
    <sodipodi:guide
       orientation="0,1"
       position="177.16535,-35.433071"
       id="guide5238" />
    <sodipodi:guide
       orientation="0,1"
       position="159.44882,141.73228"
       id="guide5239" />
    <sodipodi:guide
       orientation="0,1"
       position="92.125984,38.976378"
       id="guide4606" />
  </sodipodi:namedview>
  <defs
     id="defs3349">
    <marker
       inkscape:stockid="DotM"
       orient="auto"
       refY="0"
       refX="0"
       id="DotM"
       style="overflow:visible">
      <path
         id="path4112"
         d="m -2.5,-1 c 0,2.76 -2.24,5 -5,5 -2.76,0 -5,-2.24 -5,-5 0,-2.76 2.24,-5 5,-5 2.76,0 5,2.24 5,5 z"
         style="fill-rule:evenodd;stroke:#000000;stroke-width:1pt"
         transform="matrix(0.4,0,0,0.4,2.96,0.4)"
         inkscape:connector-curvature="0" />
    </marker>
    <marker
       inkscape:stockid="DiamondMend"
       orient="auto"
       refY="0"
       refX="0"
       id="DiamondMend"
       style="overflow:visible">
      <path
         id="path4148"
         d="M 0,-7.0710768 -7.0710894,0 0,7.0710589 7.0710462,0 0,-7.0710768 z"
         style="fill-rule:evenodd;stroke:#000000;stroke-width:1pt"
         transform="matrix(0.4,0,0,0.4,-2.6,0)"
         inkscape:connector-curvature="0" />
    </marker>
    <marker
       inkscape:stockid="Arrow2Send"
       orient="auto"
       refY="0"
       refX="0"
       id="Arrow2Send"
       style="overflow:visible">
      <path
         id="path4010"
         style="fill-rule:evenodd;stroke-width:0.625;stroke-linejoin:round"
         d="M 8.7185878,4.0337352 -2.2072895,0.01601326 8.7185884,-4.0017078 c -1.7454984,2.3720609 -1.7354408,5.6174519 -6e-7,8.035443 z"
         transform="matrix(-0.3,0,0,-0.3,0.69,0)"
         inkscape:connector-curvature="0" />
    </marker>
    <marker
       inkscape:stockid="Arrow1Send"
       orient="auto"
       refY="0"
       refX="0"
       id="Arrow1Send"
       style="overflow:visible">
      <path
         id="path3992"
         d="M 0,0 5,-5 -12.5,0 5,5 0,0 z"
         style="fill-rule:evenodd;stroke:#000000;stroke-width:1pt"
         transform="matrix(-0.2,0,0,-0.2,-1.2,0)"
         inkscape:connector-curvature="0" />
    </marker>
    <marker
       inkscape:stockid="TriangleOutM"
       orient="auto"
       refY="0"
       refX="0"
       id="TriangleOutM"
       style="overflow:visible">
      <path
         id="path4122"
         d="m 5.77,0 -8.65,5 0,-10 8.65,5 z"
         style="fill-rule:evenodd;stroke:#000000;stroke-width:1pt"
         transform="scale(0.4,0.4)"
         inkscape:connector-curvature="0" />
    </marker>
    <marker
       inkscape:stockid="Arrow2Mend"
       orient="auto"
       refY="0"
       refX="0"
       id="marker19821"
       style="overflow:visible"
       inkscape:isstock="true">
      <path
         id="path19823"
         style="fill:#0000ff;fill-opacity:1;fill-rule:evenodd;stroke:#0000ff;stroke-width:0.625;stroke-linejoin:round;stroke-opacity:1"
         d="M 8.7185878,4.0337352 -2.2072895,0.01601326 8.7185884,-4.0017078 c -1.7454984,2.3720609 -1.7354408,5.6174519 -6e-7,8.035443 z"
         transform="scale(-0.6,-0.6)"
         inkscape:connector-curvature="0" />
    </marker>
    <marker
       inkscape:stockid="Arrow2Mstart"
       orient="auto"
       refY="0"
       refX="0"
       id="marker19783"
       style="overflow:visible"
       inkscape:isstock="true">
      <path
         id="path19785"
         style="fill:#0000ff;fill-opacity:1;fill-rule:evenodd;stroke:#0000ff;stroke-width:0.625;stroke-linejoin:round;stroke-opacity:1"
         d="M 8.7185878,4.0337352 -2.2072895,0.01601326 8.7185884,-4.0017078 c -1.7454984,2.3720609 -1.7354408,5.6174519 -6e-7,8.035443 z"
         transform="scale(0.6,0.6)"
         inkscape:connector-curvature="0" />
    </marker>
    <marker
       inkscape:stockid="Arrow2Mend"
       orient="auto"
       refY="0"
       refX="0"
       id="marker19695"
       style="overflow:visible"
       inkscape:isstock="true">
      <path
         id="path19697"
         style="fill:#000000;fill-opacity:1;fill-rule:evenodd;stroke:#000000;stroke-width:0.625;stroke-linejoin:round;stroke-opacity:1"
         d="M 8.7185878,4.0337352 -2.2072895,0.01601326 8.7185884,-4.0017078 c -1.7454984,2.3720609 -1.7354408,5.6174519 -6e-7,8.035443 z"
         transform="scale(-0.6,-0.6)"
         inkscape:connector-curvature="0" />
    </marker>
    <marker
       inkscape:stockid="Arrow2Mstart"
       orient="auto"
       refY="0"
       refX="0"
       id="marker19641"
       style="overflow:visible"
       inkscape:isstock="true">
      <path
         id="path19643"
         style="fill:#000000;fill-opacity:1;fill-rule:evenodd;stroke:#000000;stroke-width:0.625;stroke-linejoin:round;stroke-opacity:1"
         d="M 8.7185878,4.0337352 -2.2072895,0.01601326 8.7185884,-4.0017078 c -1.7454984,2.3720609 -1.7354408,5.6174519 -6e-7,8.035443 z"
         transform="scale(0.6,0.6)"
         inkscape:connector-curvature="0" />
    </marker>
    <marker
       inkscape:stockid="Arrow2Mend"
       orient="auto"
       refY="0"
       refX="0"
       id="marker19409"
       style="overflow:visible"
       inkscape:isstock="true">
      <path
         id="path19411"
         style="fill:#ff0000;fill-opacity:1;fill-rule:evenodd;stroke:#ff0000;stroke-width:0.625;stroke-linejoin:round;stroke-opacity:1"
         d="M 8.7185878,4.0337352 -2.2072895,0.01601326 8.7185884,-4.0017078 c -1.7454984,2.3720609 -1.7354408,5.6174519 -6e-7,8.035443 z"
         transform="scale(-0.6,-0.6)"
         inkscape:connector-curvature="0" />
    </marker>
    <marker
       inkscape:stockid="Arrow1Lstart"
       orient="auto"
       refY="0"
       refX="0"
       id="marker17726"
       style="overflow:visible"
       inkscape:isstock="true">
      <path
         id="path7652"
         d="M 0,0 5,-5 -12.5,0 5,5 0,0 z"
         style="fill:#000000;fill-opacity:1;fill-rule:evenodd;stroke:#000000;stroke-width:1pt;stroke-opacity:1"
         transform="matrix(0.8,0,0,0.8,10,0)"
         inkscape:connector-curvature="0" />
    </marker>
    <marker
       inkscape:stockid="Arrow2Lend"
       orient="auto"
       refY="0"
       refX="0"
       id="marker17688"
       style="overflow:visible"
       inkscape:isstock="true">
      <path
         id="path17690"
         style="fill:#000000;fill-opacity:1;fill-rule:evenodd;stroke:#000000;stroke-width:0.625;stroke-linejoin:round;stroke-opacity:1"
         d="M 8.7185878,4.0337352 -2.2072895,0.01601326 8.7185884,-4.0017078 c -1.7454984,2.3720609 -1.7354408,5.6174519 -6e-7,8.035443 z"
         transform="matrix(-1.1,0,0,-1.1,-1.1,0)"
         inkscape:connector-curvature="0" />
    </marker>
    <marker
       inkscape:stockid="Arrow2Mstart"
       orient="auto"
       refY="0"
       refX="0"
       id="marker16234"
       style="overflow:visible"
       inkscape:isstock="true">
      <path
         id="path16236"
         style="fill:#000000;fill-opacity:1;fill-rule:evenodd;stroke:#000000;stroke-width:0.625;stroke-linejoin:round;stroke-opacity:1"
         d="M 8.7185878,4.0337352 -2.2072895,0.01601326 8.7185884,-4.0017078 c -1.7454984,2.3720609 -1.7354408,5.6174519 -6e-7,8.035443 z"
         transform="scale(0.6,0.6)"
         inkscape:connector-curvature="0" />
    </marker>
    <marker
       inkscape:stockid="Arrow2Mend"
       orient="auto"
       refY="0"
       refX="0"
       id="marker15512"
       style="overflow:visible"
       inkscape:isstock="true">
      <path
         id="path15514"
         style="fill:#000000;fill-opacity:1;fill-rule:evenodd;stroke:#000000;stroke-width:0.625;stroke-linejoin:round;stroke-opacity:1"
         d="M 8.7185878,4.0337352 -2.2072895,0.01601326 8.7185884,-4.0017078 c -1.7454984,2.3720609 -1.7354408,5.6174519 -6e-7,8.035443 z"
         transform="scale(-0.6,-0.6)"
         inkscape:connector-curvature="0" />
    </marker>
    <marker
       inkscape:stockid="Arrow2Mstart"
       orient="auto"
       refY="0"
       refX="0"
       id="marker15458"
       style="overflow:visible"
       inkscape:isstock="true">
      <path
         id="path15460"
         style="fill:#000000;fill-opacity:1;fill-rule:evenodd;stroke:#000000;stroke-width:0.625;stroke-linejoin:round;stroke-opacity:1"
         d="M 8.7185878,4.0337352 -2.2072895,0.01601326 8.7185884,-4.0017078 c -1.7454984,2.3720609 -1.7354408,5.6174519 -6e-7,8.035443 z"
         transform="scale(0.6,0.6)"
         inkscape:connector-curvature="0" />
    </marker>
    <marker
       inkscape:stockid="Arrow2Mend"
       orient="auto"
       refY="0"
       refX="0"
       id="marker14302"
       style="overflow:visible"
       inkscape:isstock="true">
      <path
         id="path14304"
         style="fill:#000000;fill-opacity:1;fill-rule:evenodd;stroke:#000000;stroke-width:0.625;stroke-linejoin:round;stroke-opacity:1"
         d="M 8.7185878,4.0337352 -2.2072895,0.01601326 8.7185884,-4.0017078 c -1.7454984,2.3720609 -1.7354408,5.6174519 -6e-7,8.035443 z"
         transform="scale(-0.6,-0.6)"
         inkscape:connector-curvature="0" />
    </marker>
    <marker
       inkscape:stockid="TriangleOutL"
       orient="auto"
       refY="0"
       refX="0"
       id="TriangleOutL"
       style="overflow:visible"
       inkscape:isstock="true">
      <path
         id="path7794"
         d="m 5.77,0 -8.65,5 0,-10 8.65,5 z"
         style="fill:#000000;fill-opacity:1;fill-rule:evenodd;stroke:#000000;stroke-width:1pt;stroke-opacity:1"
         transform="scale(0.8,0.8)"
         inkscape:connector-curvature="0" />
    </marker>
    <marker
       inkscape:stockid="Arrow2Lend"
       orient="auto"
       refY="0"
       refX="0"
       id="marker12663"
       style="overflow:visible"
       inkscape:isstock="true">
      <path
         id="path7673"
         style="fill:#000000;fill-opacity:1;fill-rule:evenodd;stroke:#000000;stroke-width:0.625;stroke-linejoin:round;stroke-opacity:1"
         d="M 8.7185878,4.0337352 -2.2072895,0.01601326 8.7185884,-4.0017078 c -1.7454984,2.3720609 -1.7354408,5.6174519 -6e-7,8.035443 z"
         transform="matrix(-1.1,0,0,-1.1,-1.1,0)"
         inkscape:connector-curvature="0" />
    </marker>
    <marker
       inkscape:stockid="Arrow2Mend"
       orient="auto"
       refY="0"
       refX="0"
       id="marker12527"
       style="overflow:visible"
       inkscape:isstock="true">
      <path
         id="path12529"
         style="fill:#000000;fill-opacity:1;fill-rule:evenodd;stroke:#000000;stroke-width:0.625;stroke-linejoin:round;stroke-opacity:1"
         d="M 8.7185878,4.0337352 -2.2072895,0.01601326 8.7185884,-4.0017078 c -1.7454984,2.3720609 -1.7354408,5.6174519 -6e-7,8.035443 z"
         transform="scale(-0.6,-0.6)"
         inkscape:connector-curvature="0" />
    </marker>
    <marker
       inkscape:stockid="Arrow2Mend"
       orient="auto"
       refY="0"
       refX="0"
       id="marker12395"
       style="overflow:visible"
       inkscape:isstock="true">
      <path
         id="path12397"
         style="fill:#000000;fill-opacity:1;fill-rule:evenodd;stroke:#000000;stroke-width:0.625;stroke-linejoin:round;stroke-opacity:1"
         d="M 8.7185878,4.0337352 -2.2072895,0.01601326 8.7185884,-4.0017078 c -1.7454984,2.3720609 -1.7354408,5.6174519 -6e-7,8.035443 z"
         transform="scale(-0.6,-0.6)"
         inkscape:connector-curvature="0" />
    </marker>
    <marker
       inkscape:stockid="Arrow2Mend"
       orient="auto"
       refY="0"
       refX="0"
       id="marker7993"
       style="overflow:visible"
       inkscape:isstock="true">
      <path
         id="path7995"
         style="fill:#000000;fill-opacity:1;fill-rule:evenodd;stroke:#000000;stroke-width:0.625;stroke-linejoin:round;stroke-opacity:1"
         d="M 8.7185878,4.0337352 -2.2072895,0.01601326 8.7185884,-4.0017078 c -1.7454984,2.3720609 -1.7354408,5.6174519 -6e-7,8.035443 z"
         transform="scale(-0.6,-0.6)"
         inkscape:connector-curvature="0" />
    </marker>
    <marker
       inkscape:stockid="Arrow2Mstart"
       orient="auto"
       refY="0"
       refX="0"
       id="marker7939"
       style="overflow:visible"
       inkscape:isstock="true">
      <path
         id="path7941"
         style="fill:#000000;fill-opacity:1;fill-rule:evenodd;stroke:#000000;stroke-width:0.625;stroke-linejoin:round;stroke-opacity:1"
         d="M 8.7185878,4.0337352 -2.2072895,0.01601326 8.7185884,-4.0017078 c -1.7454984,2.3720609 -1.7354408,5.6174519 -6e-7,8.035443 z"
         transform="scale(0.6,0.6)"
         inkscape:connector-curvature="0" />
    </marker>
    <marker
       inkscape:stockid="Arrow1Mstart"
       orient="auto"
       refY="0"
       refX="0"
       id="marker7908"
       style="overflow:visible"
       inkscape:isstock="true">
      <path
         id="path7658"
         d="M 0,0 5,-5 -12.5,0 5,5 0,0 z"
         style="fill:#000000;fill-opacity:1;fill-rule:evenodd;stroke:#000000;stroke-width:1pt;stroke-opacity:1"
         transform="matrix(0.4,0,0,0.4,4,0)"
         inkscape:connector-curvature="0" />
    </marker>
    <marker
       inkscape:isstock="true"
       style="overflow:visible"
       id="Arrow1Mend"
       refX="0"
       refY="0"
       orient="auto"
       inkscape:stockid="Arrow1Mend">
      <path
         transform="matrix(-0.4,0,0,-0.4,-4,0)"
         style="fill:#000000;fill-opacity:1;fill-rule:evenodd;stroke:#000000;stroke-width:1pt;stroke-opacity:1"
         d="M 0,0 5,-5 -12.5,0 5,5 0,0 z"
         id="path4223"
         inkscape:connector-curvature="0" />
    </marker>
    <marker
       inkscape:isstock="true"
       style="overflow:visible"
       id="Arrow1Mstart"
       refX="0"
       refY="0"
       orient="auto"
       inkscape:stockid="Arrow1Mstart">
      <path
         transform="matrix(0.4,0,0,0.4,4,0)"
         style="fill:#000000;fill-opacity:1;fill-rule:evenodd;stroke:#000000;stroke-width:1pt;stroke-opacity:1"
         d="M 0,0 5,-5 -12.5,0 5,5 0,0 z"
         id="path4220"
         inkscape:connector-curvature="0" />
    </marker>
    <marker
       inkscape:isstock="true"
       style="overflow:visible"
       id="Arrow2Lend"
       refX="0"
       refY="0"
       orient="auto"
       inkscape:stockid="Arrow2Lend">
      <path
         transform="matrix(-1.1,0,0,-1.1,-1.1,0)"
         d="M 8.7185878,4.0337352 -2.2072895,0.01601326 8.7185884,-4.0017078 c -1.7454984,2.3720609 -1.7354408,5.6174519 -6e-7,8.035443 z"
         style="fill:#000000;fill-opacity:1;fill-rule:evenodd;stroke:#000000;stroke-width:0.625;stroke-linejoin:round;stroke-opacity:1"
         id="path4235"
         inkscape:connector-curvature="0" />
    </marker>
    <marker
       inkscape:isstock="true"
       style="overflow:visible"
       id="marker5809"
       refX="0"
       refY="0"
       orient="auto"
       inkscape:stockid="Arrow1Lend">
      <path
         inkscape:connector-curvature="0"
         transform="matrix(-0.8,0,0,-0.8,-10,0)"
         style="fill:#000000;fill-opacity:1;fill-rule:evenodd;stroke:#000000;stroke-width:1pt;stroke-opacity:1"
         d="M 0,0 5,-5 -12.5,0 5,5 0,0 z"
         id="path5811" />
    </marker>
    <marker
       inkscape:isstock="true"
       style="overflow:visible"
       id="Arrow1Lstart"
       refX="0"
       refY="0"
       orient="auto"
       inkscape:stockid="Arrow1Lstart">
      <path
         inkscape:connector-curvature="0"
         transform="matrix(0.8,0,0,0.8,10,0)"
         style="fill:#000000;fill-opacity:1;fill-rule:evenodd;stroke:#000000;stroke-width:1pt;stroke-opacity:1"
         d="M 0,0 5,-5 -12.5,0 5,5 0,0 z"
         id="path4165" />
    </marker>
    <marker
       inkscape:isstock="true"
       style="overflow:visible"
       id="marker5277"
       refX="0"
       refY="0"
       orient="auto"
       inkscape:stockid="Arrow1Lend">
      <path
         inkscape:connector-curvature="0"
         transform="matrix(-0.8,0,0,-0.8,-10,0)"
         style="fill:#000000;fill-opacity:1;fill-rule:evenodd;stroke:#000000;stroke-width:1pt;stroke-opacity:1"
         d="M 0,0 5,-5 -12.5,0 5,5 0,0 z"
         id="path5279" />
    </marker>
    <marker
       inkscape:isstock="true"
       style="overflow:visible"
       id="Arrow1Lend"
       refX="0"
       refY="0"
       orient="auto"
       inkscape:stockid="Arrow1Lend">
      <path
         inkscape:connector-curvature="0"
         transform="matrix(-0.8,0,0,-0.8,-10,0)"
         style="fill:#000000;fill-opacity:1;fill-rule:evenodd;stroke:#000000;stroke-width:1pt;stroke-opacity:1"
         d="M 0,0 5,-5 -12.5,0 5,5 0,0 z"
         id="path4168" />
    </marker>
    <marker
       inkscape:isstock="true"
       style="overflow:visible"
       id="Arrow2Lstart"
       refX="0"
       refY="0"
       orient="auto"
       inkscape:stockid="Arrow2Lstart">
      <path
         inkscape:connector-curvature="0"
         transform="matrix(1.1,0,0,1.1,1.1,0)"
         d="M 8.7185878,4.0337352 -2.2072895,0.01601326 8.7185884,-4.0017078 c -1.7454984,2.3720609 -1.7354408,5.6174519 -6e-7,8.035443 z"
         style="fill:#000000;fill-opacity:1;fill-rule:evenodd;stroke:#000000;stroke-width:0.625;stroke-linejoin:round;stroke-opacity:1"
         id="path4183" />
    </marker>
    <marker
       inkscape:stockid="Arrow2Mend"
       orient="auto"
       refY="0"
       refX="0"
       id="marker7993-1"
       style="overflow:visible"
       inkscape:isstock="true">
      <path
         id="path7995-7"
         style="fill:#000000;fill-opacity:1;fill-rule:evenodd;stroke:#000000;stroke-width:0.625;stroke-linejoin:round;stroke-opacity:1"
         d="M 8.7185878,4.0337352 -2.2072895,0.01601326 8.7185884,-4.0017078 c -1.7454984,2.3720609 -1.7354408,5.6174519 -6e-7,8.035443 z"
         transform="scale(-0.6,-0.6)"
         inkscape:connector-curvature="0" />
    </marker>
    <marker
       inkscape:stockid="Arrow2Mend"
       orient="auto"
       refY="0"
       refX="0"
       id="marker7993-17"
       style="overflow:visible"
       inkscape:isstock="true">
      <path
         id="path7995-4"
         style="fill:#000000;fill-opacity:1;fill-rule:evenodd;stroke:#000000;stroke-width:0.625;stroke-linejoin:round;stroke-opacity:1"
         d="M 8.7185878,4.0337352 -2.2072895,0.01601326 8.7185884,-4.0017078 c -1.7454984,2.3720609 -1.7354408,5.6174519 -6e-7,8.035443 z"
         transform="scale(-0.6,-0.6)"
         inkscape:connector-curvature="0" />
    </marker>
    <marker
       inkscape:stockid="Arrow2Mend"
       orient="auto"
       refY="0"
       refX="0"
       id="marker7993-17-1"
       style="overflow:visible"
       inkscape:isstock="true">
      <path
         id="path7995-4-7"
         style="fill:#000000;fill-opacity:1;fill-rule:evenodd;stroke:#000000;stroke-width:0.625;stroke-linejoin:round;stroke-opacity:1"
         d="M 8.7185878,4.0337352 -2.2072895,0.01601326 8.7185884,-4.0017078 c -1.7454984,2.3720609 -1.7354408,5.6174519 -6e-7,8.035443 z"
         transform="scale(-0.6,-0.6)"
         inkscape:connector-curvature="0" />
    </marker>
    <marker
       inkscape:stockid="Arrow2Mend"
       orient="auto"
       refY="0"
       refX="0"
       id="marker7993-4"
       style="overflow:visible"
       inkscape:isstock="true">
      <path
         id="path7995-0"
         style="fill:#000000;fill-opacity:1;fill-rule:evenodd;stroke:#000000;stroke-width:0.625;stroke-linejoin:round;stroke-opacity:1"
         d="M 8.7185878,4.0337352 -2.2072895,0.01601326 8.7185884,-4.0017078 c -1.7454984,2.3720609 -1.7354408,5.6174519 -6e-7,8.035443 z"
         transform="scale(-0.6,-0.6)"
         inkscape:connector-curvature="0" />
    </marker>
  </defs>
  <metadata
     id="metadata3352">
    <rdf:RDF>
      <cc:Work
         rdf:about="">
        <dc:format>image/svg+xml</dc:format>
        <dc:type
           rdf:resource="http://purl.org/dc/dcmitype/StillImage" />
        <dc:title></dc:title>
      </cc:Work>
    </rdf:RDF>
  </metadata>
  <g
     style="display:inline"
     transform="translate(-365.74658,-119.65057)"
     id="capa1"
     inkscape:groupmode="layer"
     inkscape:label="Dibuix">
    <path
       style="fill:none;stroke:none"
       d="m 365.74658,107.31316 c 2.28571,-17.004477 4.57143,-26.876029 6.85714,-19.558872 2.28572,7.317158 4.57143,30.033332 6.85715,44.953622 2.28571,14.9203 4.57142,18.28665 6.85714,6.70236 2.28571,-11.58428 4.57143,-35.26322 6.85714,-46.870463 2.28572,-11.607244 4.57143,-8.201541 6.85714,6.70236 2.28572,14.903903 4.57143,37.608823 6.85715,44.953623 2.28571,7.3448 4.57143,-2.55439 6.85714,-19.55887"
       title="sin(x)"
       id="path4388"
       inkscape:connector-curvature="0" />
    <path
       style="fill:none;stroke:#000000;stroke-width:0.30000001;stroke-linecap:butt;stroke-linejoin:miter;stroke-miterlimit:4;stroke-opacity:1;stroke-dasharray:none;stroke-dashoffset:0;marker-end:url(#marker7993)"
       d="m 377.74657,126.6506 0,13.53528"
       id="path7106"
       inkscape:connector-curvature="0" />
    <path
       sodipodi:type="arc"
       style="fill:none;stroke:#000000;stroke-width:1.0629921;stroke-linecap:butt;stroke-linejoin:miter;stroke-miterlimit:4;stroke-opacity:1;stroke-dasharray:none;stroke-dashoffset:0;display:inline"
       id="path4474-0-5"
       sodipodi:cx="38.976379"
       sodipodi:cy="14.173228"
       sodipodi:rx="3.5433071"
       sodipodi:ry="3.5433071"
       d="m 42.519686,14.173228 c 0,1.956915 -1.586392,3.543307 -3.543307,3.543307 -1.956914,0 -3.543307,-1.586392 -3.543307,-3.543307 0,-1.956914 1.586393,-3.543307 3.543307,-3.543307 1.956915,0 3.543307,1.586393 3.543307,3.543307 z"
       transform="matrix(0.28222222,0,0,0.28222222,366.78373,120.66187)" />
    <path
       sodipodi:type="arc"
       style="fill:none;stroke:#000000;stroke-width:1.0629921;stroke-linecap:butt;stroke-linejoin:miter;stroke-miterlimit:4;stroke-opacity:1;stroke-dasharray:none;stroke-dashoffset:0;display:inline"
       id="path4474-7-8-1"
       sodipodi:cx="38.976379"
       sodipodi:cy="14.173228"
       sodipodi:rx="3.5433071"
       sodipodi:ry="3.5433071"
       d="m 42.519686,14.173228 c 0,1.956915 -1.586392,3.543307 -3.543307,3.543307 -1.956914,0 -3.543307,-1.586392 -3.543307,-3.543307 0,-1.956914 1.586393,-3.543307 3.543307,-3.543307 1.956915,0 3.543307,1.586393 3.543307,3.543307 z"
       transform="matrix(0.28222222,0,0,0.28222222,366.74657,138.6506)" />
    <path
       style="fill:none;stroke:#000000;stroke-width:0.30000001;stroke-linecap:butt;stroke-linejoin:miter;stroke-miterlimit:4;stroke-opacity:1;stroke-dasharray:none;display:inline"
       d="m 378.87544,124.6506 10.90829,0.0113 0,3"
       id="path5216-7"
       inkscape:connector-curvature="0"
       sodipodi:nodetypes="ccc" />
    <path
       style="fill:none;stroke:#000000;stroke-width:0.30000001;stroke-linecap:butt;stroke-linejoin:miter;stroke-miterlimit:4;stroke-opacity:1;stroke-dasharray:none;display:inline"
       d="m 378.87545,142.6886 10.90828,-0.0267 0,-3"
       id="path5218-1"
       inkscape:connector-curvature="0"
       sodipodi:nodetypes="ccc" />
    <path
       style="fill:none;stroke:#000000;stroke-width:0.30000001;stroke-linecap:butt;stroke-linejoin:miter;stroke-miterlimit:4;stroke-opacity:1;stroke-dasharray:none;marker-end:url(#marker7993-17)"
       d="m 380.26205,123.2574 7.41946,0"
       id="path4091"
       inkscape:connector-curvature="0" />
    <path
       sodipodi:type="arc"
       style="fill:none;stroke:#000000;stroke-width:1.05546426;stroke-linecap:square;stroke-linejoin:miter;stroke-miterlimit:4;stroke-opacity:1;stroke-dasharray:none;stroke-dashoffset:0"
       id="path3135"
       sodipodi:cx="131.10236"
       sodipodi:cy="24.803148"
       sodipodi:rx="7.0866132"
       sodipodi:ry="7.0866141"
       d="m 138.18897,24.803148 a 7.0866132,7.0866141 0 0 1 -14.1728,0.07777"
       transform="matrix(-0.00117843,0.2819411,0.28654283,0.0011853,382.80042,92.667116)"
       sodipodi:start="0"
       sodipodi:end="3.1306183"
       sodipodi:open="true" />
    <path
       sodipodi:type="arc"
       style="fill:none;stroke:#000000;stroke-width:1.06885322;stroke-linecap:square;stroke-linejoin:miter;stroke-miterlimit:4;stroke-opacity:1;stroke-dasharray:none;stroke-dashoffset:0;display:inline"
       id="path3135-2"
       sodipodi:cx="131.10236"
       sodipodi:cy="24.803148"
       sodipodi:rx="7.0866132"
       sodipodi:ry="7.0866141"
       d="m 138.18897,24.803148 a 7.0866132,7.0866141 0 0 1 -14.1728,0.07777"
       transform="matrix(0,0.28223263,0.27912526,0,382.88247,96.660486)"
       sodipodi:start="0"
       sodipodi:end="3.1306183"
       sodipodi:open="true" />
    <path
       sodipodi:type="arc"
       style="fill:none;stroke:#000000;stroke-width:1.07111233;stroke-linecap:square;stroke-linejoin:miter;stroke-miterlimit:4;stroke-opacity:1;stroke-dasharray:none;stroke-dashoffset:0;display:inline"
       id="path3135-4"
       sodipodi:cx="131.10236"
       sodipodi:cy="24.803148"
       sodipodi:rx="7.0866132"
       sodipodi:ry="7.0866141"
       d="m 138.18891,24.773302 a 7.0866132,7.0866141 0 0 1 -14.17274,0.107616"
       transform="matrix(0,0.28222918,0.27795248,0,382.89791,100.66093)"
       sodipodi:start="6.2789737"
       sodipodi:end="9.4138036"
       sodipodi:open="true" />
  </g>
  <g
     inkscape:groupmode="layer"
     id="layer1"
     inkscape:label="Text"
     style="display:inline"
     transform="translate(-10.999992,-46.67553)">
    <text
       xml:space="preserve"
       style="font-size:11.28888893px;font-style:normal;font-weight:normal;line-height:125%;letter-spacing:0px;word-spacing:0px;fill:#000000;fill-opacity:1;stroke:none;font-family:sans-serif"
       x="123"
       y="23.999998"
       id="text23349"
       sodipodi:linespacing="125%"><tspan
         sodipodi:role="line"
         id="tspan23351"
         x="123"
         y="23.999998" /></text>
    <text
       xml:space="preserve"
       style="font-size:1.41111112px;font-style:normal;font-variant:normal;font-weight:normal;font-stretch:normal;text-align:end;line-height:125%;letter-spacing:0px;word-spacing:0px;writing-mode:lr-tb;text-anchor:end;fill:#000000;fill-opacity:1;stroke:none;display:inline;font-family:Sans;-inkscape-font-specification:Sans"
       x="21.999977"
       y="61.675552"
       id="text7689-9"
       sodipodi:linespacing="125%"><tspan
         sodipodi:role="line"
         id="tspan3105-4"
         x="21.999977"
         y="61.675552">$u_1(t)$</tspan></text>
    <text
       xml:space="preserve"
       style="font-size:1.41111112px;font-style:normal;font-variant:normal;font-weight:normal;font-stretch:normal;text-align:center;line-height:125%;letter-spacing:0px;word-spacing:0px;writing-mode:lr-tb;text-anchor:middle;fill:#000000;fill-opacity:1;stroke:none;display:inline;font-family:Sans;-inkscape-font-specification:Sans"
       x="29.079058"
       y="48.311852"
       id="text7689-9-8"
       sodipodi:linespacing="125%"><tspan
         sodipodi:role="line"
         id="tspan3105-4-8"
         x="29.079058"
         y="48.311852">$i_1(t)$</tspan></text>
    <flowRoot
       xml:space="preserve"
       id="flowRoot4056"
       style="font-size:5px;font-style:normal;font-variant:normal;font-weight:normal;font-stretch:normal;text-align:start;line-height:125%;letter-spacing:0px;word-spacing:0px;writing-mode:lr-tb;text-anchor:start;fill:#000000;fill-opacity:1;stroke:none;font-family:Sans;-inkscape-font-specification:Sans"><flowRegion
         id="flowRegion4058"><rect
           id="rect4060"
           width="45.061104"
           height="90.918335"
           x="42.035797"
           y="9.6466522" /></flowRegion><flowPara
         id="flowPara4062" /></flowRoot>    <path
       style="fill:none;stroke:#000000;stroke-width:0.30000001;stroke-linecap:butt;stroke-linejoin:miter;stroke-miterlimit:4;stroke-opacity:1;stroke-dasharray:none;stroke-dashoffset:0;marker-end:url(#marker7993);display:inline"
       d="m 55.037137,53.66426 0,13.53528"
       id="path7106-9"
       inkscape:connector-curvature="0"
       sodipodi:nodetypes="cc" />
    <path
       sodipodi:type="arc"
       style="fill:none;stroke:#000000;stroke-width:1.0629921;stroke-linecap:butt;stroke-linejoin:miter;stroke-miterlimit:4;stroke-opacity:1;stroke-dasharray:none;stroke-dashoffset:0;display:inline"
       id="path4474-0-5-4"
       sodipodi:cx="38.976379"
       sodipodi:cy="14.173228"
       sodipodi:rx="3.5433071"
       sodipodi:ry="3.5433071"
       d="m 42.519686,14.173228 c 0,1.956915 -1.586392,3.543307 -3.543307,3.543307 -1.956914,0 -3.543307,-1.586392 -3.543307,-3.543307 0,-1.956914 1.586393,-3.543307 3.543307,-3.543307 1.956915,0 3.543307,1.586393 3.543307,3.543307 z"
       transform="matrix(-0.28222222,0,0,0.28222222,65.999991,47.675529)" />
    <path
       sodipodi:type="arc"
       style="fill:none;stroke:#000000;stroke-width:1.0629921;stroke-linecap:butt;stroke-linejoin:miter;stroke-miterlimit:4;stroke-opacity:1;stroke-dasharray:none;stroke-dashoffset:0;display:inline"
       id="path4474-7-8-1-8"
       sodipodi:cx="38.976379"
       sodipodi:cy="14.173228"
       sodipodi:rx="3.5433071"
       sodipodi:ry="3.5433071"
       d="m 42.519686,14.173228 c 0,1.956915 -1.586392,3.543307 -3.543307,3.543307 -1.956914,0 -3.543307,-1.586392 -3.543307,-3.543307 0,-1.956914 1.586393,-3.543307 3.543307,-3.543307 1.956915,0 3.543307,1.586393 3.543307,3.543307 z"
       transform="matrix(-0.28222222,0,0,0.28222222,66.037151,65.66426)" />
    <path
       style="fill:none;stroke:#000000;stroke-width:0.30000001;stroke-linecap:butt;stroke-linejoin:miter;stroke-miterlimit:4;stroke-opacity:1;stroke-dasharray:none;display:inline"
       d="m 53.908267,51.66426 -10.90829,0.0113 0,3"
       id="path5216-7-8"
       inkscape:connector-curvature="0"
       sodipodi:nodetypes="ccc" />
    <path
       style="fill:none;stroke:#000000;stroke-width:0.30000001;stroke-linecap:butt;stroke-linejoin:miter;stroke-miterlimit:4;stroke-opacity:1;stroke-dasharray:none;display:inline"
       d="m 53.908257,69.70226 -10.90828,-0.0267 0,-3"
       id="path5218-1-2"
       inkscape:connector-curvature="0"
       sodipodi:nodetypes="ccc" />
    <path
       style="fill:none;stroke:#000000;stroke-width:0.3;stroke-linecap:butt;stroke-linejoin:miter;stroke-miterlimit:4;stroke-opacity:1;stroke-dasharray:none;marker-end:none;display:inline;marker-start:url(#marker7939)"
       d="m 52.521657,50.27106 -7.41946,0"
       id="path4091-4"
       inkscape:connector-curvature="0"
       sodipodi:nodetypes="cc" />
    <path
       sodipodi:type="arc"
       style="fill:none;stroke:#000000;stroke-width:1.05546426;stroke-linecap:square;stroke-linejoin:miter;stroke-miterlimit:4;stroke-opacity:1;stroke-dasharray:none;stroke-dashoffset:0"
       id="path3135-5"
       sodipodi:cx="131.10236"
       sodipodi:cy="24.803148"
       sodipodi:rx="7.0866132"
       sodipodi:ry="7.0866141"
       d="m 138.18897,24.803148 a 7.0866132,7.0866141 0 0 1 -14.1728,0.07777"
       transform="matrix(0.00117843,0.2819411,-0.28654283,0.0011853,49.98328,19.680782)"
       sodipodi:start="0"
       sodipodi:end="3.1306183"
       sodipodi:open="true" />
    <path
       sodipodi:type="arc"
       style="fill:none;stroke:#000000;stroke-width:1.06885322;stroke-linecap:square;stroke-linejoin:miter;stroke-miterlimit:4;stroke-opacity:1;stroke-dasharray:none;stroke-dashoffset:0;display:inline"
       id="path3135-2-1"
       sodipodi:cx="131.10236"
       sodipodi:cy="24.803148"
       sodipodi:rx="7.0866132"
       sodipodi:ry="7.0866141"
       d="m 138.18897,24.803148 a 7.0866132,7.0866141 0 0 1 -14.1728,0.07777"
       transform="matrix(0,0.28223263,-0.27912526,0,49.90123,23.674152)"
       sodipodi:start="0"
       sodipodi:end="3.1306183"
       sodipodi:open="true" />
    <path
       sodipodi:type="arc"
       style="fill:none;stroke:#000000;stroke-width:1.07111233;stroke-linecap:square;stroke-linejoin:miter;stroke-miterlimit:4;stroke-opacity:1;stroke-dasharray:none;stroke-dashoffset:0;display:inline"
       id="path3135-4-7"
       sodipodi:cx="131.10236"
       sodipodi:cy="24.803148"
       sodipodi:rx="7.0866132"
       sodipodi:ry="7.0866141"
       d="m 138.18891,24.773302 a 7.0866132,7.0866141 0 0 1 -14.17274,0.107616"
       transform="matrix(0,0.28222918,-0.27795248,0,49.88579,27.674599)"
       sodipodi:start="6.2789737"
       sodipodi:end="9.4138036"
       sodipodi:open="true" />
    <text
       xml:space="preserve"
       style="font-size:1.41111112px;font-style:normal;font-variant:normal;font-weight:normal;font-stretch:normal;text-align:center;line-height:125%;letter-spacing:0px;word-spacing:0px;writing-mode:lr-tb;text-anchor:middle;fill:#000000;fill-opacity:1;stroke:none;display:inline;font-family:Sans;-inkscape-font-specification:Sans"
       x="48.824398"
       y="48.35067"
       id="text7689-9-8-1"
       sodipodi:linespacing="125%"><tspan
         sodipodi:role="line"
         id="tspan3105-4-8-4"
         x="48.824398"
         y="48.35067">$i_2(t)$</tspan></text>
    <text
       xml:space="preserve"
       style="font-size:1.41111112px;font-style:normal;font-variant:normal;font-weight:normal;font-stretch:normal;text-align:start;line-height:125%;letter-spacing:0px;word-spacing:0px;writing-mode:lr-tb;text-anchor:start;fill:#000000;fill-opacity:1;stroke:none;display:inline;font-family:Sans;-inkscape-font-specification:Sans"
       x="55.999977"
       y="61.67556"
       id="text7689-9-2"
       sodipodi:linespacing="125%"><tspan
         sodipodi:role="line"
         id="tspan3105-4-2"
         x="55.999977"
         y="61.67556">$u_2(t)$</tspan></text>
    <path
       sodipodi:type="arc"
       style="opacity:0.98999999;fill:#000000;fill-opacity:1;stroke:none;display:inline"
       id="path4363-9-8-12"
       sodipodi:cx="118.70079"
       sodipodi:cy="37.204723"
       sodipodi:rx="1.7716535"
       sodipodi:ry="1.7716535"
       d="m 120.47244,37.204723 c 0,0.978458 -0.79319,1.771654 -1.77165,1.771654 -0.97846,0 -1.77165,-0.793196 -1.77165,-1.771654 0,-0.978457 0.79319,-1.771653 1.77165,-1.771653 0.97846,0 1.77165,0.793196 1.77165,1.771653 z"
       transform="matrix(0.28222222,0,0,0.28222222,3.0371342,43.186857)" />
    <path
       sodipodi:type="arc"
       style="opacity:0.98999999;fill:#000000;fill-opacity:1;stroke:none;display:inline"
       id="path4363-9-8-12-1"
       sodipodi:cx="118.70079"
       sodipodi:cy="37.204723"
       sodipodi:rx="1.7716535"
       sodipodi:ry="1.7716535"
       d="m 120.47244,37.204723 c 0,0.978458 -0.79319,1.771654 -1.77165,1.771654 -0.97846,0 -1.77165,-0.793196 -1.77165,-1.771654 0,-0.978457 0.79319,-1.771653 1.77165,-1.771653 0.97846,0 1.77165,0.793196 1.77165,1.771653 z"
       transform="matrix(0.28222222,0,0,0.28222222,7.9999778,43.17556)" />
    <text
       xml:space="preserve"
       style="font-size:1.41111112px;font-style:normal;font-variant:normal;font-weight:normal;font-stretch:normal;text-align:center;line-height:125%;letter-spacing:0px;word-spacing:0px;writing-mode:lr-tb;text-anchor:middle;fill:#000000;fill-opacity:1;stroke:none;display:inline;font-family:Sans;-inkscape-font-specification:Sans"
       x="38.999992"
       y="72.675529"
       id="text7689-9-8-1-1"
       sodipodi:linespacing="125%"><tspan
         sodipodi:role="line"
         id="tspan3105-4-8-4-7"
         x="38.999992"
         y="72.675529">$m\!:\!1$</tspan></text>
  </g>
</svg>
