<?xml version="1.0" encoding="UTF-8" standalone="no"?>
<!-- Created with Inkscape (http://www.inkscape.org/) -->

<svg
   xmlns:dc="http://purl.org/dc/elements/1.1/"
   xmlns:cc="http://creativecommons.org/ns#"
   xmlns:rdf="http://www.w3.org/1999/02/22-rdf-syntax-ns#"
   xmlns:svg="http://www.w3.org/2000/svg"
   xmlns="http://www.w3.org/2000/svg"
   xmlns:sodipodi="http://sodipodi.sourceforge.net/DTD/sodipodi-0.dtd"
   xmlns:inkscape="http://www.inkscape.org/namespaces/inkscape"
   sodipodi:docname="Cap-CalcBas-pu-Circuit2.svg"
   viewBox="0 0 125 24.999999"
   inkscape:version="0.92.4 (5da689c313, 2019-01-14)"
   version="1.1"
   id="svg3347"
   height="88.582672"
   width="442.91336">
  <sodipodi:namedview
     id="base"
     pagecolor="#ffffff"
     bordercolor="#666666"
     borderopacity="1.0"
     inkscape:pageopacity="0.0"
     inkscape:pageshadow="2"
     inkscape:zoom="3.0398815"
     inkscape:cx="233.05664"
     inkscape:cy="81.794477"
     inkscape:document-units="mm"
     inkscape:current-layer="capa1"
     showgrid="true"
     inkscape:window-width="1920"
     inkscape:window-height="1017"
     inkscape:window-x="-8"
     inkscape:window-y="-8"
     inkscape:window-maximized="1"
     fit-margin-top="0"
     fit-margin-left="0"
     fit-margin-right="0"
     fit-margin-bottom="0"
     units="mm"
     inkscape:snap-bbox="true"
     showguides="true"
     inkscape:snap-grids="true"
     inkscape:object-paths="false"
     inkscape:guide-bbox="true"
     inkscape:snap-global="true"
     inkscape:object-nodes="false"
     inkscape:snap-midpoints="true"
     inkscape:snap-nodes="true"
     inkscape:snap-bbox-edge-midpoints="false"
     inkscape:bbox-nodes="false"
     inkscape:snap-bbox-midpoints="false"
     inkscape:bbox-paths="false">
    <inkscape:grid
       snapvisiblegridlinesonly="true"
       id="grid4179"
       type="xygrid"
       color="#3f3fff"
       opacity="0.39215686"
       empcolor="#933fff"
       empopacity="0.39215686"
       units="mm"
       empspacing="5"
       visible="true"
       enabled="true"
       originx="0mm"
       originy="0mm" />
    <sodipodi:guide
       orientation="0,1"
       position="177.16535,-35.433071"
       id="guide5238"
       inkscape:locked="false" />
    <sodipodi:guide
       orientation="0,1"
       position="46.062992,42.519685"
       id="guide3116"
       inkscape:locked="false" />
  </sodipodi:namedview>
  <defs
     id="defs3349">
    <marker
       inkscape:stockid="DotM"
       orient="auto"
       refY="0"
       refX="0"
       id="DotM"
       style="overflow:visible">
      <path
         id="path4112"
         d="m -2.5,-1 c 0,2.76 -2.24,5 -5,5 -2.76,0 -5,-2.24 -5,-5 0,-2.76 2.24,-5 5,-5 2.76,0 5,2.24 5,5 z"
         style="fill-rule:evenodd;stroke:#000000;stroke-width:1pt"
         transform="matrix(0.4,0,0,0.4,2.96,0.4)"
         inkscape:connector-curvature="0" />
    </marker>
    <marker
       inkscape:stockid="DiamondMend"
       orient="auto"
       refY="0"
       refX="0"
       id="DiamondMend"
       style="overflow:visible">
      <path
         id="path4148"
         d="M 0,-7.0710768 -7.0710894,0 0,7.0710589 7.0710462,0 0,-7.0710768 z"
         style="fill-rule:evenodd;stroke:#000000;stroke-width:1pt"
         transform="matrix(0.4,0,0,0.4,-2.6,0)"
         inkscape:connector-curvature="0" />
    </marker>
    <marker
       inkscape:stockid="Arrow2Send"
       orient="auto"
       refY="0"
       refX="0"
       id="Arrow2Send"
       style="overflow:visible">
      <path
         id="path4010"
         style="fill-rule:evenodd;stroke-width:0.625;stroke-linejoin:round"
         d="M 8.7185878,4.0337352 -2.2072895,0.01601326 8.7185884,-4.0017078 c -1.7454984,2.3720609 -1.7354408,5.6174519 -6e-7,8.035443 z"
         transform="matrix(-0.3,0,0,-0.3,0.69,0)"
         inkscape:connector-curvature="0" />
    </marker>
    <marker
       inkscape:stockid="Arrow1Send"
       orient="auto"
       refY="0"
       refX="0"
       id="Arrow1Send"
       style="overflow:visible">
      <path
         id="path3992"
         d="M 0,0 5,-5 -12.5,0 5,5 0,0 z"
         style="fill-rule:evenodd;stroke:#000000;stroke-width:1pt"
         transform="matrix(-0.2,0,0,-0.2,-1.2,0)"
         inkscape:connector-curvature="0" />
    </marker>
    <marker
       inkscape:stockid="TriangleOutM"
       orient="auto"
       refY="0"
       refX="0"
       id="TriangleOutM"
       style="overflow:visible">
      <path
         id="path4122"
         d="m 5.77,0 -8.65,5 0,-10 8.65,5 z"
         style="fill-rule:evenodd;stroke:#000000;stroke-width:1pt"
         transform="scale(0.4,0.4)"
         inkscape:connector-curvature="0" />
    </marker>
    <marker
       inkscape:stockid="Arrow2Mend"
       orient="auto"
       refY="0"
       refX="0"
       id="marker19821"
       style="overflow:visible"
       inkscape:isstock="true">
      <path
         id="path19823"
         style="fill:#0000ff;fill-opacity:1;fill-rule:evenodd;stroke:#0000ff;stroke-width:0.625;stroke-linejoin:round;stroke-opacity:1"
         d="M 8.7185878,4.0337352 -2.2072895,0.01601326 8.7185884,-4.0017078 c -1.7454984,2.3720609 -1.7354408,5.6174519 -6e-7,8.035443 z"
         transform="scale(-0.6,-0.6)"
         inkscape:connector-curvature="0" />
    </marker>
    <marker
       inkscape:stockid="Arrow2Mstart"
       orient="auto"
       refY="0"
       refX="0"
       id="marker19783"
       style="overflow:visible"
       inkscape:isstock="true">
      <path
         id="path19785"
         style="fill:#0000ff;fill-opacity:1;fill-rule:evenodd;stroke:#0000ff;stroke-width:0.625;stroke-linejoin:round;stroke-opacity:1"
         d="M 8.7185878,4.0337352 -2.2072895,0.01601326 8.7185884,-4.0017078 c -1.7454984,2.3720609 -1.7354408,5.6174519 -6e-7,8.035443 z"
         transform="scale(0.6,0.6)"
         inkscape:connector-curvature="0" />
    </marker>
    <marker
       inkscape:stockid="Arrow2Mend"
       orient="auto"
       refY="0"
       refX="0"
       id="marker19695"
       style="overflow:visible"
       inkscape:isstock="true">
      <path
         id="path19697"
         style="fill:#000000;fill-opacity:1;fill-rule:evenodd;stroke:#000000;stroke-width:0.625;stroke-linejoin:round;stroke-opacity:1"
         d="M 8.7185878,4.0337352 -2.2072895,0.01601326 8.7185884,-4.0017078 c -1.7454984,2.3720609 -1.7354408,5.6174519 -6e-7,8.035443 z"
         transform="scale(-0.6,-0.6)"
         inkscape:connector-curvature="0" />
    </marker>
    <marker
       inkscape:stockid="Arrow2Mstart"
       orient="auto"
       refY="0"
       refX="0"
       id="marker19641"
       style="overflow:visible"
       inkscape:isstock="true">
      <path
         id="path19643"
         style="fill:#000000;fill-opacity:1;fill-rule:evenodd;stroke:#000000;stroke-width:0.625;stroke-linejoin:round;stroke-opacity:1"
         d="M 8.7185878,4.0337352 -2.2072895,0.01601326 8.7185884,-4.0017078 c -1.7454984,2.3720609 -1.7354408,5.6174519 -6e-7,8.035443 z"
         transform="scale(0.6,0.6)"
         inkscape:connector-curvature="0" />
    </marker>
    <marker
       inkscape:stockid="Arrow2Mend"
       orient="auto"
       refY="0"
       refX="0"
       id="marker19409"
       style="overflow:visible"
       inkscape:isstock="true">
      <path
         id="path19411"
         style="fill:#ff0000;fill-opacity:1;fill-rule:evenodd;stroke:#ff0000;stroke-width:0.625;stroke-linejoin:round;stroke-opacity:1"
         d="M 8.7185878,4.0337352 -2.2072895,0.01601326 8.7185884,-4.0017078 c -1.7454984,2.3720609 -1.7354408,5.6174519 -6e-7,8.035443 z"
         transform="scale(-0.6,-0.6)"
         inkscape:connector-curvature="0" />
    </marker>
    <marker
       inkscape:stockid="Arrow1Lstart"
       orient="auto"
       refY="0"
       refX="0"
       id="marker17726"
       style="overflow:visible"
       inkscape:isstock="true">
      <path
         id="path7652"
         d="M 0,0 5,-5 -12.5,0 5,5 0,0 z"
         style="fill:#000000;fill-opacity:1;fill-rule:evenodd;stroke:#000000;stroke-width:1pt;stroke-opacity:1"
         transform="matrix(0.8,0,0,0.8,10,0)"
         inkscape:connector-curvature="0" />
    </marker>
    <marker
       inkscape:stockid="Arrow2Lend"
       orient="auto"
       refY="0"
       refX="0"
       id="marker17688"
       style="overflow:visible"
       inkscape:isstock="true">
      <path
         id="path17690"
         style="fill:#000000;fill-opacity:1;fill-rule:evenodd;stroke:#000000;stroke-width:0.625;stroke-linejoin:round;stroke-opacity:1"
         d="M 8.7185878,4.0337352 -2.2072895,0.01601326 8.7185884,-4.0017078 c -1.7454984,2.3720609 -1.7354408,5.6174519 -6e-7,8.035443 z"
         transform="matrix(-1.1,0,0,-1.1,-1.1,0)"
         inkscape:connector-curvature="0" />
    </marker>
    <marker
       inkscape:stockid="Arrow2Mstart"
       orient="auto"
       refY="0"
       refX="0"
       id="marker16234"
       style="overflow:visible"
       inkscape:isstock="true">
      <path
         id="path16236"
         style="fill:#000000;fill-opacity:1;fill-rule:evenodd;stroke:#000000;stroke-width:0.625;stroke-linejoin:round;stroke-opacity:1"
         d="M 8.7185878,4.0337352 -2.2072895,0.01601326 8.7185884,-4.0017078 c -1.7454984,2.3720609 -1.7354408,5.6174519 -6e-7,8.035443 z"
         transform="scale(0.6,0.6)"
         inkscape:connector-curvature="0" />
    </marker>
    <marker
       inkscape:stockid="Arrow2Mend"
       orient="auto"
       refY="0"
       refX="0"
       id="marker15512"
       style="overflow:visible"
       inkscape:isstock="true">
      <path
         id="path15514"
         style="fill:#000000;fill-opacity:1;fill-rule:evenodd;stroke:#000000;stroke-width:0.625;stroke-linejoin:round;stroke-opacity:1"
         d="M 8.7185878,4.0337352 -2.2072895,0.01601326 8.7185884,-4.0017078 c -1.7454984,2.3720609 -1.7354408,5.6174519 -6e-7,8.035443 z"
         transform="scale(-0.6,-0.6)"
         inkscape:connector-curvature="0" />
    </marker>
    <marker
       inkscape:stockid="Arrow2Mstart"
       orient="auto"
       refY="0"
       refX="0"
       id="marker15458"
       style="overflow:visible"
       inkscape:isstock="true">
      <path
         id="path15460"
         style="fill:#000000;fill-opacity:1;fill-rule:evenodd;stroke:#000000;stroke-width:0.625;stroke-linejoin:round;stroke-opacity:1"
         d="M 8.7185878,4.0337352 -2.2072895,0.01601326 8.7185884,-4.0017078 c -1.7454984,2.3720609 -1.7354408,5.6174519 -6e-7,8.035443 z"
         transform="scale(0.6,0.6)"
         inkscape:connector-curvature="0" />
    </marker>
    <marker
       inkscape:stockid="Arrow2Mend"
       orient="auto"
       refY="0"
       refX="0"
       id="marker14302"
       style="overflow:visible"
       inkscape:isstock="true">
      <path
         id="path14304"
         style="fill:#000000;fill-opacity:1;fill-rule:evenodd;stroke:#000000;stroke-width:0.625;stroke-linejoin:round;stroke-opacity:1"
         d="M 8.7185878,4.0337352 -2.2072895,0.01601326 8.7185884,-4.0017078 c -1.7454984,2.3720609 -1.7354408,5.6174519 -6e-7,8.035443 z"
         transform="scale(-0.6,-0.6)"
         inkscape:connector-curvature="0" />
    </marker>
    <marker
       inkscape:stockid="TriangleOutL"
       orient="auto"
       refY="0"
       refX="0"
       id="TriangleOutL"
       style="overflow:visible"
       inkscape:isstock="true">
      <path
         id="path7794"
         d="m 5.77,0 -8.65,5 0,-10 8.65,5 z"
         style="fill:#000000;fill-opacity:1;fill-rule:evenodd;stroke:#000000;stroke-width:1pt;stroke-opacity:1"
         transform="scale(0.8,0.8)"
         inkscape:connector-curvature="0" />
    </marker>
    <marker
       inkscape:stockid="Arrow2Lend"
       orient="auto"
       refY="0"
       refX="0"
       id="marker12663"
       style="overflow:visible"
       inkscape:isstock="true">
      <path
         id="path7673"
         style="fill:#000000;fill-opacity:1;fill-rule:evenodd;stroke:#000000;stroke-width:0.625;stroke-linejoin:round;stroke-opacity:1"
         d="M 8.7185878,4.0337352 -2.2072895,0.01601326 8.7185884,-4.0017078 c -1.7454984,2.3720609 -1.7354408,5.6174519 -6e-7,8.035443 z"
         transform="matrix(-1.1,0,0,-1.1,-1.1,0)"
         inkscape:connector-curvature="0" />
    </marker>
    <marker
       inkscape:stockid="Arrow2Mend"
       orient="auto"
       refY="0"
       refX="0"
       id="marker12527"
       style="overflow:visible"
       inkscape:isstock="true">
      <path
         id="path12529"
         style="fill:#000000;fill-opacity:1;fill-rule:evenodd;stroke:#000000;stroke-width:0.625;stroke-linejoin:round;stroke-opacity:1"
         d="M 8.7185878,4.0337352 -2.2072895,0.01601326 8.7185884,-4.0017078 c -1.7454984,2.3720609 -1.7354408,5.6174519 -6e-7,8.035443 z"
         transform="scale(-0.6,-0.6)"
         inkscape:connector-curvature="0" />
    </marker>
    <marker
       inkscape:stockid="Arrow2Mend"
       orient="auto"
       refY="0"
       refX="0"
       id="marker12395"
       style="overflow:visible"
       inkscape:isstock="true">
      <path
         id="path12397"
         style="fill:#000000;fill-opacity:1;fill-rule:evenodd;stroke:#000000;stroke-width:0.625;stroke-linejoin:round;stroke-opacity:1"
         d="M 8.7185878,4.0337352 -2.2072895,0.01601326 8.7185884,-4.0017078 c -1.7454984,2.3720609 -1.7354408,5.6174519 -6e-7,8.035443 z"
         transform="scale(-0.6,-0.6)"
         inkscape:connector-curvature="0" />
    </marker>
    <marker
       inkscape:stockid="Arrow2Mend"
       orient="auto"
       refY="0"
       refX="0"
       id="marker7993"
       style="overflow:visible"
       inkscape:isstock="true">
      <path
         id="path7995"
         style="fill:#000000;fill-opacity:1;fill-rule:evenodd;stroke:#000000;stroke-width:0.625;stroke-linejoin:round;stroke-opacity:1"
         d="M 8.7185878,4.0337352 -2.2072895,0.01601326 8.7185884,-4.0017078 c -1.7454984,2.3720609 -1.7354408,5.6174519 -6e-7,8.035443 z"
         transform="scale(-0.6,-0.6)"
         inkscape:connector-curvature="0" />
    </marker>
    <marker
       inkscape:stockid="Arrow2Mstart"
       orient="auto"
       refY="0"
       refX="0"
       id="marker7939"
       style="overflow:visible"
       inkscape:isstock="true">
      <path
         id="path7941"
         style="fill:#000000;fill-opacity:1;fill-rule:evenodd;stroke:#000000;stroke-width:0.625;stroke-linejoin:round;stroke-opacity:1"
         d="M 8.7185878,4.0337352 -2.2072895,0.01601326 8.7185884,-4.0017078 c -1.7454984,2.3720609 -1.7354408,5.6174519 -6e-7,8.035443 z"
         transform="scale(0.6,0.6)"
         inkscape:connector-curvature="0" />
    </marker>
    <marker
       inkscape:stockid="Arrow1Mstart"
       orient="auto"
       refY="0"
       refX="0"
       id="marker7908"
       style="overflow:visible"
       inkscape:isstock="true">
      <path
         id="path7658"
         d="M 0,0 5,-5 -12.5,0 5,5 0,0 z"
         style="fill:#000000;fill-opacity:1;fill-rule:evenodd;stroke:#000000;stroke-width:1pt;stroke-opacity:1"
         transform="matrix(0.4,0,0,0.4,4,0)"
         inkscape:connector-curvature="0" />
    </marker>
    <marker
       inkscape:isstock="true"
       style="overflow:visible"
       id="Arrow1Mend"
       refX="0"
       refY="0"
       orient="auto"
       inkscape:stockid="Arrow1Mend">
      <path
         transform="matrix(-0.4,0,0,-0.4,-4,0)"
         style="fill:#000000;fill-opacity:1;fill-rule:evenodd;stroke:#000000;stroke-width:1pt;stroke-opacity:1"
         d="M 0,0 5,-5 -12.5,0 5,5 0,0 z"
         id="path4223"
         inkscape:connector-curvature="0" />
    </marker>
    <marker
       inkscape:isstock="true"
       style="overflow:visible"
       id="Arrow1Mstart"
       refX="0"
       refY="0"
       orient="auto"
       inkscape:stockid="Arrow1Mstart">
      <path
         transform="matrix(0.4,0,0,0.4,4,0)"
         style="fill:#000000;fill-opacity:1;fill-rule:evenodd;stroke:#000000;stroke-width:1pt;stroke-opacity:1"
         d="M 0,0 5,-5 -12.5,0 5,5 0,0 z"
         id="path4220"
         inkscape:connector-curvature="0" />
    </marker>
    <marker
       inkscape:isstock="true"
       style="overflow:visible"
       id="Arrow2Lend"
       refX="0"
       refY="0"
       orient="auto"
       inkscape:stockid="Arrow2Lend">
      <path
         transform="matrix(-1.1,0,0,-1.1,-1.1,0)"
         d="M 8.7185878,4.0337352 -2.2072895,0.01601326 8.7185884,-4.0017078 c -1.7454984,2.3720609 -1.7354408,5.6174519 -6e-7,8.035443 z"
         style="fill:#000000;fill-opacity:1;fill-rule:evenodd;stroke:#000000;stroke-width:0.625;stroke-linejoin:round;stroke-opacity:1"
         id="path4235"
         inkscape:connector-curvature="0" />
    </marker>
    <marker
       inkscape:isstock="true"
       style="overflow:visible"
       id="marker5809"
       refX="0"
       refY="0"
       orient="auto"
       inkscape:stockid="Arrow1Lend">
      <path
         inkscape:connector-curvature="0"
         transform="matrix(-0.8,0,0,-0.8,-10,0)"
         style="fill:#000000;fill-opacity:1;fill-rule:evenodd;stroke:#000000;stroke-width:1pt;stroke-opacity:1"
         d="M 0,0 5,-5 -12.5,0 5,5 0,0 z"
         id="path5811" />
    </marker>
    <marker
       inkscape:isstock="true"
       style="overflow:visible"
       id="Arrow1Lstart"
       refX="0"
       refY="0"
       orient="auto"
       inkscape:stockid="Arrow1Lstart">
      <path
         inkscape:connector-curvature="0"
         transform="matrix(0.8,0,0,0.8,10,0)"
         style="fill:#000000;fill-opacity:1;fill-rule:evenodd;stroke:#000000;stroke-width:1pt;stroke-opacity:1"
         d="M 0,0 5,-5 -12.5,0 5,5 0,0 z"
         id="path4165" />
    </marker>
    <marker
       inkscape:isstock="true"
       style="overflow:visible"
       id="marker5277"
       refX="0"
       refY="0"
       orient="auto"
       inkscape:stockid="Arrow1Lend">
      <path
         inkscape:connector-curvature="0"
         transform="matrix(-0.8,0,0,-0.8,-10,0)"
         style="fill:#000000;fill-opacity:1;fill-rule:evenodd;stroke:#000000;stroke-width:1pt;stroke-opacity:1"
         d="M 0,0 5,-5 -12.5,0 5,5 0,0 z"
         id="path5279" />
    </marker>
    <marker
       inkscape:isstock="true"
       style="overflow:visible"
       id="Arrow1Lend"
       refX="0"
       refY="0"
       orient="auto"
       inkscape:stockid="Arrow1Lend">
      <path
         inkscape:connector-curvature="0"
         transform="matrix(-0.8,0,0,-0.8,-10,0)"
         style="fill:#000000;fill-opacity:1;fill-rule:evenodd;stroke:#000000;stroke-width:1pt;stroke-opacity:1"
         d="M 0,0 5,-5 -12.5,0 5,5 0,0 z"
         id="path4168" />
    </marker>
    <marker
       inkscape:isstock="true"
       style="overflow:visible"
       id="Arrow2Lstart"
       refX="0"
       refY="0"
       orient="auto"
       inkscape:stockid="Arrow2Lstart">
      <path
         inkscape:connector-curvature="0"
         transform="matrix(1.1,0,0,1.1,1.1,0)"
         d="M 8.7185878,4.0337352 -2.2072895,0.01601326 8.7185884,-4.0017078 c -1.7454984,2.3720609 -1.7354408,5.6174519 -6e-7,8.035443 z"
         style="fill:#000000;fill-opacity:1;fill-rule:evenodd;stroke:#000000;stroke-width:0.625;stroke-linejoin:round;stroke-opacity:1"
         id="path4183" />
    </marker>
    <marker
       inkscape:stockid="Arrow2Mend"
       orient="auto"
       refY="0"
       refX="0"
       id="marker7993-1"
       style="overflow:visible"
       inkscape:isstock="true">
      <path
         id="path7995-7"
         style="fill:#000000;fill-opacity:1;fill-rule:evenodd;stroke:#000000;stroke-width:0.625;stroke-linejoin:round;stroke-opacity:1"
         d="M 8.7185878,4.0337352 -2.2072895,0.01601326 8.7185884,-4.0017078 c -1.7454984,2.3720609 -1.7354408,5.6174519 -6e-7,8.035443 z"
         transform="scale(-0.6,-0.6)"
         inkscape:connector-curvature="0" />
    </marker>
    <marker
       inkscape:stockid="Arrow2Mstart"
       orient="auto"
       refY="0"
       refX="0"
       id="marker7939-1"
       style="overflow:visible"
       inkscape:isstock="true">
      <path
         id="path7941-5"
         style="fill:#000000;fill-opacity:1;fill-rule:evenodd;stroke:#000000;stroke-width:0.625;stroke-linejoin:round;stroke-opacity:1"
         d="M 8.7185878,4.0337352 -2.2072895,0.01601326 8.7185884,-4.0017078 c -1.7454984,2.3720609 -1.7354408,5.6174519 -6e-7,8.035443 z"
         transform="scale(0.6,0.6)"
         inkscape:connector-curvature="0" />
    </marker>
    <marker
       inkscape:stockid="DotM"
       orient="auto"
       refY="0"
       refX="0"
       id="DotM-1"
       style="overflow:visible">
      <path
         id="path4112-4"
         d="m -2.5,-1 c 0,2.76 -2.24,5 -5,5 -2.76,0 -5,-2.24 -5,-5 0,-2.76 2.24,-5 5,-5 2.76,0 5,2.24 5,5 z"
         style="fill-rule:evenodd;stroke:#000000;stroke-width:1pt"
         transform="matrix(0.4,0,0,0.4,2.96,0.4)"
         inkscape:connector-curvature="0" />
    </marker>
    <marker
       inkscape:stockid="Arrow2Mend"
       orient="auto"
       refY="0"
       refX="0"
       id="marker7993-4"
       style="overflow:visible"
       inkscape:isstock="true">
      <path
         id="path7995-2"
         style="fill:#000000;fill-opacity:1;fill-rule:evenodd;stroke:#000000;stroke-width:0.625;stroke-linejoin:round;stroke-opacity:1"
         d="M 8.7185878,4.0337352 -2.2072895,0.01601326 8.7185884,-4.0017078 c -1.7454984,2.3720609 -1.7354408,5.6174519 -6e-7,8.035443 z"
         transform="scale(-0.6,-0.6)"
         inkscape:connector-curvature="0" />
    </marker>
  </defs>
  <metadata
     id="metadata3352">
    <rdf:RDF>
      <cc:Work
         rdf:about="">
        <dc:format>image/svg+xml</dc:format>
        <dc:type
           rdf:resource="http://purl.org/dc/dcmitype/StillImage" />
        <dc:title></dc:title>
      </cc:Work>
    </rdf:RDF>
  </metadata>
  <g
     style="display:inline"
     transform="translate(-365.74658,-121.65057)"
     id="capa1"
     inkscape:groupmode="layer"
     inkscape:label="Dibuix">
    <path
       style="fill:none;stroke:none"
       d="m 365.74658,107.31316 c 2.28571,-17.004477 4.57143,-26.876029 6.85714,-19.558872 2.28572,7.317158 4.57143,30.033332 6.85715,44.953622 2.28571,14.9203 4.57142,18.28665 6.85714,6.70236 2.28571,-11.58428 4.57143,-35.26322 6.85714,-46.870463 2.28572,-11.607244 4.57143,-8.201541 6.85714,6.70236 2.28572,14.903903 4.57143,37.608823 6.85715,44.953623 2.28571,7.3448 4.57143,-2.55439 6.85714,-19.55887"
       title="sin(x)"
       id="path4388"
       inkscape:connector-curvature="0" />
    <ellipse
       cy="134.65057"
       cx="480.74658"
       id="path5243-4"
       style="display:inline;fill:none;stroke:#000000;stroke-width:0.29999998;stroke-linecap:butt;stroke-linejoin:miter;stroke-miterlimit:4;stroke-dasharray:none;stroke-dashoffset:0;stroke-opacity:1"
       rx="4.0000105"
       ry="4.0025177" />
    <path
       id="path4449"
       title="sin(x)"
       d="m 478.45718,134.67195 c 0.38012,-0.66489 0.76022,-1.26933 1.14035,-1.26985 0.38013,-5.2e-4 0.76022,0.60496 1.14036,1.26985 0.38013,0.66489 0.76023,1.26933 1.14035,1.26986 0.38012,5.2e-4 0.76024,-0.60497 1.14035,-1.26986"
       style="display:inline;fill:none;stroke:#000000;stroke-width:0.30000001;stroke-linecap:square;stroke-linejoin:miter;stroke-miterlimit:4;stroke-dasharray:none;stroke-dashoffset:0;stroke-opacity:1"
       inkscape:connector-curvature="0" />
    <ellipse
       cy="134.65057"
       cx="392.74768"
       id="path5243-4-7"
       style="display:inline;fill:none;stroke:#000000;stroke-width:0.30000001;stroke-linecap:butt;stroke-linejoin:miter;stroke-miterlimit:4;stroke-dasharray:none;stroke-dashoffset:0;stroke-opacity:1"
       rx="5.0010891"
       ry="5.000546" />
    <ellipse
       cy="134.65112"
       cx="399.74878"
       id="path5243-4-7-9"
       style="display:inline;fill:none;stroke:#000000;stroke-width:0.30000001;stroke-linecap:butt;stroke-linejoin:miter;stroke-miterlimit:4;stroke-dasharray:none;stroke-dashoffset:0;stroke-opacity:1"
       rx="5.0010891"
       ry="5.000546" />
    <ellipse
       cy="134.65059"
       cx="447.74768"
       id="path5243-4-7-8"
       style="display:inline;fill:none;stroke:#000000;stroke-width:0.30000001;stroke-linecap:butt;stroke-linejoin:miter;stroke-miterlimit:4;stroke-dasharray:none;stroke-dashoffset:0;stroke-opacity:1"
       rx="5.0010891"
       ry="5.000546" />
    <ellipse
       cy="134.65114"
       cx="454.74878"
       id="path5243-4-7-9-8"
       style="display:inline;fill:none;stroke:#000000;stroke-width:0.30000001;stroke-linecap:butt;stroke-linejoin:miter;stroke-miterlimit:4;stroke-dasharray:none;stroke-dashoffset:0;stroke-opacity:1"
       rx="5.0010891"
       ry="5.000546" />
    <path
       transform="translate(354.74659,72.975038)"
       inkscape:connector-curvature="0"
       id="path7681-1"
       d="m 128,67.675536 v -2"
       style="display:inline;fill:none;stroke:#000000;stroke-width:0.30000001;stroke-linecap:butt;stroke-linejoin:miter;stroke-miterlimit:4;stroke-dasharray:none;stroke-opacity:1" />
    <path
       transform="translate(354.74659,72.975038)"
       inkscape:connector-curvature="0"
       id="path7683-7"
       d="m 127,66.675536 h 2"
       style="display:inline;fill:none;stroke:#000000;stroke-width:0.30000001;stroke-linecap:butt;stroke-linejoin:miter;stroke-miterlimit:4;stroke-dasharray:none;stroke-opacity:1" />
    <path
       sodipodi:type="arc"
       style="display:inline;fill:none;stroke:#000000;stroke-width:1.0629921;stroke-linecap:square;stroke-linejoin:miter;stroke-miterlimit:4;stroke-dasharray:none;stroke-dashoffset:0;stroke-opacity:1"
       id="path3135"
       sodipodi:cx="131.10236"
       sodipodi:cy="24.803148"
       sodipodi:rx="7.0866132"
       sodipodi:ry="7.0866141"
       d="m 138.18897,24.803148 a 7.0866132,7.0866141 0 0 1 -7.04773,7.086508 7.0866132,7.0866141 0 0 1 -7.12507,-7.008738"
       transform="matrix(0.28223073,0,0,-0.28222207,374.74541,134.67251)"
       sodipodi:start="0"
       sodipodi:end="3.1306183"
       sodipodi:open="true" />
    <path
       sodipodi:type="arc"
       style="display:inline;fill:none;stroke:#000000;stroke-width:1.06885839;stroke-linecap:square;stroke-linejoin:miter;stroke-miterlimit:4;stroke-dasharray:none;stroke-dashoffset:0;stroke-opacity:1"
       id="path3135-2"
       sodipodi:cx="131.10236"
       sodipodi:cy="24.803148"
       sodipodi:rx="7.0866132"
       sodipodi:ry="7.0866141"
       d="m 138.18897,24.803148 a 7.0866132,7.0866141 0 0 1 -7.04773,7.086508 7.0866132,7.0866141 0 0 1 -7.12507,-7.008738"
       transform="matrix(0.28223056,0,0,-0.27912462,378.74544,134.57374)"
       sodipodi:start="0"
       sodipodi:end="3.1306183"
       sodipodi:open="true" />
    <path
       sodipodi:type="arc"
       style="display:inline;fill:none;stroke:#000000;stroke-width:1.07483995;stroke-linecap:square;stroke-linejoin:miter;stroke-miterlimit:4;stroke-dasharray:none;stroke-dashoffset:0;stroke-opacity:1"
       id="path3135-4"
       sodipodi:cx="131.10236"
       sodipodi:cy="24.803148"
       sodipodi:rx="7.0866132"
       sodipodi:ry="7.0866141"
       d="m 138.18897,24.803148 a 7.0866132,7.0866141 0 0 1 -7.04773,7.086508 7.0866132,7.0866141 0 0 1 -7.12507,-7.008738"
       transform="matrix(0.28223053,0,0,-0.2760266,382.74544,134.4969)"
       sodipodi:start="0"
       sodipodi:end="3.1306183"
       sodipodi:open="true" />
    <path
       style="display:inline;fill:none;stroke:#000000;stroke-width:1.0629921;stroke-linecap:butt;stroke-linejoin:miter;stroke-miterlimit:4;stroke-dasharray:none;stroke-opacity:1"
       d="m 131.10236,31.889759 10.62992,-10.629922 h 14.17323"
       id="path3078"
       inkscape:connector-curvature="0"
       sodipodi:nodetypes="ccc"
       transform="matrix(0.28222223,0,0,0.28222223,365.74658,121.65057)" />
    <path
       style="display:inline;fill:none;stroke:#000000;stroke-width:1.0629921;stroke-linecap:butt;stroke-linejoin:miter;stroke-miterlimit:4;stroke-dasharray:none;stroke-opacity:1"
       d="m 131.10236,60.236215 10.62992,10.629922 h 127.55906 l 10.62992,-10.629922"
       id="path3080"
       inkscape:connector-curvature="0"
       sodipodi:nodetypes="cccc"
       transform="matrix(0.28222223,0,0,0.28222223,365.74658,121.65057)" />
    <path
       sodipodi:type="arc"
       style="display:inline;fill:none;stroke:#000000;stroke-width:1.0629921;stroke-linecap:square;stroke-linejoin:miter;stroke-miterlimit:4;stroke-dasharray:none;stroke-dashoffset:0;stroke-opacity:1"
       id="path3135-7"
       sodipodi:cx="131.10236"
       sodipodi:cy="24.803148"
       sodipodi:rx="7.0866132"
       sodipodi:ry="7.0866141"
       d="m 138.18897,24.803148 a 7.0866132,7.0866141 0 0 1 -7.04773,7.086508 7.0866132,7.0866141 0 0 1 -7.12507,-7.008738"
       transform="matrix(0.28223073,0,0,-0.28222207,390.74541,134.67251)"
       sodipodi:start="0"
       sodipodi:end="3.1306183"
       sodipodi:open="true" />
    <path
       sodipodi:type="arc"
       style="display:inline;fill:none;stroke:#000000;stroke-width:1.06885839;stroke-linecap:square;stroke-linejoin:miter;stroke-miterlimit:4;stroke-dasharray:none;stroke-dashoffset:0;stroke-opacity:1"
       id="path3135-2-4"
       sodipodi:cx="131.10236"
       sodipodi:cy="24.803148"
       sodipodi:rx="7.0866132"
       sodipodi:ry="7.0866141"
       d="m 138.18897,24.803148 a 7.0866132,7.0866141 0 0 1 -7.04773,7.086508 7.0866132,7.0866141 0 0 1 -7.12507,-7.008738"
       transform="matrix(0.28223056,0,0,-0.27912462,394.74544,134.57374)"
       sodipodi:start="0"
       sodipodi:end="3.1306183"
       sodipodi:open="true" />
    <path
       sodipodi:type="arc"
       style="display:inline;fill:none;stroke:#000000;stroke-width:1.07483995;stroke-linecap:square;stroke-linejoin:miter;stroke-miterlimit:4;stroke-dasharray:none;stroke-dashoffset:0;stroke-opacity:1"
       id="path3135-4-0"
       sodipodi:cx="131.10236"
       sodipodi:cy="24.803148"
       sodipodi:rx="7.0866132"
       sodipodi:ry="7.0866141"
       d="m 138.18897,24.803148 a 7.0866132,7.0866141 0 0 1 -7.04773,7.086508 7.0866132,7.0866141 0 0 1 -7.12507,-7.008738"
       transform="matrix(0.28223053,0,0,-0.2760266,398.74544,134.4969)"
       sodipodi:start="0"
       sodipodi:end="3.1306183"
       sodipodi:open="true" />
    <path
       sodipodi:type="arc"
       style="display:inline;fill:none;stroke:#000000;stroke-width:1.0629921;stroke-linecap:square;stroke-linejoin:miter;stroke-miterlimit:4;stroke-dasharray:none;stroke-dashoffset:0;stroke-opacity:1"
       id="path3135-48"
       sodipodi:cx="131.10236"
       sodipodi:cy="24.803148"
       sodipodi:rx="7.0866132"
       sodipodi:ry="7.0866141"
       d="m 138.18897,24.803148 a 7.0866132,7.0866141 0 0 1 -7.04773,7.086508 7.0866132,7.0866141 0 0 1 -7.12507,-7.008738"
       transform="matrix(0.28223073,0,0,-0.28222207,335.74541,134.67251)"
       sodipodi:start="0"
       sodipodi:end="3.1306183"
       sodipodi:open="true" />
    <path
       sodipodi:type="arc"
       style="display:inline;fill:none;stroke:#000000;stroke-width:1.06885839;stroke-linecap:square;stroke-linejoin:miter;stroke-miterlimit:4;stroke-dasharray:none;stroke-dashoffset:0;stroke-opacity:1"
       id="path3135-2-8"
       sodipodi:cx="131.10236"
       sodipodi:cy="24.803148"
       sodipodi:rx="7.0866132"
       sodipodi:ry="7.0866141"
       d="m 138.18897,24.803148 a 7.0866132,7.0866141 0 0 1 -7.04773,7.086508 7.0866132,7.0866141 0 0 1 -7.12507,-7.008738"
       transform="matrix(0.28223056,0,0,-0.27912462,339.74544,134.57374)"
       sodipodi:start="0"
       sodipodi:end="3.1306183"
       sodipodi:open="true" />
    <path
       sodipodi:type="arc"
       style="display:inline;fill:none;stroke:#000000;stroke-width:1.07483995;stroke-linecap:square;stroke-linejoin:miter;stroke-miterlimit:4;stroke-dasharray:none;stroke-dashoffset:0;stroke-opacity:1"
       id="path3135-4-2"
       sodipodi:cx="131.10236"
       sodipodi:cy="24.803148"
       sodipodi:rx="7.0866132"
       sodipodi:ry="7.0866141"
       d="m 138.18897,24.803148 a 7.0866132,7.0866141 0 0 1 -7.04773,7.086508 7.0866132,7.0866141 0 0 1 -7.12507,-7.008738"
       transform="matrix(0.28223053,0,0,-0.2760266,343.74544,134.4969)"
       sodipodi:start="0"
       sodipodi:end="3.1306183"
       sodipodi:open="true" />
    <path
       sodipodi:type="arc"
       style="display:inline;fill:none;stroke:#000000;stroke-width:1.0629921;stroke-linecap:square;stroke-linejoin:miter;stroke-miterlimit:4;stroke-dasharray:none;stroke-dashoffset:0;stroke-opacity:1"
       id="path3135-5"
       sodipodi:cx="131.10236"
       sodipodi:cy="24.803148"
       sodipodi:rx="7.0866132"
       sodipodi:ry="7.0866141"
       d="m 138.18897,24.803148 a 7.0866132,7.0866141 0 0 1 -7.04773,7.086508 7.0866132,7.0866141 0 0 1 -7.12507,-7.008738"
       transform="matrix(0.28223073,0,0,-0.28222207,429.74541,134.67252)"
       sodipodi:start="0"
       sodipodi:end="3.1306183"
       sodipodi:open="true" />
    <path
       sodipodi:type="arc"
       style="display:inline;fill:none;stroke:#000000;stroke-width:1.06885839;stroke-linecap:square;stroke-linejoin:miter;stroke-miterlimit:4;stroke-dasharray:none;stroke-dashoffset:0;stroke-opacity:1"
       id="path3135-2-5"
       sodipodi:cx="131.10236"
       sodipodi:cy="24.803148"
       sodipodi:rx="7.0866132"
       sodipodi:ry="7.0866141"
       d="m 138.18897,24.803148 a 7.0866132,7.0866141 0 0 1 -7.04773,7.086508 7.0866132,7.0866141 0 0 1 -7.12507,-7.008738"
       transform="matrix(0.28223056,0,0,-0.27912462,433.74544,134.57375)"
       sodipodi:start="0"
       sodipodi:end="3.1306183"
       sodipodi:open="true" />
    <path
       sodipodi:type="arc"
       style="display:inline;fill:none;stroke:#000000;stroke-width:1.07483995;stroke-linecap:square;stroke-linejoin:miter;stroke-miterlimit:4;stroke-dasharray:none;stroke-dashoffset:0;stroke-opacity:1"
       id="path3135-4-1"
       sodipodi:cx="131.10236"
       sodipodi:cy="24.803148"
       sodipodi:rx="7.0866132"
       sodipodi:ry="7.0866141"
       d="m 138.18897,24.803148 a 7.0866132,7.0866141 0 0 1 -7.04773,7.086508 7.0866132,7.0866141 0 0 1 -7.12507,-7.008738"
       transform="matrix(0.28223053,0,0,-0.2760266,437.74544,134.49691)"
       sodipodi:start="0"
       sodipodi:end="3.1306183"
       sodipodi:open="true" />
    <path
       style="display:inline;fill:none;stroke:#000000;stroke-width:1.06299222;stroke-linecap:butt;stroke-linejoin:miter;stroke-miterlimit:4;stroke-dasharray:none;stroke-opacity:1"
       d="M 85.03937,31.889759 74.409449,21.259837 H 60.236221"
       id="path4119"
       inkscape:connector-curvature="0"
       sodipodi:nodetypes="ccc"
       transform="matrix(0.28222223,0,0,0.28222223,365.74658,121.65057)" />
    <path
       style="display:inline;fill:none;stroke:#000000;stroke-width:1.06299222;stroke-linecap:butt;stroke-linejoin:miter;stroke-miterlimit:4;stroke-dasharray:none;stroke-opacity:1"
       d="M 85.03937,60.236215 74.409449,70.866137 H 3.5433071 v -49.6063 H 17.716535"
       id="path4121"
       inkscape:connector-curvature="0"
       transform="matrix(0.28222223,0,0,0.28222223,365.74658,121.65057)" />
    <path
       transform="translate(354.74659,72.975038)"
       style="display:inline;fill:none;stroke:#000000;stroke-width:0.30000001;stroke-linecap:butt;stroke-linejoin:miter;stroke-miterlimit:4;stroke-dasharray:none;stroke-opacity:1"
       d="M 89.999995,57.675536 86.999992,54.675535 H 82.999995"
       id="path4123"
       inkscape:connector-curvature="0" />
    <path
       transform="translate(354.74659,72.975038)"
       style="display:inline;fill:none;stroke:#000000;stroke-width:0.30000001;stroke-linecap:butt;stroke-linejoin:miter;stroke-miterlimit:4;stroke-dasharray:none;stroke-opacity:1"
       d="m 102.99999,57.675536 3,-3.000001 H 110"
       id="path4125"
       inkscape:connector-curvature="0" />
    <path
       transform="translate(354.74659,72.975038)"
       style="display:inline;fill:none;stroke:#000000;stroke-width:0.30000001;stroke-linecap:butt;stroke-linejoin:miter;stroke-miterlimit:4;stroke-dasharray:none;stroke-opacity:1"
       d="m 121.99999,54.675535 h 4 v 3.000001"
       id="path4127"
       inkscape:connector-curvature="0" />
    <path
       transform="translate(354.74659,72.975038)"
       style="display:inline;fill:none;stroke:#000000;stroke-width:0.30000001;stroke-linecap:butt;stroke-linejoin:miter;stroke-miterlimit:4;stroke-dasharray:none;stroke-opacity:1"
       d="m 102.99999,65.675536 3,3 h 20 v -3"
       id="path4129"
       inkscape:connector-curvature="0" />
    <path
       style="display:inline;fill:none;stroke:#000000;stroke-width:1.0629921;stroke-linecap:butt;stroke-linejoin:miter;stroke-miterlimit:4;stroke-dasharray:none;stroke-opacity:1"
       d="m 198.4252,21.259837 h 14.17323"
       id="path4131"
       inkscape:connector-curvature="0"
       transform="matrix(0.28222223,0,0,0.28222223,365.74658,121.65057)" />
    <path
       transform="translate(354.74659,72.975038)"
       style="display:inline;fill:none;stroke:#000000;stroke-width:0.30000004;stroke-linecap:butt;stroke-linejoin:miter;stroke-miterlimit:4;stroke-dasharray:none;stroke-dashoffset:0;stroke-opacity:1;marker-end:url(#marker7993)"
       d="m 120.36107,58.412502 v 6.39476"
       id="path7106"
       inkscape:connector-curvature="0" />
    <text
       transform="translate(354.74659,72.975038)"
       xml:space="preserve"
       style="font-style:normal;font-variant:normal;font-weight:normal;font-stretch:normal;font-size:1.41111112px;line-height:125%;font-family:Sans;-inkscape-font-specification:Sans;text-align:center;letter-spacing:0px;word-spacing:0px;writing-mode:lr-tb;text-anchor:middle;display:inline;fill:#000000;fill-opacity:1;stroke:none"
       x="96"
       y="70.675529"
       id="text7689-7-7-2-1-1-2"><tspan
         sodipodi:role="line"
         id="tspan4216"
         x="96"
         y="70.675529">$\num{0,9524}\!:\!1$</tspan></text>
    <text
       transform="translate(354.74659,72.975038)"
       xml:space="preserve"
       style="font-style:normal;font-variant:normal;font-weight:normal;font-stretch:normal;font-size:1.41111112px;line-height:125%;font-family:Sans;-inkscape-font-specification:Sans;text-align:center;letter-spacing:0px;word-spacing:0px;writing-mode:lr-tb;text-anchor:middle;display:inline;fill:#000000;fill-opacity:1;stroke:none"
       x="21.999992"
       y="50.675529"
       id="text4133"><tspan
         sodipodi:role="line"
         id="tspan4137"
         x="21.999992"
         y="50.675529">\num{j 0,12}</tspan></text>
    <text
       transform="translate(354.74659,72.975038)"
       xml:space="preserve"
       style="font-style:normal;font-variant:normal;font-weight:normal;font-stretch:normal;font-size:1.41111112px;line-height:125%;font-family:Sans;-inkscape-font-specification:Sans;text-align:center;letter-spacing:0px;word-spacing:0px;writing-mode:lr-tb;text-anchor:middle;display:inline;fill:#000000;fill-opacity:1;stroke:none"
       x="60.999992"
       y="50.675529"
       id="text4133-7"><tspan
         y="50.675529"
         x="60.999992"
         sodipodi:role="line"
         id="tspan4137-1">\num{j 0,15}</tspan></text>
    <text
       transform="translate(354.74659,72.975038)"
       xml:space="preserve"
       style="font-style:normal;font-variant:normal;font-weight:normal;font-stretch:normal;font-size:1.41111112px;line-height:125%;font-family:Sans;-inkscape-font-specification:Sans;text-align:center;letter-spacing:0px;word-spacing:0px;writing-mode:lr-tb;text-anchor:middle;display:inline;fill:#000000;fill-opacity:1;stroke:none"
       x="76.999992"
       y="50.675529"
       id="text4133-1"><tspan
         y="50.675529"
         x="76.999992"
         sodipodi:role="line"
         id="tspan4137-5">\num{j 0,1330}</tspan></text>
    <text
       transform="translate(354.74659,72.975038)"
       xml:space="preserve"
       style="font-style:normal;font-variant:normal;font-weight:normal;font-stretch:normal;font-size:1.41111112px;line-height:125%;font-family:Sans;-inkscape-font-specification:Sans;text-align:center;letter-spacing:0px;word-spacing:0px;writing-mode:lr-tb;text-anchor:middle;display:inline;fill:#000000;fill-opacity:1;stroke:none"
       x="116"
       y="50.675529"
       id="text4133-2"><tspan
         y="50.675529"
         x="116"
         sodipodi:role="line"
         id="tspan4137-7">\num{j 0,4}</tspan></text>
    <text
       transform="translate(354.74659,72.975038)"
       xml:space="preserve"
       style="font-style:normal;font-variant:normal;font-weight:normal;font-stretch:normal;font-size:1.411111px;line-height:125%;font-family:Sans;-inkscape-font-specification:Sans;text-align:start;letter-spacing:0px;word-spacing:0px;writing-mode:lr-tb;text-anchor:start;display:inline;fill:#000000;fill-opacity:1;stroke:none"
       x="131"
       y="62.675529"
       id="text4133-2-6"><tspan
         y="62.675529"
         x="131"
         sodipodi:role="line"
         id="tspan4137-7-1">1,05</tspan></text>
    <text
       transform="translate(354.74659,72.975038)"
       xml:space="preserve"
       style="font-style:normal;font-variant:normal;font-weight:normal;font-stretch:normal;font-size:1.41111112px;line-height:125%;font-family:Sans;-inkscape-font-specification:Sans;text-align:end;letter-spacing:0px;word-spacing:0px;writing-mode:lr-tb;text-anchor:end;display:inline;fill:#000000;fill-opacity:1;stroke:none"
       x="119.06584"
       y="62.256966"
       id="text7689-7-4-8"><tspan
         sodipodi:role="line"
         id="tspan4214"
         x="119.06584"
         y="62.256966">$\cmplx{i}''\ped{cc}$</tspan></text>
    <text
       transform="translate(354.74659,72.975038)"
       xml:space="preserve"
       style="font-style:normal;font-variant:normal;font-weight:normal;font-stretch:normal;font-size:1.411111px;line-height:125%;font-family:Sans;-inkscape-font-specification:Sans;text-align:center;letter-spacing:0px;word-spacing:0px;writing-mode:lr-tb;text-anchor:middle;display:inline;fill:#000000;fill-opacity:1;stroke:none"
       x="40.999992"
       y="70.675529"
       id="text7689-7-7-2-1-1-2-3"><tspan
         y="70.675529"
         x="40.999992"
         sodipodi:role="line"
         id="tspan4216-2">$1\!:\!1$</tspan></text>
  </g>
</svg>
