<?xml version="1.0" encoding="UTF-8" standalone="no"?>
<!-- Created with Inkscape (http://www.inkscape.org/) -->

<svg
   xmlns:dc="http://purl.org/dc/elements/1.1/"
   xmlns:cc="http://creativecommons.org/ns#"
   xmlns:rdf="http://www.w3.org/1999/02/22-rdf-syntax-ns#"
   xmlns:svg="http://www.w3.org/2000/svg"
   xmlns="http://www.w3.org/2000/svg"
   xmlns:sodipodi="http://sodipodi.sourceforge.net/DTD/sodipodi-0.dtd"
   xmlns:inkscape="http://www.inkscape.org/namespaces/inkscape"
   width="105.92464"
   height="53.492344"
   id="svg3347"
   version="1.1"
   inkscape:version="0.48.5 r10040"
   viewBox="0 0 29.894287 15.096728"
   sodipodi:docname="Pre-Prefaci-JMB.pdf">
  <defs
     id="defs3349">
    <marker
       inkscape:stockid="Arrow1Lend"
       orient="auto"
       refY="0"
       refX="0"
       id="marker5809"
       style="overflow:visible"
       inkscape:isstock="true">
      <path
         id="path5811"
         d="M 0,0 5,-5 -12.5,0 5,5 0,0 z"
         style="fill:#000000;fill-opacity:1;fill-rule:evenodd;stroke:#000000;stroke-width:1pt;stroke-opacity:1"
         transform="matrix(-0.8,0,0,-0.8,-10,0)"
         inkscape:connector-curvature="0" />
    </marker>
    <marker
       inkscape:stockid="Arrow1Lstart"
       orient="auto"
       refY="0"
       refX="0"
       id="Arrow1Lstart"
       style="overflow:visible"
       inkscape:isstock="true">
      <path
         id="path4165"
         d="M 0,0 5,-5 -12.5,0 5,5 0,0 z"
         style="fill:#000000;fill-opacity:1;fill-rule:evenodd;stroke:#000000;stroke-width:1pt;stroke-opacity:1"
         transform="matrix(0.8,0,0,0.8,10,0)"
         inkscape:connector-curvature="0" />
    </marker>
    <marker
       inkscape:stockid="Arrow1Lend"
       orient="auto"
       refY="0"
       refX="0"
       id="marker5277"
       style="overflow:visible"
       inkscape:isstock="true">
      <path
         id="path5279"
         d="M 0,0 5,-5 -12.5,0 5,5 0,0 z"
         style="fill:#000000;fill-opacity:1;fill-rule:evenodd;stroke:#000000;stroke-width:1pt;stroke-opacity:1"
         transform="matrix(-0.8,0,0,-0.8,-10,0)"
         inkscape:connector-curvature="0" />
    </marker>
    <marker
       inkscape:stockid="Arrow1Lend"
       orient="auto"
       refY="0"
       refX="0"
       id="Arrow1Lend"
       style="overflow:visible"
       inkscape:isstock="true">
      <path
         id="path4168"
         d="M 0,0 5,-5 -12.5,0 5,5 0,0 z"
         style="fill:#000000;fill-opacity:1;fill-rule:evenodd;stroke:#000000;stroke-width:1pt;stroke-opacity:1"
         transform="matrix(-0.8,0,0,-0.8,-10,0)"
         inkscape:connector-curvature="0" />
    </marker>
    <marker
       inkscape:stockid="Arrow2Lstart"
       orient="auto"
       refY="0"
       refX="0"
       id="Arrow2Lstart"
       style="overflow:visible"
       inkscape:isstock="true">
      <path
         id="path4183"
         style="fill:#000000;fill-opacity:1;fill-rule:evenodd;stroke:#000000;stroke-width:0.625;stroke-linejoin:round;stroke-opacity:1"
         d="M 8.7185878,4.0337352 -2.2072895,0.01601326 8.7185884,-4.0017078 c -1.7454984,2.3720609 -1.7354408,5.6174519 -6e-7,8.035443 z"
         transform="matrix(1.1,0,0,1.1,1.1,0)"
         inkscape:connector-curvature="0" />
    </marker>
  </defs>
  <sodipodi:namedview
     id="base"
     pagecolor="#ffffff"
     bordercolor="#666666"
     borderopacity="1.0"
     inkscape:pageopacity="0.0"
     inkscape:pageshadow="2"
     inkscape:zoom="9.0108763"
     inkscape:cx="51.96991"
     inkscape:cy="23.378324"
     inkscape:document-units="mm"
     inkscape:current-layer="capa1"
     showgrid="true"
     inkscape:window-width="1536"
     inkscape:window-height="799"
     inkscape:window-x="-8"
     inkscape:window-y="-8"
     inkscape:window-maximized="1"
     fit-margin-top="0"
     fit-margin-left="0"
     fit-margin-right="0"
     fit-margin-bottom="0"
     units="mm"
     inkscape:snap-bbox="true"
     showguides="true"
     inkscape:snap-grids="true"
     inkscape:object-paths="true"
     inkscape:guide-bbox="true">
    <inkscape:grid
       type="xygrid"
       id="grid4179"
       snapvisiblegridlinesonly="false"
       units="mm"
       empspacing="5"
       visible="true"
       enabled="true"
       originx="-46.104116mm"
       originy="-41.384352mm" />
    <sodipodi:guide
       orientation="0,1"
       position="38.60746,-1.361876"
       id="guide4238" />
  </sodipodi:namedview>
  <metadata
     id="metadata3352">
    <rdf:RDF>
      <cc:Work
         rdf:about="">
        <dc:format>image/svg+xml</dc:format>
        <dc:type
           rdf:resource="http://purl.org/dc/dcmitype/StillImage" />
        <dc:title></dc:title>
      </cc:Work>
    </rdf:RDF>
  </metadata>
  <g
     inkscape:label="Capa 1"
     inkscape:groupmode="layer"
     id="capa1"
     transform="translate(-400.85071,-76.493962)"
     style="display:inline">
    <path
       style="fill:none;stroke:#000000;stroke-width:1.05298686;stroke-linecap:round;stroke-linejoin:round;stroke-miterlimit:4;stroke-opacity:1;stroke-dasharray:none"
       d="m 406.26659,77.076279 10e-6,13.922911 -4.8894,-6.456592 28.8413,-0.09396"
       id="path4194"
       inkscape:connector-curvature="0"
       sodipodi:nodetypes="cccc" />
    <path
       id="path4176-4-4"
       style="fill:none;stroke:#000000;stroke-width:1;stroke-linecap:round;stroke-linejoin:round;stroke-miterlimit:4;stroke-opacity:1;stroke-dasharray:none;display:inline"
       d="m 409.57502,91.090689 c 0,0 -0.8155,-1.670388 -1.02416,-3.011176 -0.29143,-1.872636 -0.46532,-3.567918 -0.20194,-5.184971 0.2686,-1.649077 0.4422,-3.335574 1.72842,-4.796634 0.35673,-0.405224 0.90528,-0.799089 1.60375,-0.974973 0.49389,-0.124369 1.10986,-0.124369 1.60375,0 0.69847,0.175884 1.24702,0.569749 1.60376,0.974973 1.28623,1.46106 1.645,2.999766 1.91359,4.648843 0.26339,1.617052 0.094,3.681335 -0.23256,5.294122 -0.2693,1.329936 -1.26453,2.893119 -1.26453,2.893119 l -0.25963,-0.0054 c 0,0 -0.78903,-1.538026 -0.99769,-2.878814 -0.29143,-1.872636 -0.46532,-3.567918 -0.20194,-5.184971 0.2686,-1.649077 0.4422,-3.335574 1.72842,-4.796634 0.35673,-0.405224 0.90528,-0.799089 1.60375,-0.974973 0.49389,-0.124369 1.10986,-0.124369 1.60375,0 0.69847,0.175884 1.24702,0.569749 1.60376,0.974973 1.28623,1.46106 1.645,2.999766 1.91359,4.648843 0.26339,1.617052 0.094,3.681335 -0.23256,5.294122 -0.2693,1.329936 -1.1057,2.840175 -1.1057,2.840175 l -0.26154,-0.0081 c 0,0 -0.89492,-1.45861 -1.10358,-2.799398 -0.29143,-1.872636 -0.46532,-3.567918 -0.20194,-5.184971 0.2686,-1.649077 0.4422,-3.335574 1.72842,-4.796634 0.35673,-0.405224 0.90528,-0.799089 1.60375,-0.974973 0.49389,-0.124369 1.10986,-0.124369 1.60375,0 0.69847,0.175884 1.24702,0.569749 1.60376,0.974973 1.28623,1.46106 1.645,2.999766 1.91359,4.648843 0.26339,1.617052 0.094,3.681335 -0.23256,5.294122 -0.2693,1.329936 -0.94687,2.972536 -0.94687,2.972536"
       inkscape:connector-curvature="0"
       sodipodi:nodetypes="cssssssssccssssssssccssssssssc" />
  </g>
</svg>
