<?xml version="1.0" encoding="UTF-8" standalone="no"?>
<!-- Created with Inkscape (http://www.inkscape.org/) -->

<svg
   xmlns:dc="http://purl.org/dc/elements/1.1/"
   xmlns:cc="http://creativecommons.org/ns#"
   xmlns:rdf="http://www.w3.org/1999/02/22-rdf-syntax-ns#"
   xmlns:svg="http://www.w3.org/2000/svg"
   xmlns="http://www.w3.org/2000/svg"
   xmlns:sodipodi="http://sodipodi.sourceforge.net/DTD/sodipodi-0.dtd"
   xmlns:inkscape="http://www.inkscape.org/namespaces/inkscape"
   width="125mm"
   height="40mm"
   viewBox="0 0 442.91336 141.73225"
   id="svg7159"
   version="1.1"
   inkscape:version="0.91 r13725"
   sodipodi:docname="Cap-CalcBas-Malles.svg">
  <defs
     id="defs7161">
    <marker
       inkscape:isstock="true"
       style="overflow:visible"
       id="marker9465"
       refX="0"
       refY="0"
       orient="auto"
       inkscape:stockid="Arrow2Mend">
      <path
         inkscape:connector-curvature="0"
         transform="scale(-0.6,-0.6)"
         d="M 8.7185878,4.0337352 -2.2072895,0.01601326 8.7185884,-4.0017078 c -1.7454984,2.3720609 -1.7354408,5.6174519 -6e-7,8.035443 z"
         style="fill:#000000;fill-opacity:1;fill-rule:evenodd;stroke:#000000;stroke-width:0.625;stroke-linejoin:round;stroke-opacity:1"
         id="path9467" />
    </marker>
    <marker
       inkscape:stockid="Arrow2Mend"
       orient="auto"
       refY="0"
       refX="0"
       id="marker8314"
       style="overflow:visible"
       inkscape:isstock="true"
       inkscape:collect="always">
      <path
         id="path8316"
         style="fill:#000000;fill-opacity:1;fill-rule:evenodd;stroke:#000000;stroke-width:0.625;stroke-linejoin:round;stroke-opacity:1"
         d="M 8.7185878,4.0337352 -2.2072895,0.01601326 8.7185884,-4.0017078 c -1.7454984,2.3720609 -1.7354408,5.6174519 -6e-7,8.035443 z"
         transform="scale(-0.6,-0.6)"
         inkscape:connector-curvature="0" />
    </marker>
    <marker
       inkscape:stockid="Arrow2Mend"
       orient="auto"
       refY="0"
       refX="0"
       id="marker8124"
       style="overflow:visible"
       inkscape:isstock="true">
      <path
         id="path8126"
         style="fill:#000000;fill-opacity:1;fill-rule:evenodd;stroke:#000000;stroke-width:0.625;stroke-linejoin:round;stroke-opacity:1"
         d="M 8.7185878,4.0337352 -2.2072895,0.01601326 8.7185884,-4.0017078 c -1.7454984,2.3720609 -1.7354408,5.6174519 -6e-7,8.035443 z"
         transform="scale(-0.6,-0.6)"
         inkscape:connector-curvature="0" />
    </marker>
    <marker
       inkscape:isstock="true"
       style="overflow:visible"
       id="marker7695"
       refX="0"
       refY="0"
       orient="auto"
       inkscape:stockid="Arrow2Mend"
       inkscape:collect="always">
      <path
         inkscape:connector-curvature="0"
         transform="scale(-0.6,-0.6)"
         d="M 8.7185878,4.0337352 -2.2072895,0.01601326 8.7185884,-4.0017078 c -1.7454984,2.3720609 -1.7354408,5.6174519 -6e-7,8.035443 z"
         style="fill:#000000;fill-opacity:1;fill-rule:evenodd;stroke:#000000;stroke-width:0.625;stroke-linejoin:round;stroke-opacity:1"
         id="path7697" />
    </marker>
    <marker
       inkscape:stockid="Arrow2Mend"
       orient="auto"
       refY="0"
       refX="0"
       id="Arrow2Mend"
       style="overflow:visible"
       inkscape:isstock="true"
       inkscape:collect="always">
      <path
         id="path4558"
         style="fill:#000000;fill-opacity:1;fill-rule:evenodd;stroke:#000000;stroke-width:0.625;stroke-linejoin:round;stroke-opacity:1"
         d="M 8.7185878,4.0337352 -2.2072895,0.01601326 8.7185884,-4.0017078 c -1.7454984,2.3720609 -1.7354408,5.6174519 -6e-7,8.035443 z"
         transform="scale(-0.6,-0.6)"
         inkscape:connector-curvature="0" />
    </marker>
    <marker
       inkscape:stockid="Arrow1Mend"
       orient="auto"
       refY="0"
       refX="0"
       id="marker5287"
       style="overflow:visible"
       inkscape:isstock="true">
      <path
         id="path5289"
         d="M 0,0 5,-5 -12.5,0 5,5 0,0 Z"
         style="fill:#148a5e;fill-opacity:1;fill-rule:evenodd;stroke:#148a5e;stroke-width:1pt;stroke-opacity:1"
         transform="matrix(-0.4,0,0,-0.4,-4,0)"
         inkscape:connector-curvature="0" />
    </marker>
    <marker
       inkscape:stockid="Arrow1Mend"
       orient="auto"
       refY="0"
       refX="0"
       id="Arrow1Mend"
       style="overflow:visible"
       inkscape:isstock="true">
      <path
         id="path4540"
         d="M 0,0 5,-5 -12.5,0 5,5 0,0 Z"
         style="fill:#148a5e;fill-opacity:1;fill-rule:evenodd;stroke:#148a5e;stroke-width:1pt;stroke-opacity:1"
         transform="matrix(-0.4,0,0,-0.4,-4,0)"
         inkscape:connector-curvature="0" />
    </marker>
    <marker
       inkscape:stockid="TriangleOutL"
       orient="auto"
       refY="0"
       refX="0"
       id="TriangleOutL"
       style="overflow:visible"
       inkscape:isstock="true">
      <path
         id="path4673"
         d="m 5.77,0 -8.65,5 0,-10 8.65,5 z"
         style="fill:#148a5e;fill-opacity:1;fill-rule:evenodd;stroke:#148a5e;stroke-width:1pt;stroke-opacity:1"
         transform="scale(0.8,0.8)"
         inkscape:connector-curvature="0" />
    </marker>
    <marker
       inkscape:stockid="Arrow2Lend"
       orient="auto"
       refY="0"
       refX="0"
       id="Arrow2Lend"
       style="overflow:visible"
       inkscape:isstock="true">
      <path
         id="path4552"
         style="fill:#148a5e;fill-opacity:1;fill-rule:evenodd;stroke:#148a5e;stroke-width:0.625;stroke-linejoin:round;stroke-opacity:1"
         d="M 8.7185878,4.0337352 -2.2072895,0.01601326 8.7185884,-4.0017078 c -1.7454984,2.3720609 -1.7354408,5.6174519 -6e-7,8.035443 z"
         transform="matrix(-1.1,0,0,-1.1,-1.1,0)"
         inkscape:connector-curvature="0" />
    </marker>
    <marker
       inkscape:stockid="Arrow1Lend"
       orient="auto"
       refY="0"
       refX="0"
       id="Arrow1Lend"
       style="overflow:visible"
       inkscape:isstock="true">
      <path
         id="path4534"
         d="M 0,0 5,-5 -12.5,0 5,5 0,0 Z"
         style="fill:#148a5e;fill-opacity:1;fill-rule:evenodd;stroke:#148a5e;stroke-width:1pt;stroke-opacity:1"
         transform="matrix(-0.8,0,0,-0.8,-10,0)"
         inkscape:connector-curvature="0" />
    </marker>
    <marker
       inkscape:stockid="DotM"
       orient="auto"
       refY="0"
       refX="0"
       id="DotM"
       style="overflow:visible">
      <path
         id="path4112"
         d="m -2.5,-1 c 0,2.76 -2.24,5 -5,5 -2.76,0 -5,-2.24 -5,-5 0,-2.76 2.24,-5 5,-5 2.76,0 5,2.24 5,5 z"
         style="fill-rule:evenodd;stroke:#000000;stroke-width:1pt"
         transform="matrix(0.4,0,0,0.4,2.96,0.4)"
         inkscape:connector-curvature="0" />
    </marker>
    <marker
       inkscape:stockid="DotM"
       orient="auto"
       refY="0"
       refX="0"
       id="marker7717"
       style="overflow:visible">
      <path
         id="path7719"
         d="m -2.5,-1 c 0,2.76 -2.24,5 -5,5 -2.76,0 -5,-2.24 -5,-5 0,-2.76 2.24,-5 5,-5 2.76,0 5,2.24 5,5 z"
         style="fill-rule:evenodd;stroke:#000000;stroke-width:1pt"
         transform="matrix(0.4,0,0,0.4,2.96,0.4)"
         inkscape:connector-curvature="0" />
    </marker>
    <marker
       inkscape:stockid="DotM"
       orient="auto"
       refY="0"
       refX="0"
       id="marker7721"
       style="overflow:visible">
      <path
         id="path7723"
         d="m -2.5,-1 c 0,2.76 -2.24,5 -5,5 -2.76,0 -5,-2.24 -5,-5 0,-2.76 2.24,-5 5,-5 2.76,0 5,2.24 5,5 z"
         style="fill-rule:evenodd;stroke:#000000;stroke-width:1pt"
         transform="matrix(0.4,0,0,0.4,2.96,0.4)"
         inkscape:connector-curvature="0" />
    </marker>
    <marker
       inkscape:stockid="DotM"
       orient="auto"
       refY="0"
       refX="0"
       id="marker7721-0"
       style="overflow:visible">
      <path
         id="path7723-5"
         d="m -2.5,-1 c 0,2.76 -2.24,5 -5,5 -2.76,0 -5,-2.24 -5,-5 0,-2.76 2.24,-5 5,-5 2.76,0 5,2.24 5,5 z"
         style="fill-rule:evenodd;stroke:#000000;stroke-width:1pt"
         transform="matrix(0.4,0,0,0.4,2.96,0.4)"
         inkscape:connector-curvature="0" />
    </marker>
    <marker
       inkscape:stockid="DotM"
       orient="auto"
       refY="0"
       refX="0"
       id="marker7721-0-2"
       style="overflow:visible">
      <path
         id="path7723-5-9"
         d="m -2.5,-1 c 0,2.76 -2.24,5 -5,5 -2.76,0 -5,-2.24 -5,-5 0,-2.76 2.24,-5 5,-5 2.76,0 5,2.24 5,5 z"
         style="fill-rule:evenodd;stroke:#000000;stroke-width:1pt"
         transform="matrix(0.4,0,0,0.4,2.96,0.4)"
         inkscape:connector-curvature="0" />
    </marker>
    <marker
       inkscape:stockid="DotM"
       orient="auto"
       refY="0"
       refX="0"
       id="marker7721-0-2-7"
       style="overflow:visible">
      <path
         id="path7723-5-9-3"
         d="m -2.5,-1 c 0,2.76 -2.24,5 -5,5 -2.76,0 -5,-2.24 -5,-5 0,-2.76 2.24,-5 5,-5 2.76,0 5,2.24 5,5 z"
         style="fill-rule:evenodd;stroke:#000000;stroke-width:1pt"
         transform="matrix(0.4,0,0,0.4,2.96,0.4)"
         inkscape:connector-curvature="0" />
    </marker>
    <marker
       inkscape:stockid="DotM"
       orient="auto"
       refY="0"
       refX="0"
       id="marker7721-0-2-7-3"
       style="overflow:visible">
      <path
         id="path7723-5-9-3-6"
         d="m -2.5,-1 c 0,2.76 -2.24,5 -5,5 -2.76,0 -5,-2.24 -5,-5 0,-2.76 2.24,-5 5,-5 2.76,0 5,2.24 5,5 z"
         style="fill-rule:evenodd;stroke:#000000;stroke-width:1pt"
         transform="matrix(0.4,0,0,0.4,2.96,0.4)"
         inkscape:connector-curvature="0" />
    </marker>
    <marker
       inkscape:stockid="DotM"
       orient="auto"
       refY="0"
       refX="0"
       id="marker7721-0-2-7-9"
       style="overflow:visible">
      <path
         id="path7723-5-9-3-3"
         d="m -2.5,-1 c 0,2.76 -2.24,5 -5,5 -2.76,0 -5,-2.24 -5,-5 0,-2.76 2.24,-5 5,-5 2.76,0 5,2.24 5,5 z"
         style="fill-rule:evenodd;stroke:#000000;stroke-width:1pt"
         transform="matrix(0.4,0,0,0.4,2.96,0.4)"
         inkscape:connector-curvature="0" />
    </marker>
    <marker
       inkscape:stockid="DotM"
       orient="auto"
       refY="0"
       refX="0"
       id="marker7721-0-2-3"
       style="overflow:visible">
      <path
         id="path7723-5-9-39"
         d="m -2.5,-1 c 0,2.76 -2.24,5 -5,5 -2.76,0 -5,-2.24 -5,-5 0,-2.76 2.24,-5 5,-5 2.76,0 5,2.24 5,5 z"
         style="fill-rule:evenodd;stroke:#000000;stroke-width:1pt"
         transform="matrix(0.4,0,0,0.4,2.96,0.4)"
         inkscape:connector-curvature="0" />
    </marker>
    <marker
       inkscape:stockid="DotM"
       orient="auto"
       refY="0"
       refX="0"
       id="marker7721-0-7"
       style="overflow:visible">
      <path
         id="path7723-5-7"
         d="m -2.5,-1 c 0,2.76 -2.24,5 -5,5 -2.76,0 -5,-2.24 -5,-5 0,-2.76 2.24,-5 5,-5 2.76,0 5,2.24 5,5 z"
         style="fill-rule:evenodd;stroke:#000000;stroke-width:1pt"
         transform="matrix(0.4,0,0,0.4,2.96,0.4)"
         inkscape:connector-curvature="0" />
    </marker>
    <marker
       inkscape:stockid="DotM"
       orient="auto"
       refY="0"
       refX="0"
       id="marker7721-0-7-8"
       style="overflow:visible">
      <path
         id="path7723-5-7-8"
         d="m -2.5,-1 c 0,2.76 -2.24,5 -5,5 -2.76,0 -5,-2.24 -5,-5 0,-2.76 2.24,-5 5,-5 2.76,0 5,2.24 5,5 z"
         style="fill-rule:evenodd;stroke:#000000;stroke-width:1pt"
         transform="matrix(0.4,0,0,0.4,2.96,0.4)"
         inkscape:connector-curvature="0" />
    </marker>
    <marker
       inkscape:stockid="DotM"
       orient="auto"
       refY="0"
       refX="0"
       id="marker7721-0-7-8-8"
       style="overflow:visible">
      <path
         id="path7723-5-7-8-8"
         d="m -2.5,-1 c 0,2.76 -2.24,5 -5,5 -2.76,0 -5,-2.24 -5,-5 0,-2.76 2.24,-5 5,-5 2.76,0 5,2.24 5,5 z"
         style="fill-rule:evenodd;stroke:#000000;stroke-width:1pt"
         transform="matrix(0.4,0,0,0.4,2.96,0.4)"
         inkscape:connector-curvature="0" />
    </marker>
    <marker
       inkscape:stockid="DotM"
       orient="auto"
       refY="0"
       refX="0"
       id="marker7721-0-7-8-5"
       style="overflow:visible">
      <path
         id="path7723-5-7-8-86"
         d="m -2.5,-1 c 0,2.76 -2.24,5 -5,5 -2.76,0 -5,-2.24 -5,-5 0,-2.76 2.24,-5 5,-5 2.76,0 5,2.24 5,5 z"
         style="fill-rule:evenodd;stroke:#000000;stroke-width:1pt"
         transform="matrix(0.4,0,0,0.4,2.96,0.4)"
         inkscape:connector-curvature="0" />
    </marker>
    <marker
       inkscape:stockid="DotM"
       orient="auto"
       refY="0"
       refX="0"
       id="DotM-4"
       style="overflow:visible">
      <path
         id="path4112-1"
         d="m -2.5,-1 c 0,2.76 -2.24,5 -5,5 -2.76,0 -5,-2.24 -5,-5 0,-2.76 2.24,-5 5,-5 2.76,0 5,2.24 5,5 z"
         style="fill-rule:evenodd;stroke:#000000;stroke-width:1pt"
         transform="matrix(0.4,0,0,0.4,2.96,0.4)"
         inkscape:connector-curvature="0" />
    </marker>
    <marker
       inkscape:stockid="DotM"
       orient="auto"
       refY="0"
       refX="0"
       id="marker4389"
       style="overflow:visible">
      <path
         id="path4391"
         d="m -2.5,-1 c 0,2.76 -2.24,5 -5,5 -2.76,0 -5,-2.24 -5,-5 0,-2.76 2.24,-5 5,-5 2.76,0 5,2.24 5,5 z"
         style="fill-rule:evenodd;stroke:#000000;stroke-width:1pt"
         transform="matrix(0.4,0,0,0.4,2.96,0.4)"
         inkscape:connector-curvature="0" />
    </marker>
    <marker
       inkscape:stockid="Arrow2Mend"
       orient="auto"
       refY="0"
       refX="0"
       id="Arrow2Mend-9"
       style="overflow:visible"
       inkscape:isstock="true">
      <path
         inkscape:connector-curvature="0"
         id="path4558-2"
         style="fill:#000000;fill-opacity:1;fill-rule:evenodd;stroke:#000000;stroke-width:0.625;stroke-linejoin:round;stroke-opacity:1"
         d="M 8.7185878,4.0337352 -2.2072895,0.01601326 8.7185884,-4.0017078 c -1.7454984,2.3720609 -1.7354408,5.6174519 -6e-7,8.035443 z"
         transform="scale(-0.6,-0.6)" />
    </marker>
    <marker
       inkscape:stockid="Arrow2Mend"
       orient="auto"
       refY="0"
       refX="0"
       id="Arrow2Mend-99"
       style="overflow:visible"
       inkscape:isstock="true">
      <path
         inkscape:connector-curvature="0"
         id="path4558-21"
         style="fill:#000000;fill-opacity:1;fill-rule:evenodd;stroke:#000000;stroke-width:0.625;stroke-linejoin:round;stroke-opacity:1"
         d="M 8.7185878,4.0337352 -2.2072895,0.01601326 8.7185884,-4.0017078 c -1.7454984,2.3720609 -1.7354408,5.6174519 -6e-7,8.035443 z"
         transform="scale(-0.6,-0.6)" />
    </marker>
    <marker
       inkscape:isstock="true"
       style="overflow:visible"
       id="marker7695-7"
       refX="0"
       refY="0"
       orient="auto"
       inkscape:stockid="Arrow2Mend">
      <path
         inkscape:connector-curvature="0"
         transform="scale(-0.6,-0.6)"
         d="M 8.7185878,4.0337352 -2.2072895,0.01601326 8.7185884,-4.0017078 c -1.7454984,2.3720609 -1.7354408,5.6174519 -6e-7,8.035443 z"
         style="fill:#000000;fill-opacity:1;fill-rule:evenodd;stroke:#000000;stroke-width:0.625;stroke-linejoin:round;stroke-opacity:1"
         id="path7697-1" />
    </marker>
    <marker
       inkscape:stockid="Arrow2Mend"
       orient="auto"
       refY="0"
       refX="0"
       id="marker8314-7"
       style="overflow:visible"
       inkscape:isstock="true"
       inkscape:collect="always">
      <path
         id="path8316-3"
         style="fill:#000000;fill-opacity:1;fill-rule:evenodd;stroke:#000000;stroke-width:0.625;stroke-linejoin:round;stroke-opacity:1"
         d="M 8.7185878,4.0337352 -2.2072895,0.01601326 8.7185884,-4.0017078 c -1.7454984,2.3720609 -1.7354408,5.6174519 -6e-7,8.035443 z"
         transform="scale(-0.6,-0.6)"
         inkscape:connector-curvature="0" />
    </marker>
    <marker
       inkscape:stockid="Arrow2Mend"
       orient="auto"
       refY="0"
       refX="0"
       id="marker8314-3"
       style="overflow:visible"
       inkscape:isstock="true"
       inkscape:collect="always">
      <path
         id="path8316-9"
         style="fill:#000000;fill-opacity:1;fill-rule:evenodd;stroke:#000000;stroke-width:0.625;stroke-linejoin:round;stroke-opacity:1"
         d="M 8.7185878,4.0337352 -2.2072895,0.01601326 8.7185884,-4.0017078 c -1.7454984,2.3720609 -1.7354408,5.6174519 -6e-7,8.035443 z"
         transform="scale(-0.6,-0.6)"
         inkscape:connector-curvature="0" />
    </marker>
    <marker
       inkscape:isstock="true"
       style="overflow:visible"
       id="marker9465-8"
       refX="0"
       refY="0"
       orient="auto"
       inkscape:stockid="Arrow2Mend">
      <path
         inkscape:connector-curvature="0"
         transform="scale(-0.6,-0.6)"
         d="M 8.7185878,4.0337352 -2.2072895,0.01601326 8.7185884,-4.0017078 c -1.7454984,2.3720609 -1.7354408,5.6174519 -6e-7,8.035443 z"
         style="fill:#000000;fill-opacity:1;fill-rule:evenodd;stroke:#000000;stroke-width:0.625;stroke-linejoin:round;stroke-opacity:1"
         id="path9467-9" />
    </marker>
  </defs>
  <sodipodi:namedview
     id="base"
     pagecolor="#ffffff"
     bordercolor="#666666"
     borderopacity="1.0"
     inkscape:pageopacity="0.0"
     inkscape:pageshadow="2"
     inkscape:zoom="6.2021215"
     inkscape:cx="271.79611"
     inkscape:cy="60.922195"
     inkscape:document-units="px"
     inkscape:current-layer="layer1"
     showgrid="true"
     inkscape:window-width="1536"
     inkscape:window-height="801"
     inkscape:window-x="-8"
     inkscape:window-y="-8"
     inkscape:window-maximized="1"
     inkscape:object-nodes="true"
     inkscape:snap-smooth-nodes="true"
     inkscape:snap-midpoints="true"
     inkscape:snap-object-midpoints="true"
     inkscape:snap-center="true"
     inkscape:object-paths="false"
     inkscape:snap-bbox="true"
     inkscape:snap-bbox-midpoints="false"
     inkscape:bbox-nodes="false"
     inkscape:snap-bbox-edge-midpoints="true"
     showguides="false">
    <inkscape:grid
       type="xygrid"
       id="grid7945" />
  </sodipodi:namedview>
  <metadata
     id="metadata7164">
    <rdf:RDF>
      <cc:Work
         rdf:about="">
        <dc:format>image/svg+xml</dc:format>
        <dc:type
           rdf:resource="http://purl.org/dc/dcmitype/StillImage" />
        <dc:title></dc:title>
      </cc:Work>
    </rdf:RDF>
  </metadata>
  <g
     inkscape:label="Layer 1"
     inkscape:groupmode="layer"
     id="layer1"
     transform="translate(0,-910.62996)">
    <path
       style="display:inline;fill:none;fill-rule:evenodd;stroke:#000000;stroke-width:1.0629921;stroke-linecap:butt;stroke-linejoin:miter;stroke-miterlimit:4;stroke-dasharray:none;stroke-opacity:1"
       d="m 109.99999,932.36223 44.99999,0"
       id="path4551-4"
       inkscape:connector-curvature="0"
       sodipodi:nodetypes="cc" />
    <rect
       y="-939.36255"
       x="-109.99783"
       height="14.000105"
       width="39.999958"
       id="rect7655-3-3-7"
       style="display:inline;fill:none;stroke:#000000;stroke-width:1.06299222;stroke-linecap:butt;stroke-linejoin:miter;stroke-miterlimit:4;stroke-dasharray:none;stroke-dashoffset:0;stroke-opacity:1"
       transform="matrix(-1,2.7554915e-6,-2.288723e-6,-1,0,0)"
       ry="9.9456984e-006" />
    <ellipse
       ry="14.173251"
       rx="14.173229"
       id="path5243-4-7-9-9-8-5"
       style="display:inline;fill:none;stroke:#000000;stroke-width:1.0629921;stroke-linecap:butt;stroke-linejoin:miter;stroke-miterlimit:4;stroke-dasharray:none;stroke-dashoffset:0;stroke-opacity:1"
       cx="-24.999996"
       cy="988.53546"
       transform="scale(-1,1)" />
    <path
       style="fill:none;fill-rule:evenodd;stroke:#000000;stroke-width:1.0629921;stroke-linecap:butt;stroke-linejoin:miter;stroke-miterlimit:4;stroke-dasharray:none;stroke-opacity:1"
       d="m 24.999994,974.88188 3e-6,-42.51965 44.999995,0"
       id="path4262"
       inkscape:connector-curvature="0"
       sodipodi:nodetypes="ccc" />
    <path
       style="display:inline;fill:none;fill-rule:evenodd;stroke:#000000;stroke-width:1.0629921;stroke-linecap:butt;stroke-linejoin:miter;stroke-miterlimit:4;stroke-dasharray:none;stroke-opacity:1;marker-end:url(#marker7721-0-2-7-3)"
       d="m 63.77951,7.6180292 24.80314,0"
       id="path4551-4-0-1-6"
       inkscape:connector-curvature="0" />
    <rect
       y="-14.704853"
       x="-63.779572"
       height="14.17319"
       width="38.976398"
       id="rect7655-3-3-7-7-8-0"
       style="display:inline;fill:none;stroke:#000000;stroke-width:1.06299222;stroke-linecap:butt;stroke-linejoin:miter;stroke-miterlimit:4;stroke-dasharray:none;stroke-dashoffset:0;stroke-opacity:1"
       transform="matrix(-1,2.7554915e-6,-2.288723e-6,-1,0,0)"
       ry="9.9456984e-006" />
    <text
       sodipodi:linespacing="125%"
       id="text7689-7-4-8-4-0-8-2-0-6-6-1"
       y="918.78314"
       x="91.986565"
       style="font-style:normal;font-variant:normal;font-weight:normal;font-stretch:normal;font-size:4.99999952px;line-height:125%;font-family:Sans;-inkscape-font-specification:'Sans, Normal';text-align:center;letter-spacing:0px;word-spacing:0px;writing-mode:lr-tb;text-anchor:middle;display:inline;fill:#000000;fill-opacity:1;stroke:none"
       xml:space="preserve"><tspan
         sodipodi:role="line"
         id="tspan7468"
         x="91.986565"
         y="918.78314">$\cmplx{Z}_1$</tspan></text>
    <text
       sodipodi:linespacing="125%"
       id="text7689-7-4-8-4-0-8-2-0-6-6-1-0"
       y="918.78314"
       x="219.98654"
       style="font-style:normal;font-variant:normal;font-weight:normal;font-stretch:normal;font-size:4.99999952px;line-height:125%;font-family:Sans;-inkscape-font-specification:'Sans, Normal';text-align:center;letter-spacing:0px;word-spacing:0px;writing-mode:lr-tb;text-anchor:middle;display:inline;fill:#000000;fill-opacity:1;stroke:none"
       xml:space="preserve"><tspan
         sodipodi:role="line"
         id="tspan7470"
         x="219.98654"
         y="918.78314">$\cmplx{Z}_2$</tspan></text>
    <path
       inkscape:connector-curvature="0"
       id="path7681"
       d="m 14.370077,967.80698 0,7.08662"
       style="fill:none;stroke:#000000;stroke-width:1.06299198;stroke-linecap:butt;stroke-linejoin:miter;stroke-miterlimit:4;stroke-dasharray:none;stroke-opacity:1" />
    <path
       inkscape:connector-curvature="0"
       id="path7683"
       d="m 10.826771,971.35029 7.086613,0"
       style="fill:none;stroke:#000000;stroke-width:1.06299198;stroke-linecap:butt;stroke-linejoin:miter;stroke-miterlimit:4;stroke-dasharray:none;stroke-opacity:1" />
    <path
       id="path4449"
       title="sin(x)"
       d="m 17.416082,989.49152 c 1.346881,-2.3559 2.693692,-4.4976 4.040609,-4.4995 1.346917,0 2.693693,2.1436 4.040645,4.4995 1.346917,2.3559 2.693728,4.4976 4.04061,4.4995 1.346881,0 2.693763,-2.1436 4.040609,-4.4995"
       style="fill:none;stroke:#000000;stroke-width:1.06299198;stroke-linecap:round;stroke-linejoin:miter;stroke-miterlimit:4;stroke-dasharray:none;stroke-dashoffset:0;stroke-opacity:1"
       inkscape:connector-curvature="0" />
    <rect
       y="147.9987"
       x="-1007.3623"
       height="14.08666"
       width="39.000019"
       id="rect7655-3-3-7-9-4-8"
       style="display:inline;fill:none;stroke:#000000;stroke-width:1.06299222;stroke-linecap:butt;stroke-linejoin:miter;stroke-miterlimit:4;stroke-dasharray:none;stroke-dashoffset:0;stroke-opacity:1"
       transform="matrix(-1.2795692e-6,-1,1,-8.069591e-7,0,0)"
       ry="4.4443321e-005" />
    <path
       style="fill:none;fill-rule:evenodd;stroke:#000000;stroke-width:1.0629921;stroke-linecap:butt;stroke-linejoin:miter;stroke-miterlimit:4;stroke-dasharray:none;stroke-opacity:1;marker-start:url(#DotM)"
       d="m 154.99998,932.36223 1e-5,36"
       id="path4362"
       inkscape:connector-curvature="0"
       sodipodi:nodetypes="cc" />
    <path
       style="fill:none;fill-rule:evenodd;stroke:#000000;stroke-width:1.0629921;stroke-linecap:butt;stroke-linejoin:miter;stroke-miterlimit:4;stroke-dasharray:none;stroke-opacity:1;marker-end:url(#DotM)"
       d="m 154.99999,1007.3622 -1e-5,37"
       id="path4362-6"
       inkscape:connector-curvature="0"
       sodipodi:nodetypes="cc" />
    <path
       style="display:inline;fill:none;fill-rule:evenodd;stroke:#000000;stroke-width:1.0629921;stroke-linecap:butt;stroke-linejoin:miter;stroke-miterlimit:4;stroke-dasharray:none;stroke-opacity:1"
       d="m 199.99996,932.36223 -44.99998,0"
       id="path4551-4-6"
       inkscape:connector-curvature="0"
       sodipodi:nodetypes="cc" />
    <rect
       y="-939.36139"
       x="330.00211"
       height="14.000105"
       width="39.999958"
       id="rect7655-3-3-7-3"
       style="display:inline;fill:none;stroke:#000000;stroke-width:1.06299222;stroke-linecap:butt;stroke-linejoin:miter;stroke-miterlimit:4;stroke-dasharray:none;stroke-dashoffset:0;stroke-opacity:1"
       transform="matrix(1,2.7554915e-6,2.288723e-6,-1,0,0)"
       ry="9.9456984e-006" />
    <ellipse
       ry="14.173251"
       rx="14.173228"
       id="path5243-4-7-9-9-8-5-4"
       style="display:inline;fill:none;stroke:#000000;stroke-width:1.0629921;stroke-linecap:butt;stroke-linejoin:miter;stroke-miterlimit:4;stroke-dasharray:none;stroke-dashoffset:0;stroke-opacity:1"
       cx="414.99994"
       cy="988.18896" />
    <path
       style="fill:none;fill-rule:evenodd;stroke:#000000;stroke-width:1.0629921;stroke-linecap:butt;stroke-linejoin:miter;stroke-miterlimit:4;stroke-dasharray:none;stroke-opacity:1"
       d="m 414.99995,974.36223 -1e-5,-42.51965 -44.46847,0.51913"
       id="path4262-38"
       inkscape:connector-curvature="0"
       sodipodi:nodetypes="ccc" />
    <path
       inkscape:connector-curvature="0"
       id="path7681-6"
       d="m 426.16138,967.80646 0,7.08662"
       style="fill:none;stroke:#000000;stroke-width:1.06299198;stroke-linecap:butt;stroke-linejoin:miter;stroke-miterlimit:4;stroke-dasharray:none;stroke-opacity:1" />
    <path
       inkscape:connector-curvature="0"
       id="path7683-17"
       d="m 429.70469,971.34977 -7.08662,0"
       style="fill:none;stroke:#000000;stroke-width:1.06299198;stroke-linecap:butt;stroke-linejoin:miter;stroke-miterlimit:4;stroke-dasharray:none;stroke-opacity:1" />
    <path
       id="path4449-84"
       title="sin(x)"
       d="m 406.95291,989.491 c 1.34688,-2.3559 2.6937,-4.4976 4.04061,-4.4995 1.34692,0 2.69369,2.1436 4.04065,4.4995 1.34691,2.3559 2.69372,4.4976 4.04061,4.4995 1.34688,0 2.69376,-2.1436 4.0406,-4.4995"
       style="fill:none;stroke:#000000;stroke-width:1.06299198;stroke-linecap:round;stroke-linejoin:miter;stroke-miterlimit:4;stroke-dasharray:none;stroke-dashoffset:0;stroke-opacity:1"
       inkscape:connector-curvature="0" />
    <rect
       y="-939.36285"
       x="-239.9978"
       height="14.000105"
       width="39.999958"
       id="rect7655-3-3-7-0"
       style="display:inline;fill:none;stroke:#000000;stroke-width:1.06299222;stroke-linecap:butt;stroke-linejoin:miter;stroke-miterlimit:4;stroke-dasharray:none;stroke-dashoffset:0;stroke-opacity:1"
       transform="matrix(-1,2.7554915e-6,-2.288723e-6,-1,0,0)"
       ry="9.9456984e-006" />
    <rect
       y="277.99869"
       x="-1007.3624"
       height="14.086659"
       width="39.000019"
       id="rect7655-3-3-7-9-4-8-2"
       style="display:inline;fill:none;stroke:#000000;stroke-width:1.06299222;stroke-linecap:butt;stroke-linejoin:miter;stroke-miterlimit:4;stroke-dasharray:none;stroke-dashoffset:0;stroke-opacity:1"
       transform="matrix(-1.2795692e-6,-1,1,-8.0695912e-7,0,0)"
       ry="4.4443321e-005" />
    <path
       style="fill:none;fill-rule:evenodd;stroke:#000000;stroke-width:1.0629921;stroke-linecap:butt;stroke-linejoin:miter;stroke-miterlimit:4;stroke-dasharray:none;stroke-opacity:1;marker-start:url(#DotM)"
       d="m 284.99993,932.3622 10e-6,36"
       id="path4362-0"
       inkscape:connector-curvature="0"
       sodipodi:nodetypes="cc" />
    <path
       style="fill:none;fill-rule:evenodd;stroke:#000000;stroke-width:1.0629921;stroke-linecap:butt;stroke-linejoin:miter;stroke-miterlimit:4;stroke-dasharray:none;stroke-opacity:1;marker-end:url(#DotM)"
       d="m 284.99994,1007.3622 3e-5,37"
       id="path4362-6-2"
       inkscape:connector-curvature="0"
       sodipodi:nodetypes="cc" />
    <path
       style="display:inline;fill:none;fill-rule:evenodd;stroke:#000000;stroke-width:1.0629921;stroke-linecap:butt;stroke-linejoin:miter;stroke-miterlimit:4;stroke-dasharray:none;stroke-opacity:1"
       d="m 239.99997,932.36223 44.99998,0"
       id="path4551-4-4"
       inkscape:connector-curvature="0"
       sodipodi:nodetypes="cc" />
    <path
       style="display:inline;fill:none;fill-rule:evenodd;stroke:#000000;stroke-width:1.0629921;stroke-linecap:butt;stroke-linejoin:miter;stroke-miterlimit:4;stroke-dasharray:none;stroke-opacity:1"
       d="m 329.99993,932.36223 -44.99998,0"
       id="path4551-4-6-8"
       inkscape:connector-curvature="0"
       sodipodi:nodetypes="cc" />
    <path
       style="fill:none;stroke:#000000;stroke-width:1.0629921;stroke-miterlimit:4;stroke-dasharray:none;stroke-opacity:1;marker-end:url(#Arrow2Mend)"
       id="path4525"
       sodipodi:type="arc"
       sodipodi:cx="-91.999992"
       sodipodi:cy="-984.86224"
       sodipodi:rx="32.5"
       sodipodi:ry="32.5"
       sodipodi:start="0"
       sodipodi:end="5.2921879"
       d="m -59.499992,-984.86224 a 32.5,32.5 0 0 1 -24.530264,31.50767 32.5,32.5 0 0 1 -36.561014,-16.05488 32.5,32.5 0 0 1 6.59908,-39.38175 32.5,32.5 0 0 1 39.797509,-3.2597"
       transform="scale(-1,-1)"
       sodipodi:open="true" />
    <path
       style="fill:none;stroke:#000000;stroke-width:1.0629921;stroke-miterlimit:4;stroke-dasharray:none;stroke-opacity:1;marker-end:url(#Arrow2Mend-9)"
       id="path4525-7"
       sodipodi:type="arc"
       sodipodi:cx="-221.49997"
       sodipodi:cy="-985.36224"
       sodipodi:rx="32.5"
       sodipodi:ry="32.5"
       sodipodi:start="0"
       sodipodi:end="5.2921879"
       d="m -188.99997,-985.36224 a 32.5,32.5 0 0 1 -24.53026,31.50767 32.5,32.5 0 0 1 -36.56102,-16.05488 32.5,32.5 0 0 1 6.59909,-39.38175 32.5,32.5 0 0 1 39.7975,-3.2597"
       transform="scale(-1,-1)"
       sodipodi:open="true" />
    <path
       style="fill:none;stroke:#000000;stroke-width:1.0629921;stroke-miterlimit:4;stroke-dasharray:none;stroke-opacity:1;marker-end:url(#Arrow2Mend-99)"
       id="path4525-1"
       sodipodi:type="arc"
       sodipodi:cx="-351.49997"
       sodipodi:cy="-985.36224"
       sodipodi:rx="32.5"
       sodipodi:ry="32.5"
       sodipodi:start="0"
       sodipodi:end="5.2921879"
       d="m -318.99997,-985.36224 a 32.5,32.5 0 0 1 -24.53026,31.50767 32.5,32.5 0 0 1 -36.56102,-16.05488 32.5,32.5 0 0 1 6.59909,-39.38175 32.5,32.5 0 0 1 39.7975,-3.2597"
       transform="scale(-1,-1)"
       sodipodi:open="true" />
    <text
       sodipodi:linespacing="125%"
       id="text7689-7-4-8-4-0-8-2-0-6-6-1-0-0"
       y="918.78308"
       x="350.50778"
       style="font-style:normal;font-variant:normal;font-weight:normal;font-stretch:normal;font-size:4.99999952px;line-height:125%;font-family:Sans;-inkscape-font-specification:'Sans, Normal';text-align:center;letter-spacing:0px;word-spacing:0px;writing-mode:lr-tb;text-anchor:middle;display:inline;fill:#000000;fill-opacity:1;stroke:none"
       xml:space="preserve"><tspan
         sodipodi:role="line"
         id="tspan7490"
         x="350.50778"
         y="918.78308">$\cmplx{Z}_6$</tspan></text>
    <rect
       y="-1051.363"
       x="-239.9976"
       height="14.000105"
       width="39.999958"
       id="rect7655-3-3-7-0-4"
       style="display:inline;fill:none;stroke:#000000;stroke-width:1.06299222;stroke-linecap:butt;stroke-linejoin:miter;stroke-miterlimit:4;stroke-dasharray:none;stroke-dashoffset:0;stroke-opacity:1"
       transform="matrix(-1,2.7554915e-6,-2.288723e-6,-1,0,0)"
       ry="9.9456984e-006" />
    <path
       style="fill:none;fill-rule:evenodd;stroke:#000000;stroke-width:1.0629921;stroke-linecap:butt;stroke-linejoin:miter;stroke-miterlimit:4;stroke-dasharray:none;stroke-opacity:1"
       d="m 414.99995,1002.3622 -1e-5,42.5197 -174.99997,-0.5197"
       id="path4262-38-3"
       inkscape:connector-curvature="0"
       sodipodi:nodetypes="ccc" />
    <path
       style="fill:none;fill-rule:evenodd;stroke:#000000;stroke-width:1.0629921;stroke-linecap:butt;stroke-linejoin:miter;stroke-miterlimit:4;stroke-dasharray:none;stroke-opacity:1"
       d="m 25.000009,1002.3622 1e-5,42.5197 174.999961,-0.5197"
       id="path4262-38-3-5"
       inkscape:connector-curvature="0"
       sodipodi:nodetypes="ccc" />
    <text
       sodipodi:linespacing="125%"
       id="text7689-7-4-8-4-0-8-2-0-6-6-1-0-4"
       y="1030.7831"
       x="219.98656"
       style="font-style:normal;font-variant:normal;font-weight:normal;font-stretch:normal;font-size:4.99999952px;line-height:125%;font-family:Sans;-inkscape-font-specification:'Sans, Normal';text-align:center;letter-spacing:0px;word-spacing:0px;writing-mode:lr-tb;text-anchor:middle;display:inline;fill:#000000;fill-opacity:1;stroke:none"
       xml:space="preserve"><tspan
         sodipodi:role="line"
         id="tspan7615"
         x="219.98656"
         y="1030.7831">$\cmplx{Z}_4$</tspan></text>
    <text
       sodipodi:linespacing="125%"
       id="text7689-7-4-8-4-0-8-2-0-6-6-1-0-5"
       y="988.78314"
       x="165.62157"
       style="font-style:normal;font-variant:normal;font-weight:normal;font-stretch:normal;font-size:4.99999952px;line-height:125%;font-family:Sans;-inkscape-font-specification:'Sans, Normal';text-align:start;letter-spacing:0px;word-spacing:0px;writing-mode:lr-tb;text-anchor:start;display:inline;fill:#000000;fill-opacity:1;stroke:none"
       xml:space="preserve"><tspan
         sodipodi:role="line"
         id="tspan7625"
         x="165.62157"
         y="988.78314">$\cmplx{Z}_3$</tspan></text>
    <text
       sodipodi:linespacing="125%"
       id="text7689-7-4-8-4-0-8-2-0-6-6-1-0-5-9"
       y="988.78308"
       x="296.62155"
       style="font-style:normal;font-variant:normal;font-weight:normal;font-stretch:normal;font-size:4.99999952px;line-height:125%;font-family:Sans;-inkscape-font-specification:'Sans, Normal';text-align:start;letter-spacing:0px;word-spacing:0px;writing-mode:lr-tb;text-anchor:start;display:inline;fill:#000000;fill-opacity:1;stroke:none"
       xml:space="preserve"><tspan
         sodipodi:role="line"
         id="tspan7665"
         x="296.62155"
         y="988.78308">$\cmplx{Z}_5$</tspan></text>
    <text
       sodipodi:linespacing="125%"
       id="text7689-7-4-8-4-0-8-2-0-6-6-1-0-5-9-1"
       y="989.78314"
       x="433.62152"
       style="font-style:normal;font-variant:normal;font-weight:normal;font-stretch:normal;font-size:4.99999952px;line-height:125%;font-family:Sans;-inkscape-font-specification:'Sans, Normal';text-align:start;letter-spacing:0px;word-spacing:0px;writing-mode:lr-tb;text-anchor:start;display:inline;fill:#000000;fill-opacity:1;stroke:none"
       xml:space="preserve"><tspan
         sodipodi:role="line"
         id="tspan7663"
         x="433.62152"
         y="989.78314">$\cmplx{E}_2$</tspan></text>
    <text
       sodipodi:linespacing="125%"
       id="text7689-7-4-8-4-0-8-2-0-6-6-1-0-5-9-1-6"
       y="988.78308"
       x="6.6984854"
       style="font-style:normal;font-variant:normal;font-weight:normal;font-stretch:normal;font-size:4.99999952px;line-height:125%;font-family:Sans;-inkscape-font-specification:'Sans, Normal';text-align:end;letter-spacing:0px;word-spacing:0px;writing-mode:lr-tb;text-anchor:end;display:inline;fill:#000000;fill-opacity:1;stroke:none"
       xml:space="preserve"><tspan
         sodipodi:role="line"
         id="tspan7685"
         x="6.6984854"
         y="988.78308">$\cmplx{E}_1$</tspan></text>
    <path
       style="fill:none;fill-rule:evenodd;stroke:#000000;stroke-width:1.06299207;stroke-linecap:butt;stroke-linejoin:miter;stroke-opacity:1;stroke-miterlimit:4;stroke-dasharray:none;marker-end:url(#marker7695)"
       d="m 120,927.36223 25,0 0,0"
       id="path7687"
       inkscape:connector-curvature="0" />
    <path
       style="fill:none;fill-rule:evenodd;stroke:#000000;stroke-width:1px;stroke-linecap:butt;stroke-linejoin:miter;stroke-opacity:1;marker-end:url(#marker8314)"
       d="m 190,927.36223 -25,0"
       id="path9441"
       inkscape:connector-curvature="0" />
    <path
       style="fill:none;fill-rule:evenodd;stroke:#000000;stroke-width:1px;stroke-linecap:butt;stroke-linejoin:miter;stroke-opacity:1;marker-end:url(#marker9465)"
       d="m 160,942.36223 0,20"
       id="path9655"
       inkscape:connector-curvature="0" />
    <path
       style="fill:none;fill-rule:evenodd;stroke:#000000;stroke-width:1px;stroke-linecap:butt;stroke-linejoin:miter;stroke-opacity:1;marker-end:url(#marker8314-7)"
       d="m 319.99996,927.36223 -25,0"
       id="path9441-5"
       inkscape:connector-curvature="0" />
    <path
       style="fill:none;fill-rule:evenodd;stroke:#000000;stroke-width:1px;stroke-linecap:butt;stroke-linejoin:miter;stroke-opacity:1;marker-end:url(#marker8314-3)"
       d="m 279.99997,1039.3622 -24.99999,0"
       id="path9441-8"
       inkscape:connector-curvature="0" />
    <path
       style="fill:none;fill-rule:evenodd;stroke:#000000;stroke-width:1px;stroke-linecap:butt;stroke-linejoin:miter;stroke-opacity:1;marker-end:url(#marker9465-8)"
       d="m 289.99036,942.36223 0,20"
       id="path9655-7"
       inkscape:connector-curvature="0" />
    <text
       sodipodi:linespacing="125%"
       id="text7689-7-4-8-4-0-8-2-0-6-6-1-3"
       y="921.78314"
       x="131.98656"
       style="font-style:normal;font-variant:normal;font-weight:normal;font-stretch:normal;font-size:4.99999952px;line-height:125%;font-family:Sans;-inkscape-font-specification:'Sans, Normal';text-align:center;letter-spacing:0px;word-spacing:0px;writing-mode:lr-tb;text-anchor:middle;display:inline;fill:#000000;fill-opacity:1;stroke:none"
       xml:space="preserve"><tspan
         sodipodi:role="line"
         id="tspan10969"
         x="131.98656"
         y="921.78314">$\cmplx{I}_1$</tspan></text>
    <text
       sodipodi:linespacing="125%"
       id="text7689-7-4-8-4-0-8-2-0-6-6-1-3-1"
       y="921.78308"
       x="179.98656"
       style="font-style:normal;font-variant:normal;font-weight:normal;font-stretch:normal;font-size:4.9999997px;line-height:125%;font-family:Sans;-inkscape-font-specification:'Sans, Normal';text-align:center;letter-spacing:0px;word-spacing:0px;writing-mode:lr;text-anchor:middle;display:inline;fill:#000000;fill-opacity:1;stroke:none;"
       xml:space="preserve"><tspan
         sodipodi:role="line"
         id="tspan10989">$\cmplx{I}_2$</tspan></text>
    <text
       sodipodi:linespacing="125%"
       id="text7689-7-4-8-4-0-8-2-0-6-6-1-3-1-7"
       y="921.78308"
       x="310.16696"
       style="font-style:normal;font-variant:normal;font-weight:normal;font-stretch:normal;font-size:4.99999952px;line-height:125%;font-family:Sans;-inkscape-font-specification:'Sans, Normal';text-align:center;letter-spacing:0px;word-spacing:0px;writing-mode:lr-tb;text-anchor:middle;display:inline;fill:#000000;fill-opacity:1;stroke:none"
       xml:space="preserve"><tspan
         sodipodi:role="line"
         id="tspan11009"
         x="310.16696"
         y="921.78308">$\cmplx{I}_6$</tspan></text>
    <text
       sodipodi:linespacing="125%"
       id="text7689-7-4-8-4-0-8-2-0-6-6-1-3-1-79"
       y="1033.7831"
       x="268.98654"
       style="font-style:normal;font-variant:normal;font-weight:normal;font-stretch:normal;font-size:4.99999952px;line-height:125%;font-family:Sans;-inkscape-font-specification:'Sans, Normal';text-align:center;letter-spacing:0px;word-spacing:0px;writing-mode:lr-tb;text-anchor:middle;display:inline;fill:#000000;fill-opacity:1;stroke:none"
       xml:space="preserve"><tspan
         sodipodi:role="line"
         id="tspan11019"
         x="268.98654"
         y="1033.7831">$\cmplx{I}_4$</tspan></text>
    <text
       sodipodi:linespacing="125%"
       id="text7689-7-4-8-4-0-8-2-0-6-6-1-0-5-9-1-2"
       y="953.78308"
       x="294.62155"
       style="font-style:normal;font-variant:normal;font-weight:normal;font-stretch:normal;font-size:4.99999952px;line-height:125%;font-family:Sans;-inkscape-font-specification:'Sans, Normal';text-align:start;letter-spacing:0px;word-spacing:0px;writing-mode:lr-tb;text-anchor:start;display:inline;fill:#000000;fill-opacity:1;stroke:none"
       xml:space="preserve"><tspan
         sodipodi:role="line"
         id="tspan11039"
         x="294.62155"
         y="953.78308">$\cmplx{I}_5$</tspan></text>
    <text
       sodipodi:linespacing="125%"
       id="text7689-7-4-8-4-0-8-2-0-6-6-1-0-5-9-1-2-0"
       y="953.78308"
       x="164.62157"
       style="font-style:normal;font-variant:normal;font-weight:normal;font-stretch:normal;font-size:4.9999997px;line-height:125%;font-family:Sans;-inkscape-font-specification:'Sans, Normal';text-align:start;letter-spacing:0px;word-spacing:0px;writing-mode:lr;text-anchor:start;display:inline;fill:#000000;fill-opacity:1;stroke:none;"
       xml:space="preserve"><tspan
         sodipodi:role="line"
         id="tspan11059">$\cmplx{I}_3$</tspan></text>
    <text
       sodipodi:linespacing="125%"
       id="text7689-7-4-8-4-0-8-2-0-6-6-1-3-1-79-7"
       y="987.78308"
       x="221.98656"
       style="font-style:normal;font-variant:normal;font-weight:normal;font-stretch:normal;font-size:4.9999997px;line-height:125%;font-family:Sans;-inkscape-font-specification:'Sans, Normal';text-align:center;letter-spacing:0px;word-spacing:0px;writing-mode:lr;text-anchor:middle;display:inline;fill:#000000;fill-opacity:1;stroke:none;"
       xml:space="preserve"><tspan
         sodipodi:role="line"
         id="tspan4458">$\cmplx{I}\ped{M_2}$</tspan></text>
    <text
       sodipodi:linespacing="125%"
       id="text7689-7-4-8-4-0-8-2-0-6-6-1-3-1-79-7-8"
       y="987.78308"
       x="91.986565"
       style="font-style:normal;font-variant:normal;font-weight:normal;font-stretch:normal;font-size:4.9999997px;line-height:125%;font-family:Sans;-inkscape-font-specification:'Sans, Normal';text-align:center;letter-spacing:0px;word-spacing:0px;writing-mode:lr;text-anchor:middle;display:inline;fill:#000000;fill-opacity:1;stroke:none;"
       xml:space="preserve"><tspan
         sodipodi:role="line"
         id="tspan4453">$\cmplx{I}\ped{M_1}$</tspan></text>
    <text
       sodipodi:linespacing="125%"
       id="text7689-7-4-8-4-0-8-2-0-6-6-1-3-1-79-7-89"
       y="987.78308"
       x="352.04489"
       style="font-style:normal;font-variant:normal;font-weight:normal;font-stretch:normal;font-size:4.9999997px;line-height:125%;font-family:Sans;-inkscape-font-specification:'Sans, Normal';text-align:center;letter-spacing:0px;word-spacing:0px;writing-mode:lr;text-anchor:middle;display:inline;fill:#000000;fill-opacity:1;stroke:none;"
       xml:space="preserve"><tspan
         sodipodi:role="line"
         id="tspan4456">$\cmplx{I}\ped{M_3}$</tspan></text>
  </g>
</svg>
