<?xml version="1.0" encoding="UTF-8" standalone="no"?>
<!-- Created with Inkscape (http://www.inkscape.org/) -->

<svg
   width="103mm"
   height="42mm"
   viewBox="0 0 364.96061 148.81885"
   id="svg7159"
   version="1.1"
   inkscape:version="1.4 (86a8ad7, 2024-10-11)"
   sodipodi:docname="Cap-ResXarxElec-Curt-Superpos-3.svg"
   xmlns:inkscape="http://www.inkscape.org/namespaces/inkscape"
   xmlns:sodipodi="http://sodipodi.sourceforge.net/DTD/sodipodi-0.dtd"
   xmlns="http://www.w3.org/2000/svg"
   xmlns:svg="http://www.w3.org/2000/svg"
   xmlns:rdf="http://www.w3.org/1999/02/22-rdf-syntax-ns#"
   xmlns:cc="http://creativecommons.org/ns#"
   xmlns:dc="http://purl.org/dc/elements/1.1/">
  <defs
     id="defs7161">
    <marker
       inkscape:isstock="true"
       style="overflow:visible"
       id="marker9465"
       refX="0"
       refY="0"
       orient="auto"
       inkscape:stockid="Arrow2Mend"
       viewBox="0 0 6.9304588 5.1962256"
       markerWidth="6.9304585"
       markerHeight="5.1962256"
       preserveAspectRatio="xMidYMid">
      <path
         inkscape:connector-curvature="0"
         transform="scale(-0.6)"
         d="M 8.7185878,4.0337352 -2.2072895,0.01601326 8.7185884,-4.0017078 c -1.7454984,2.3720609 -1.7354408,5.6174519 -6e-7,8.035443 z"
         style="fill:#000000;fill-opacity:1;fill-rule:evenodd;stroke:#000000;stroke-width:0.625;stroke-linejoin:round;stroke-opacity:1"
         id="path9467" />
    </marker>
    <marker
       inkscape:stockid="Arrow2Mend"
       orient="auto"
       refY="0"
       refX="0"
       id="marker8124"
       style="overflow:visible"
       inkscape:isstock="true">
      <path
         id="path8126"
         style="fill:#000000;fill-opacity:1;fill-rule:evenodd;stroke:#000000;stroke-width:0.625;stroke-linejoin:round;stroke-opacity:1"
         d="M 8.7185878,4.0337352 -2.2072895,0.01601326 8.7185884,-4.0017078 c -1.7454984,2.3720609 -1.7354408,5.6174519 -6e-7,8.035443 z"
         transform="scale(-0.6)"
         inkscape:connector-curvature="0" />
    </marker>
    <marker
       inkscape:isstock="true"
       style="overflow:visible"
       id="marker7695"
       refX="0"
       refY="0"
       orient="auto"
       inkscape:stockid="Arrow2Mend"
       inkscape:collect="always">
      <path
         inkscape:connector-curvature="0"
         transform="scale(-0.6)"
         d="M 8.7185878,4.0337352 -2.2072895,0.01601326 8.7185884,-4.0017078 c -1.7454984,2.3720609 -1.7354408,5.6174519 -6e-7,8.035443 z"
         style="fill:#000000;fill-opacity:1;fill-rule:evenodd;stroke:#000000;stroke-width:0.625;stroke-linejoin:round;stroke-opacity:1"
         id="path7697" />
    </marker>
    <marker
       inkscape:stockid="Arrow1Mend"
       orient="auto"
       refY="0"
       refX="0"
       id="marker5287"
       style="overflow:visible"
       inkscape:isstock="true">
      <path
         id="path5289"
         d="M 0,0 5,-5 -12.5,0 5,5 Z"
         style="fill:#148a5e;fill-opacity:1;fill-rule:evenodd;stroke:#148a5e;stroke-width:1pt;stroke-opacity:1"
         transform="matrix(-0.4,0,0,-0.4,-4,0)"
         inkscape:connector-curvature="0" />
    </marker>
    <marker
       inkscape:stockid="Arrow1Mend"
       orient="auto"
       refY="0"
       refX="0"
       id="Arrow1Mend"
       style="overflow:visible"
       inkscape:isstock="true">
      <path
         id="path4540"
         d="M 0,0 5,-5 -12.5,0 5,5 Z"
         style="fill:#148a5e;fill-opacity:1;fill-rule:evenodd;stroke:#148a5e;stroke-width:1pt;stroke-opacity:1"
         transform="matrix(-0.4,0,0,-0.4,-4,0)"
         inkscape:connector-curvature="0" />
    </marker>
    <marker
       inkscape:stockid="TriangleOutL"
       orient="auto"
       refY="0"
       refX="0"
       id="TriangleOutL"
       style="overflow:visible"
       inkscape:isstock="true">
      <path
         id="path4673"
         d="M 5.77,0 -2.88,5 V -5 Z"
         style="fill:#148a5e;fill-opacity:1;fill-rule:evenodd;stroke:#148a5e;stroke-width:1pt;stroke-opacity:1"
         transform="scale(0.8)"
         inkscape:connector-curvature="0" />
    </marker>
    <marker
       inkscape:stockid="Arrow2Lend"
       orient="auto"
       refY="0"
       refX="0"
       id="Arrow2Lend"
       style="overflow:visible"
       inkscape:isstock="true">
      <path
         id="path4552"
         style="fill:#148a5e;fill-opacity:1;fill-rule:evenodd;stroke:#148a5e;stroke-width:0.625;stroke-linejoin:round;stroke-opacity:1"
         d="M 8.7185878,4.0337352 -2.2072895,0.01601326 8.7185884,-4.0017078 c -1.7454984,2.3720609 -1.7354408,5.6174519 -6e-7,8.035443 z"
         transform="matrix(-1.1,0,0,-1.1,-1.1,0)"
         inkscape:connector-curvature="0" />
    </marker>
    <marker
       inkscape:stockid="Arrow1Lend"
       orient="auto"
       refY="0"
       refX="0"
       id="Arrow1Lend"
       style="overflow:visible"
       inkscape:isstock="true">
      <path
         id="path4534"
         d="M 0,0 5,-5 -12.5,0 5,5 Z"
         style="fill:#148a5e;fill-opacity:1;fill-rule:evenodd;stroke:#148a5e;stroke-width:1pt;stroke-opacity:1"
         transform="matrix(-0.8,0,0,-0.8,-10,0)"
         inkscape:connector-curvature="0" />
    </marker>
    <marker
       inkscape:stockid="DotM"
       orient="auto"
       refY="0"
       refX="0"
       id="DotM"
       style="overflow:visible"
       viewBox="0 0 4.5333334 4.5333334"
       markerWidth="4.5333333"
       markerHeight="4.5333333"
       preserveAspectRatio="xMidYMid">
      <path
         id="path4112"
         d="m -2.5,-1 c 0,2.76 -2.24,5 -5,5 -2.76,0 -5,-2.24 -5,-5 0,-2.76 2.24,-5 5,-5 2.76,0 5,2.24 5,5 z"
         style="fill-rule:evenodd;stroke:#000000;stroke-width:1pt"
         transform="matrix(0.4,0,0,0.4,2.96,0.4)"
         inkscape:connector-curvature="0" />
    </marker>
    <marker
       inkscape:stockid="DotM"
       orient="auto"
       refY="0"
       refX="0"
       id="marker7717"
       style="overflow:visible">
      <path
         id="path7719"
         d="m -2.5,-1 c 0,2.76 -2.24,5 -5,5 -2.76,0 -5,-2.24 -5,-5 0,-2.76 2.24,-5 5,-5 2.76,0 5,2.24 5,5 z"
         style="fill-rule:evenodd;stroke:#000000;stroke-width:1pt"
         transform="matrix(0.4,0,0,0.4,2.96,0.4)"
         inkscape:connector-curvature="0" />
    </marker>
    <marker
       inkscape:stockid="DotM"
       orient="auto"
       refY="0"
       refX="0"
       id="marker7721"
       style="overflow:visible">
      <path
         id="path7723"
         d="m -2.5,-1 c 0,2.76 -2.24,5 -5,5 -2.76,0 -5,-2.24 -5,-5 0,-2.76 2.24,-5 5,-5 2.76,0 5,2.24 5,5 z"
         style="fill-rule:evenodd;stroke:#000000;stroke-width:1pt"
         transform="matrix(0.4,0,0,0.4,2.96,0.4)"
         inkscape:connector-curvature="0" />
    </marker>
    <marker
       inkscape:stockid="DotM"
       orient="auto"
       refY="0"
       refX="0"
       id="marker7721-0"
       style="overflow:visible">
      <path
         id="path7723-5"
         d="m -2.5,-1 c 0,2.76 -2.24,5 -5,5 -2.76,0 -5,-2.24 -5,-5 0,-2.76 2.24,-5 5,-5 2.76,0 5,2.24 5,5 z"
         style="fill-rule:evenodd;stroke:#000000;stroke-width:1pt"
         transform="matrix(0.4,0,0,0.4,2.96,0.4)"
         inkscape:connector-curvature="0" />
    </marker>
    <marker
       inkscape:stockid="DotM"
       orient="auto"
       refY="0"
       refX="0"
       id="marker7721-0-2"
       style="overflow:visible">
      <path
         id="path7723-5-9"
         d="m -2.5,-1 c 0,2.76 -2.24,5 -5,5 -2.76,0 -5,-2.24 -5,-5 0,-2.76 2.24,-5 5,-5 2.76,0 5,2.24 5,5 z"
         style="fill-rule:evenodd;stroke:#000000;stroke-width:1pt"
         transform="matrix(0.4,0,0,0.4,2.96,0.4)"
         inkscape:connector-curvature="0" />
    </marker>
    <marker
       inkscape:stockid="DotM"
       orient="auto"
       refY="0"
       refX="0"
       id="marker7721-0-2-7"
       style="overflow:visible">
      <path
         id="path7723-5-9-3"
         d="m -2.5,-1 c 0,2.76 -2.24,5 -5,5 -2.76,0 -5,-2.24 -5,-5 0,-2.76 2.24,-5 5,-5 2.76,0 5,2.24 5,5 z"
         style="fill-rule:evenodd;stroke:#000000;stroke-width:1pt"
         transform="matrix(0.4,0,0,0.4,2.96,0.4)"
         inkscape:connector-curvature="0" />
    </marker>
    <marker
       inkscape:stockid="DotM"
       orient="auto"
       refY="0"
       refX="0"
       id="marker7721-0-2-7-3"
       style="overflow:visible">
      <path
         id="path7723-5-9-3-6"
         d="m -2.5,-1 c 0,2.76 -2.24,5 -5,5 -2.76,0 -5,-2.24 -5,-5 0,-2.76 2.24,-5 5,-5 2.76,0 5,2.24 5,5 z"
         style="fill-rule:evenodd;stroke:#000000;stroke-width:1pt"
         transform="matrix(0.4,0,0,0.4,2.96,0.4)"
         inkscape:connector-curvature="0" />
    </marker>
    <marker
       inkscape:stockid="DotM"
       orient="auto"
       refY="0"
       refX="0"
       id="marker7721-0-2-7-9"
       style="overflow:visible">
      <path
         id="path7723-5-9-3-3"
         d="m -2.5,-1 c 0,2.76 -2.24,5 -5,5 -2.76,0 -5,-2.24 -5,-5 0,-2.76 2.24,-5 5,-5 2.76,0 5,2.24 5,5 z"
         style="fill-rule:evenodd;stroke:#000000;stroke-width:1pt"
         transform="matrix(0.4,0,0,0.4,2.96,0.4)"
         inkscape:connector-curvature="0" />
    </marker>
    <marker
       inkscape:stockid="DotM"
       orient="auto"
       refY="0"
       refX="0"
       id="marker7721-0-2-3"
       style="overflow:visible">
      <path
         id="path7723-5-9-39"
         d="m -2.5,-1 c 0,2.76 -2.24,5 -5,5 -2.76,0 -5,-2.24 -5,-5 0,-2.76 2.24,-5 5,-5 2.76,0 5,2.24 5,5 z"
         style="fill-rule:evenodd;stroke:#000000;stroke-width:1pt"
         transform="matrix(0.4,0,0,0.4,2.96,0.4)"
         inkscape:connector-curvature="0" />
    </marker>
    <marker
       inkscape:stockid="DotM"
       orient="auto"
       refY="0"
       refX="0"
       id="marker7721-0-7"
       style="overflow:visible">
      <path
         id="path7723-5-7"
         d="m -2.5,-1 c 0,2.76 -2.24,5 -5,5 -2.76,0 -5,-2.24 -5,-5 0,-2.76 2.24,-5 5,-5 2.76,0 5,2.24 5,5 z"
         style="fill-rule:evenodd;stroke:#000000;stroke-width:1pt"
         transform="matrix(0.4,0,0,0.4,2.96,0.4)"
         inkscape:connector-curvature="0" />
    </marker>
    <marker
       inkscape:stockid="DotM"
       orient="auto"
       refY="0"
       refX="0"
       id="marker7721-0-7-8"
       style="overflow:visible">
      <path
         id="path7723-5-7-8"
         d="m -2.5,-1 c 0,2.76 -2.24,5 -5,5 -2.76,0 -5,-2.24 -5,-5 0,-2.76 2.24,-5 5,-5 2.76,0 5,2.24 5,5 z"
         style="fill-rule:evenodd;stroke:#000000;stroke-width:1pt"
         transform="matrix(0.4,0,0,0.4,2.96,0.4)"
         inkscape:connector-curvature="0" />
    </marker>
    <marker
       inkscape:stockid="DotM"
       orient="auto"
       refY="0"
       refX="0"
       id="marker7721-0-7-8-8"
       style="overflow:visible">
      <path
         id="path7723-5-7-8-8"
         d="m -2.5,-1 c 0,2.76 -2.24,5 -5,5 -2.76,0 -5,-2.24 -5,-5 0,-2.76 2.24,-5 5,-5 2.76,0 5,2.24 5,5 z"
         style="fill-rule:evenodd;stroke:#000000;stroke-width:1pt"
         transform="matrix(0.4,0,0,0.4,2.96,0.4)"
         inkscape:connector-curvature="0" />
    </marker>
    <marker
       inkscape:stockid="DotM"
       orient="auto"
       refY="0"
       refX="0"
       id="marker7721-0-7-8-5"
       style="overflow:visible">
      <path
         id="path7723-5-7-8-86"
         d="m -2.5,-1 c 0,2.76 -2.24,5 -5,5 -2.76,0 -5,-2.24 -5,-5 0,-2.76 2.24,-5 5,-5 2.76,0 5,2.24 5,5 z"
         style="fill-rule:evenodd;stroke:#000000;stroke-width:1pt"
         transform="matrix(0.4,0,0,0.4,2.96,0.4)"
         inkscape:connector-curvature="0" />
    </marker>
    <marker
       inkscape:stockid="DotM"
       orient="auto"
       refY="0"
       refX="0"
       id="DotM-4"
       style="overflow:visible">
      <path
         id="path4112-1"
         d="m -2.5,-1 c 0,2.76 -2.24,5 -5,5 -2.76,0 -5,-2.24 -5,-5 0,-2.76 2.24,-5 5,-5 2.76,0 5,2.24 5,5 z"
         style="fill-rule:evenodd;stroke:#000000;stroke-width:1pt"
         transform="matrix(0.4,0,0,0.4,2.96,0.4)"
         inkscape:connector-curvature="0" />
    </marker>
    <marker
       inkscape:stockid="DotM"
       orient="auto"
       refY="0"
       refX="0"
       id="marker4389"
       style="overflow:visible">
      <path
         id="path4391"
         d="m -2.5,-1 c 0,2.76 -2.24,5 -5,5 -2.76,0 -5,-2.24 -5,-5 0,-2.76 2.24,-5 5,-5 2.76,0 5,2.24 5,5 z"
         style="fill-rule:evenodd;stroke:#000000;stroke-width:1pt"
         transform="matrix(0.4,0,0,0.4,2.96,0.4)"
         inkscape:connector-curvature="0" />
    </marker>
    <marker
       inkscape:stockid="Arrow2Mend"
       orient="auto"
       refY="0"
       refX="0"
       id="Arrow2Mend-9"
       style="overflow:visible"
       inkscape:isstock="true">
      <path
         inkscape:connector-curvature="0"
         id="path4558-2"
         style="fill:#000000;fill-opacity:1;fill-rule:evenodd;stroke:#000000;stroke-width:0.625;stroke-linejoin:round;stroke-opacity:1"
         d="M 8.7185878,4.0337352 -2.2072895,0.01601326 8.7185884,-4.0017078 c -1.7454984,2.3720609 -1.7354408,5.6174519 -6e-7,8.035443 z"
         transform="scale(-0.6)" />
    </marker>
    <marker
       inkscape:stockid="Arrow2Mend"
       orient="auto"
       refY="0"
       refX="0"
       id="Arrow2Mend-99"
       style="overflow:visible"
       inkscape:isstock="true">
      <path
         inkscape:connector-curvature="0"
         id="path4558-21"
         style="fill:#000000;fill-opacity:1;fill-rule:evenodd;stroke:#000000;stroke-width:0.625;stroke-linejoin:round;stroke-opacity:1"
         d="M 8.7185878,4.0337352 -2.2072895,0.01601326 8.7185884,-4.0017078 c -1.7454984,2.3720609 -1.7354408,5.6174519 -6e-7,8.035443 z"
         transform="scale(-0.6)" />
    </marker>
    <marker
       inkscape:isstock="true"
       style="overflow:visible"
       id="marker7695-7"
       refX="0"
       refY="0"
       orient="auto"
       inkscape:stockid="Arrow2Mend">
      <path
         inkscape:connector-curvature="0"
         transform="scale(-0.6)"
         d="M 8.7185878,4.0337352 -2.2072895,0.01601326 8.7185884,-4.0017078 c -1.7454984,2.3720609 -1.7354408,5.6174519 -6e-7,8.035443 z"
         style="fill:#000000;fill-opacity:1;fill-rule:evenodd;stroke:#000000;stroke-width:0.625;stroke-linejoin:round;stroke-opacity:1"
         id="path7697-1" />
    </marker>
    <marker
       inkscape:stockid="Arrow2Mend"
       orient="auto"
       refY="0"
       refX="0"
       id="marker8314-7"
       style="overflow:visible"
       inkscape:isstock="true"
       inkscape:collect="always">
      <path
         id="path8316-3"
         style="fill:#000000;fill-opacity:1;fill-rule:evenodd;stroke:#000000;stroke-width:0.625;stroke-linejoin:round;stroke-opacity:1"
         d="M 8.7185878,4.0337352 -2.2072895,0.01601326 8.7185884,-4.0017078 c -1.7454984,2.3720609 -1.7354408,5.6174519 -6e-7,8.035443 z"
         transform="scale(-0.6)"
         inkscape:connector-curvature="0" />
    </marker>
    <marker
       inkscape:isstock="true"
       style="overflow:visible"
       id="marker9465-8"
       refX="0"
       refY="0"
       orient="auto"
       inkscape:stockid="Arrow2Mend">
      <path
         inkscape:connector-curvature="0"
         transform="scale(-0.6)"
         d="M 8.7185878,4.0337352 -2.2072895,0.01601326 8.7185884,-4.0017078 c -1.7454984,2.3720609 -1.7354408,5.6174519 -6e-7,8.035443 z"
         style="fill:#000000;fill-opacity:1;fill-rule:evenodd;stroke:#000000;stroke-width:0.625;stroke-linejoin:round;stroke-opacity:1"
         id="path9467-9" />
    </marker>
    <marker
       inkscape:isstock="true"
       style="overflow:visible"
       id="marker9465-1"
       refX="0"
       refY="0"
       orient="auto"
       inkscape:stockid="Arrow2Mend">
      <path
         inkscape:connector-curvature="0"
         transform="scale(-0.6)"
         d="M 8.7185878,4.0337352 -2.2072895,0.01601326 8.7185884,-4.0017078 c -1.7454984,2.3720609 -1.7354408,5.6174519 -6e-7,8.035443 z"
         style="fill:#000000;fill-opacity:1;fill-rule:evenodd;stroke:#000000;stroke-width:0.625;stroke-linejoin:round;stroke-opacity:1"
         id="path9467-0" />
    </marker>
    <marker
       inkscape:stockid="DotM"
       orient="auto"
       refY="0"
       refX="0"
       id="DotM-0"
       style="overflow:visible">
      <path
         id="path4112-2"
         d="m -2.5,-1 c 0,2.76 -2.24,5 -5,5 -2.76,0 -5,-2.24 -5,-5 0,-2.76 2.24,-5 5,-5 2.76,0 5,2.24 5,5 z"
         style="fill-rule:evenodd;stroke:#000000;stroke-width:1pt"
         transform="matrix(0.4,0,0,0.4,2.96,0.4)"
         inkscape:connector-curvature="0" />
    </marker>
    <marker
       inkscape:stockid="DotM"
       orient="auto"
       refY="0"
       refX="0"
       id="marker1"
       style="overflow:visible">
      <path
         id="path1"
         d="m -2.5,-1 c 0,2.76 -2.24,5 -5,5 -2.76,0 -5,-2.24 -5,-5 0,-2.76 2.24,-5 5,-5 2.76,0 5,2.24 5,5 z"
         style="fill-rule:evenodd;stroke:#000000;stroke-width:1pt"
         transform="matrix(0.4,0,0,0.4,2.96,0.4)"
         inkscape:connector-curvature="0" />
    </marker>
    <marker
       inkscape:isstock="true"
       style="overflow:visible"
       id="marker9465-8-9"
       refX="0"
       refY="0"
       orient="auto"
       inkscape:stockid="Arrow2Mend">
      <path
         inkscape:connector-curvature="0"
         transform="scale(-0.6)"
         d="M 8.7185878,4.0337352 -2.2072895,0.01601326 8.7185884,-4.0017078 c -1.7454984,2.3720609 -1.7354408,5.6174519 -6e-7,8.035443 z"
         style="fill:#000000;fill-opacity:1;fill-rule:evenodd;stroke:#000000;stroke-width:0.625;stroke-linejoin:round;stroke-opacity:1"
         id="path9467-9-2" />
    </marker>
    <marker
       inkscape:stockid="DotM"
       orient="auto"
       refY="0"
       refX="0"
       id="DotM-04"
       style="overflow:visible"
       viewBox="0 0 4.5333334 4.5333334"
       markerWidth="4.5333333"
       markerHeight="4.5333333"
       preserveAspectRatio="xMidYMid">
      <path
         id="path4112-12"
         d="m -2.5,-1 c 0,2.76 -2.24,5 -5,5 -2.76,0 -5,-2.24 -5,-5 0,-2.76 2.24,-5 5,-5 2.76,0 5,2.24 5,5 z"
         style="fill-rule:evenodd;stroke:#000000;stroke-width:1pt"
         transform="matrix(0.4,0,0,0.4,2.96,0.4)"
         inkscape:connector-curvature="0" />
    </marker>
    <marker
       inkscape:stockid="DotM"
       orient="auto"
       refY="0"
       refX="0"
       id="marker1-3"
       style="overflow:visible"
       viewBox="0 0 4.5333334 4.5333334"
       markerWidth="4.5333333"
       markerHeight="4.5333333"
       preserveAspectRatio="xMidYMid">
      <path
         id="path1-5"
         d="m -2.5,-1 c 0,2.76 -2.24,5 -5,5 -2.76,0 -5,-2.24 -5,-5 0,-2.76 2.24,-5 5,-5 2.76,0 5,2.24 5,5 z"
         style="fill-rule:evenodd;stroke:#000000;stroke-width:1pt"
         transform="matrix(0.4,0,0,0.4,2.96,0.4)"
         inkscape:connector-curvature="0" />
    </marker>
    <marker
       inkscape:stockid="Arrow2Mend"
       orient="auto"
       refY="0"
       refX="0"
       id="marker8314-7-6-5"
       style="overflow:visible"
       inkscape:isstock="true"
       inkscape:collect="always"
       viewBox="0 0 6.9304588 5.1962256"
       markerWidth="6.9304585"
       markerHeight="5.1962256"
       preserveAspectRatio="xMidYMid">
      <path
         id="path8316-3-1-8"
         style="fill:#000000;fill-opacity:1;fill-rule:evenodd;stroke:#000000;stroke-width:0.625;stroke-linejoin:round;stroke-opacity:1"
         d="M 8.7185878,4.0337352 -2.2072895,0.01601326 8.7185884,-4.0017078 c -1.7454984,2.3720609 -1.7354408,5.6174519 -6e-7,8.035443 z"
         transform="scale(-0.6)"
         inkscape:connector-curvature="0" />
    </marker>
    <marker
       inkscape:stockid="DotM"
       orient="auto"
       refY="0"
       refX="0"
       id="DotM-1"
       style="overflow:visible"
       viewBox="0 0 4.5333334 4.5333334"
       markerWidth="4.5333333"
       markerHeight="4.5333333"
       preserveAspectRatio="xMidYMid">
      <path
         id="path4112-6"
         d="m -2.5,-1 c 0,2.76 -2.24,5 -5,5 -2.76,0 -5,-2.24 -5,-5 0,-2.76 2.24,-5 5,-5 2.76,0 5,2.24 5,5 z"
         style="fill-rule:evenodd;stroke:#000000;stroke-width:1pt"
         transform="matrix(0.4,0,0,0.4,2.96,0.4)"
         inkscape:connector-curvature="0" />
    </marker>
    <marker
       inkscape:stockid="DotM"
       orient="auto"
       refY="0"
       refX="0"
       id="DotM-5"
       style="overflow:visible"
       viewBox="0 0 4.5333334 4.5333334"
       markerWidth="4.5333333"
       markerHeight="4.5333333"
       preserveAspectRatio="xMidYMid">
      <path
         id="path4112-3"
         d="m -2.5,-1 c 0,2.76 -2.24,5 -5,5 -2.76,0 -5,-2.24 -5,-5 0,-2.76 2.24,-5 5,-5 2.76,0 5,2.24 5,5 z"
         style="fill-rule:evenodd;stroke:#000000;stroke-width:1pt"
         transform="matrix(0.4,0,0,0.4,2.96,0.4)"
         inkscape:connector-curvature="0" />
    </marker>
    <marker
       inkscape:stockid="DotM"
       orient="auto"
       refY="0"
       refX="0"
       id="DotM-1-6"
       style="overflow:visible"
       viewBox="0 0 4.5333334 4.5333334"
       markerWidth="4.5333333"
       markerHeight="4.5333333"
       preserveAspectRatio="xMidYMid">
      <path
         id="path4112-6-9"
         d="m -2.5,-1 c 0,2.76 -2.24,5 -5,5 -2.76,0 -5,-2.24 -5,-5 0,-2.76 2.24,-5 5,-5 2.76,0 5,2.24 5,5 z"
         style="fill-rule:evenodd;stroke:#000000;stroke-width:1pt"
         transform="matrix(0.4,0,0,0.4,2.96,0.4)"
         inkscape:connector-curvature="0" />
    </marker>
    <marker
       inkscape:stockid="Arrow2Mend"
       orient="auto"
       refY="0"
       refX="0"
       id="marker8314-7-6-5-3"
       style="overflow:visible"
       inkscape:isstock="true"
       inkscape:collect="always"
       viewBox="0 0 6.9304588 5.1962256"
       markerWidth="6.9304585"
       markerHeight="5.1962256"
       preserveAspectRatio="xMidYMid">
      <path
         id="path8316-3-1-8-5"
         style="fill:#000000;fill-opacity:1;fill-rule:evenodd;stroke:#000000;stroke-width:0.625;stroke-linejoin:round;stroke-opacity:1"
         d="M 8.7185878,4.0337352 -2.2072895,0.01601326 8.7185884,-4.0017078 c -1.7454984,2.3720609 -1.7354408,5.6174519 -6e-7,8.035443 z"
         transform="scale(-0.6)"
         inkscape:connector-curvature="0" />
    </marker>
    <marker
       inkscape:stockid="Arrow2Mend"
       orient="auto"
       refY="0"
       refX="0"
       id="marker8314-7-6-5-0"
       style="overflow:visible"
       inkscape:isstock="true"
       inkscape:collect="always"
       viewBox="0 0 6.9304588 5.1962256"
       markerWidth="6.9304585"
       markerHeight="5.1962256"
       preserveAspectRatio="xMidYMid">
      <path
         id="path8316-3-1-8-8"
         style="fill:#000000;fill-opacity:1;fill-rule:evenodd;stroke:#000000;stroke-width:0.625;stroke-linejoin:round;stroke-opacity:1"
         d="M 8.7185878,4.0337352 -2.2072895,0.01601326 8.7185884,-4.0017078 c -1.7454984,2.3720609 -1.7354408,5.6174519 -6e-7,8.035443 z"
         transform="scale(-0.6)"
         inkscape:connector-curvature="0" />
    </marker>
  </defs>
  <sodipodi:namedview
     id="base"
     pagecolor="#ffffff"
     bordercolor="#666666"
     borderopacity="1.0"
     inkscape:pageopacity="0.0"
     inkscape:pageshadow="2"
     inkscape:zoom="2.724913"
     inkscape:cx="179.08829"
     inkscape:cy="83.12192"
     inkscape:document-units="px"
     inkscape:current-layer="layer1"
     showgrid="true"
     inkscape:window-width="2560"
     inkscape:window-height="1494"
     inkscape:window-x="-11"
     inkscape:window-y="-11"
     inkscape:window-maximized="1"
     inkscape:object-nodes="true"
     inkscape:snap-smooth-nodes="true"
     inkscape:snap-midpoints="true"
     inkscape:snap-object-midpoints="true"
     inkscape:snap-center="true"
     inkscape:object-paths="false"
     inkscape:snap-bbox="true"
     inkscape:snap-bbox-midpoints="false"
     inkscape:bbox-nodes="false"
     inkscape:snap-bbox-edge-midpoints="true"
     showguides="true"
     inkscape:showpageshadow="2"
     inkscape:pagecheckerboard="0"
     inkscape:deskcolor="#d1d1d1">
    <inkscape:grid
       type="xygrid"
       id="grid7945"
       originx="0"
       originy="0"
       spacingy="1"
       spacingx="1"
       units="px"
       visible="true" />
    <sodipodi:guide
       position="169.32177,72.186171"
       orientation="0,-1"
       id="guide1"
       inkscape:locked="false" />
    <sodipodi:guide
       position="298.9774,1.8413431"
       orientation="0,-1"
       id="guide2"
       inkscape:locked="false" />
    <sodipodi:guide
       position="193.77124,157.21197"
       orientation="0,-1"
       id="guide3"
       inkscape:locked="false" />
  </sodipodi:namedview>
  <metadata
     id="metadata7164">
    <rdf:RDF>
      <cc:Work
         rdf:about="">
        <dc:format>image/svg+xml</dc:format>
        <dc:type
           rdf:resource="http://purl.org/dc/dcmitype/StillImage" />
      </cc:Work>
    </rdf:RDF>
  </metadata>
  <g
     inkscape:label="Layer 1"
     inkscape:groupmode="layer"
     id="layer1"
     transform="translate(0,-910.62996)">
    <path
       style="display:inline;fill:none;fill-rule:evenodd;stroke:#000000;stroke-width:1.06299;stroke-linecap:butt;stroke-linejoin:miter;stroke-miterlimit:4;stroke-dasharray:none;stroke-opacity:1"
       d="M 93.891486,928.68988 H 173.12421"
       id="path4551-4"
       inkscape:connector-curvature="0"
       sodipodi:nodetypes="cc" />
    <rect
       y="-935.86224"
       x="-94.018364"
       height="14.000105"
       width="39.999958"
       id="rect7655-3-3-7"
       style="display:inline;fill:none;stroke:#000000;stroke-width:1.06299;stroke-linecap:butt;stroke-linejoin:miter;stroke-miterlimit:4;stroke-dasharray:none;stroke-dashoffset:0;stroke-opacity:1"
       transform="rotate(179.99984)"
       ry="9.9456984e-06" />
    <rect
       y="-123.30044"
       x="964.67242"
       height="14.000105"
       width="39.999958"
       id="rect7655-3-3-7-2"
       style="display:inline;fill:none;stroke:#000000;stroke-width:1.06299;stroke-linecap:butt;stroke-linejoin:miter;stroke-miterlimit:4;stroke-dasharray:none;stroke-dashoffset:0;stroke-opacity:1"
       transform="rotate(89.99984)"
       ry="9.9456984e-06" />
    <ellipse
       ry="14.173251"
       rx="14.173229"
       id="path5243-4-7-9-9-8-5"
       style="display:inline;fill:none;stroke:#000000;stroke-width:1.06299;stroke-linecap:butt;stroke-linejoin:miter;stroke-miterlimit:4;stroke-dasharray:none;stroke-dashoffset:0;stroke-opacity:1"
       cx="-28.543303"
       cy="984.992"
       transform="scale(-1,1)" />
    <path
       style="fill:none;fill-rule:evenodd;stroke:#000000;stroke-width:1.06299;stroke-linecap:butt;stroke-linejoin:miter;stroke-miterlimit:4;stroke-dasharray:none;stroke-opacity:1"
       d="m 28.420425,971.33861 10e-7,-42.51969 h 25.518299"
       id="path4262"
       inkscape:connector-curvature="0"
       sodipodi:nodetypes="ccc" />
    <path
       inkscape:connector-curvature="0"
       id="path7681"
       d="m 17.913383,964.26369 v 7.08662"
       style="fill:none;stroke:#000000;stroke-width:1.06299;stroke-linecap:butt;stroke-linejoin:miter;stroke-miterlimit:4;stroke-dasharray:none;stroke-opacity:1" />
    <path
       inkscape:connector-curvature="0"
       id="path7683"
       d="M 14.370077,967.807 H 21.45669"
       style="fill:none;stroke:#000000;stroke-width:1.06299;stroke-linecap:butt;stroke-linejoin:miter;stroke-miterlimit:4;stroke-dasharray:none;stroke-opacity:1" />
    <path
       id="path4449"
       title="sin(x)"
       d="m 20.959388,985.94816 c 1.346881,-2.35581 2.693692,-4.49752 4.040609,-4.49942 1.346917,0 2.693693,2.14361 4.040645,4.49942 1.346917,2.3559 2.693728,4.49761 4.04061,4.49951 1.346881,0 2.693763,-2.14361 4.040609,-4.49951"
       style="fill:none;stroke:#000000;stroke-width:1.06299;stroke-linecap:round;stroke-linejoin:miter;stroke-miterlimit:4;stroke-dasharray:none;stroke-dashoffset:0;stroke-opacity:1"
       inkscape:connector-curvature="0" />
    <rect
       y="-935.90405"
       x="271.67502"
       height="14.000105"
       width="39.999958"
       id="rect7655-3-3-7-3"
       style="display:inline;fill:none;stroke:#000000;stroke-width:1.06299;stroke-linecap:butt;stroke-linejoin:miter;stroke-miterlimit:4;stroke-dasharray:none;stroke-dashoffset:0;stroke-opacity:1"
       transform="matrix(1,2.7554915e-6,2.288723e-6,-1,0,0)"
       ry="9.9456984e-06" />
    <ellipse
       ry="14.173251"
       rx="14.173228"
       id="path5243-4-7-9-9-8-5-4"
       style="display:inline;fill:none;stroke:#000000;stroke-width:1.06299;stroke-linecap:butt;stroke-linejoin:miter;stroke-miterlimit:4;stroke-dasharray:none;stroke-dashoffset:0;stroke-opacity:1"
       cx="337.04724"
       cy="984.64551" />
    <path
       style="fill:none;fill-rule:evenodd;stroke:#000000;stroke-width:1.06299;stroke-linecap:butt;stroke-linejoin:miter;stroke-miterlimit:4;stroke-dasharray:none;stroke-opacity:1"
       d="m 337.18429,970.57563 v -42.51964 l -25.34937,0.51913"
       id="path4262-38"
       inkscape:connector-curvature="0"
       sodipodi:nodetypes="ccc" />
    <path
       inkscape:connector-curvature="0"
       id="path7681-6"
       d="m 348.20856,964.26319 v 7.08662"
       style="fill:none;stroke:#000000;stroke-width:1.06299;stroke-linecap:butt;stroke-linejoin:miter;stroke-miterlimit:4;stroke-dasharray:none;stroke-opacity:1" />
    <path
       inkscape:connector-curvature="0"
       id="path7683-17"
       d="m 351.75187,967.8065 h -7.08662"
       style="fill:none;stroke:#000000;stroke-width:1.06299;stroke-linecap:butt;stroke-linejoin:miter;stroke-miterlimit:4;stroke-dasharray:none;stroke-opacity:1" />
    <path
       id="path4449-84"
       title="sin(x)"
       d="m 329.00009,985.94766 c 1.34688,-2.35591 2.6937,-4.49762 4.04061,-4.49952 1.34692,0 2.69369,2.14361 4.04065,4.49952 1.34691,2.3559 2.69372,4.49761 4.04061,4.49951 1.34688,0 2.69376,-2.14361 4.0406,-4.49951"
       style="fill:none;stroke:#000000;stroke-width:1.06299;stroke-linecap:round;stroke-linejoin:miter;stroke-miterlimit:4;stroke-dasharray:none;stroke-dashoffset:0;stroke-opacity:1"
       inkscape:connector-curvature="0" />
    <path
       style="display:inline;fill:none;fill-rule:evenodd;stroke:#000000;stroke-width:1.06299;stroke-linecap:butt;stroke-linejoin:miter;stroke-miterlimit:4;stroke-dasharray:none;stroke-opacity:1;marker-end:url(#DotM)"
       d="m 272.01679,928.77593 h -99.1912"
       id="path4551-4-6-8"
       inkscape:connector-curvature="0"
       sodipodi:nodetypes="cc" />
    <path
       style="fill:none;fill-rule:evenodd;stroke:#000000;stroke-width:1.06312;stroke-linecap:butt;stroke-linejoin:miter;stroke-miterlimit:4;stroke-dasharray:none;stroke-opacity:1;marker-end:url(#DotM)"
       d="m 337.96117,998.81889 -10e-6,42.51971 -164.92936,-0.5197"
       id="path4262-38-3"
       inkscape:connector-curvature="0"
       sodipodi:nodetypes="ccc" />
    <path
       style="fill:none;fill-rule:evenodd;stroke:#000000;stroke-width:1.06299;stroke-linecap:butt;stroke-linejoin:miter;stroke-miterlimit:4;stroke-dasharray:none;stroke-opacity:1"
       d="m 28.523578,998.81889 9e-6,42.51971 144.801033,-0.5197"
       id="path4262-38-3-5"
       inkscape:connector-curvature="0"
       sodipodi:nodetypes="ccc" />
    <path
       style="fill:none;fill-rule:evenodd;stroke:#000000;stroke-width:1.06299;stroke-linecap:butt;stroke-linejoin:miter;stroke-miterlimit:4;stroke-dasharray:none;stroke-opacity:1;marker-end:url(#marker7695)"
       d="m 60.838093,940.45349 h 24.999996 v 0"
       id="path7687"
       inkscape:connector-curvature="0" />
    <path
       style="fill:none;fill-rule:evenodd;stroke:#000000;stroke-width:1px;stroke-linecap:butt;stroke-linejoin:miter;stroke-opacity:1;marker-end:url(#marker8314-7)"
       d="m 305.15572,940.76593 h -25"
       id="path9441-5"
       inkscape:connector-curvature="0" />
    <ellipse
       ry="14.173251"
       rx="14.173228"
       id="path5243-4-7-9-9-8-5-4-5"
       style="display:inline;fill:none;stroke:#000000;stroke-width:1.06299;stroke-linecap:butt;stroke-linejoin:miter;stroke-miterlimit:4;stroke-dasharray:none;stroke-dashoffset:0;stroke-opacity:1"
       cx="171.8893"
       cy="974.13831" />
    <path
       inkscape:connector-curvature="0"
       id="path7681-6-0"
       d="m 161.79066,953.75594 v 7.08662"
       style="fill:none;stroke:#000000;stroke-width:1.06299;stroke-linecap:butt;stroke-linejoin:miter;stroke-miterlimit:4;stroke-dasharray:none;stroke-opacity:1" />
    <path
       inkscape:connector-curvature="0"
       id="path7683-17-5"
       d="m 165.33397,957.29925 h -7.08662"
       style="fill:none;stroke:#000000;stroke-width:1.06299;stroke-linecap:butt;stroke-linejoin:miter;stroke-miterlimit:4;stroke-dasharray:none;stroke-opacity:1" />
    <path
       id="path4449-84-3"
       title="sin(x)"
       d="m 163.84205,975.44041 c 1.34688,-2.35591 2.6937,-4.49762 4.04061,-4.49952 1.34692,0 2.69369,2.14361 4.04065,4.49952 1.34691,2.3559 2.69372,4.49761 4.04061,4.49951 1.34688,0 2.69376,-2.14361 4.0406,-4.49951"
       style="fill:none;stroke:#000000;stroke-width:1.06299;stroke-linecap:round;stroke-linejoin:miter;stroke-miterlimit:4;stroke-dasharray:none;stroke-dashoffset:0;stroke-opacity:1"
       inkscape:connector-curvature="0" />
    <ellipse
       ry="14.173251"
       rx="14.173228"
       id="path5243-4-7-9-9-8-5-4-53"
       style="display:inline;fill:none;stroke:#000000;stroke-width:1.06299;stroke-linecap:butt;stroke-linejoin:miter;stroke-miterlimit:4;stroke-dasharray:none;stroke-dashoffset:0;stroke-opacity:1"
       cx="172.6723"
       cy="1013.7198" />
    <path
       inkscape:connector-curvature="0"
       id="path7681-6-05"
       d="m 162.65968,1027.1364 v 7.0867"
       style="fill:none;stroke:#000000;stroke-width:1.06299;stroke-linecap:butt;stroke-linejoin:miter;stroke-miterlimit:4;stroke-dasharray:none;stroke-opacity:1" />
    <path
       inkscape:connector-curvature="0"
       id="path7683-17-1"
       d="m 166.20299,1030.6797 h -7.08662"
       style="fill:none;stroke:#000000;stroke-width:1.06299;stroke-linecap:butt;stroke-linejoin:miter;stroke-miterlimit:4;stroke-dasharray:none;stroke-opacity:1" />
    <path
       id="path4449-84-8"
       title="sin(x)"
       d="m 164.62506,1015.0221 c 1.34688,-2.3559 2.6937,-4.4976 4.04061,-4.4995 1.34692,0 2.69369,2.1436 4.04065,4.4995 1.34691,2.3559 2.69372,4.4976 4.04061,4.4995 1.34688,0 2.69376,-2.1436 4.0406,-4.4995"
       style="fill:none;stroke:#000000;stroke-width:1.06299;stroke-linecap:round;stroke-linejoin:miter;stroke-miterlimit:4;stroke-dasharray:none;stroke-dashoffset:0;stroke-opacity:1"
       inkscape:connector-curvature="0" />
    <path
       style="opacity:0.996422;fill:none;stroke:#000000;stroke-width:1.06312;stroke-miterlimit:10.1;stroke-dasharray:none;stroke-dashoffset:2.86754;paint-order:markers fill stroke"
       d="m 172.79531,928.62555 -0.24328,31.29517"
       id="path2" />
    <path
       style="opacity:0.996422;fill:none;stroke:#000000;stroke-width:1.06312;stroke-miterlimit:10.1;stroke-dasharray:none;stroke-dashoffset:2.86754;marker-start:url(#DotM);paint-order:markers fill stroke"
       d="m 116.79807,928.88308 -0.24328,35.65684"
       id="path2-6" />
    <path
       style="opacity:0.996422;fill:none;stroke:#000000;stroke-width:1.06312;stroke-miterlimit:10.1;stroke-dasharray:none;stroke-dashoffset:2.86754;marker-start:url(#DotM-1);paint-order:markers fill stroke"
       d="m 116.31107,1040.845 -0.24328,-36.1863"
       id="path2-6-3" />
    <rect
       y="-255.38007"
       x="964.68518"
       height="14.000105"
       width="39.999958"
       id="rect7655-3-3-7-2-9"
       style="display:inline;fill:none;stroke:#000000;stroke-width:1.06299;stroke-linecap:butt;stroke-linejoin:miter;stroke-miterlimit:4;stroke-dasharray:none;stroke-dashoffset:0;stroke-opacity:1"
       transform="rotate(89.99984)"
       ry="9.9456984e-06" />
    <path
       style="opacity:0.996422;fill:none;stroke:#000000;stroke-width:1.06312;stroke-miterlimit:10.1;stroke-dasharray:none;stroke-dashoffset:2.86754;marker-start:url(#DotM-5);paint-order:markers fill stroke"
       d="m 248.87777,928.89609 -0.24328,35.65696"
       id="path2-6-8" />
    <path
       style="opacity:0.996422;fill:none;stroke:#000000;stroke-width:1.06312;stroke-miterlimit:10.1;stroke-dasharray:none;stroke-dashoffset:2.86754;marker-start:url(#DotM-1-6);paint-order:markers fill stroke"
       d="m 248.39077,1040.9423 -0.24328,-36.2745"
       id="path2-6-3-0" />
    <path
       style="opacity:0.996422;fill:none;stroke:#000000;stroke-width:1.06312;stroke-miterlimit:10.1;stroke-dasharray:none;stroke-dashoffset:2.86754;paint-order:markers fill stroke"
       d="m 173.03859,1040.9957 v -13.6122"
       id="path3" />
    <path
       style="opacity:0.996422;fill:none;stroke:#000000;stroke-width:1.06312;stroke-miterlimit:10.1;stroke-dasharray:none;stroke-dashoffset:2.86754;paint-order:markers fill stroke"
       d="m 172.30876,988.34846 0.18245,11.41883"
       id="path4" />
    <path
       style="opacity:0.996422;fill:none;stroke:#000000;stroke-width:1.06299;stroke-miterlimit:10.1;stroke-dasharray:none;stroke-dashoffset:2.86754;marker-end:url(#marker8314-7-6-5);paint-order:markers fill stroke"
       d="m 179.29791,933.64012 c 0,11.1372 0,11.1372 0,11.1372 l 0.34405,9.6488"
       id="path3-4" />
    <path
       style="opacity:0.996422;fill:none;stroke:#000000;stroke-width:1.06299;stroke-miterlimit:10.1;stroke-dasharray:none;stroke-dashoffset:2.86754;marker-end:url(#marker8314-7-6-5-3);paint-order:markers fill stroke"
       d="m 261.30481,996.42169 c 0,-11.13723 0,-11.13723 0,-11.13723 l 0.34405,-9.64883"
       id="path3-4-6" />
    <path
       style="opacity:0.996422;fill:none;stroke:#000000;stroke-width:1.06299;stroke-miterlimit:10.1;stroke-dasharray:none;stroke-dashoffset:2.86754;marker-end:url(#marker8314-7-6-5-0);paint-order:markers fill stroke"
       d="m 102.64408,997.25835 c 0,-11.13723 0,-11.13723 0,-11.13723 l 0.34405,-9.64883"
       id="path3-4-4" />
    <rect
       style="fill:none;stroke:#000000;stroke-width:0.995668;stroke-linecap:butt;stroke-linejoin:bevel;stroke-miterlimit:0;stroke-dasharray:2.98701, 0.995668;stroke-dashoffset:11.5497;paint-order:stroke fill markers"
       id="rect4"
       width="128.45105"
       height="135.50603"
       x="5.1930037"
       y="913.59772"
       ry="13.836886" />
    <rect
       style="fill:none;stroke:#000000;stroke-width:0.995668;stroke-linecap:butt;stroke-linejoin:bevel;stroke-miterlimit:0;stroke-dasharray:2.98701, 0.995668;stroke-dashoffset:11.5497;paint-order:stroke fill markers"
       id="rect4-9"
       width="128.45105"
       height="135.50603"
       x="231.34514"
       y="914.08771"
       ry="13.836886" />
    <text
       id="text7689-7-4-8-4-0-8-2-0-6-6-1-2"
       y="978.22504"
       x="203.4747"
       style="font-style:normal;font-variant:normal;font-weight:normal;font-stretch:normal;font-size:7.5px;line-height:125%;font-family:Sans;-inkscape-font-specification:'Sans, Normal';font-variant-ligatures:normal;font-variant-caps:normal;font-variant-numeric:normal;font-feature-settings:normal;text-align:center;letter-spacing:0px;word-spacing:0px;writing-mode:lr-tb;text-anchor:middle;display:inline;fill:#000000;fill-opacity:1;stroke:none"
       xml:space="preserve"><tspan
         sodipodi:role="line"
         id="tspan7468-1"
         x="203.4747"
         y="978.22504">$\cmplx{U}_{\alpha\beta}$</tspan></text>
    <text
       id="text7689-7-4-8-4-0-8-2-0-6-6-1-2-1"
       y="1018.1887"
       x="204.04541"
       style="font-style:normal;font-variant:normal;font-weight:normal;font-stretch:normal;font-size:7.5px;line-height:125%;font-family:Sans;-inkscape-font-specification:'Sans, Normal';font-variant-ligatures:normal;font-variant-caps:normal;font-variant-numeric:normal;font-feature-settings:normal;text-align:center;letter-spacing:0px;word-spacing:0px;writing-mode:lr-tb;text-anchor:middle;display:inline;fill:#000000;fill-opacity:1;stroke:none"
       xml:space="preserve"><tspan
         sodipodi:role="line"
         id="tspan7468-1-3"
         x="204.04541"
         y="1018.1887">$\cmplx{U}_{\alpha\beta}$</tspan></text>
    <text
       id="text7689-7-4-8-4-0-8-2-0-6-6-1-3-1-79"
       y="952.51074"
       x="74.046631"
       style="font-style:normal;font-variant:normal;font-weight:normal;font-stretch:normal;font-size:7.5px;line-height:125%;font-family:Sans;-inkscape-font-specification:'Sans, Normal';font-variant-ligatures:normal;font-variant-caps:normal;font-variant-numeric:normal;font-feature-settings:normal;text-align:center;letter-spacing:0px;word-spacing:0px;writing-mode:lr-tb;text-anchor:middle;display:inline;fill:#000000;fill-opacity:1;stroke:none"
       xml:space="preserve"><tspan
         sodipodi:role="line"
         id="tspan11019"
         x="74.046631"
         y="952.51074">$\cmplx{I}\ped{1F}$</tspan></text>
    <text
       id="text7689-7-4-8-4-0-8-2-0-6-6-1-3-1-79-4-7-2"
       y="953.06787"
       x="296.77698"
       style="font-style:normal;font-variant:normal;font-weight:normal;font-stretch:normal;font-size:7.5px;line-height:125%;font-family:Sans;-inkscape-font-specification:'Sans, Normal';font-variant-ligatures:normal;font-variant-caps:normal;font-variant-numeric:normal;font-feature-settings:normal;text-align:center;letter-spacing:0px;word-spacing:0px;writing-mode:lr-tb;text-anchor:middle;display:inline;fill:#000000;fill-opacity:1;stroke:none"
       xml:space="preserve"><tspan
         sodipodi:role="line"
         id="tspan11019-8-5-9"
         x="296.77698"
         y="953.06787">$\cmplx{I}\ped{2F}$</tspan></text>
    <text
       id="text7689-7-4-8-4-3-1-4-2-6"
       y="917.92633"
       x="180.82549"
       style="font-style:normal;font-variant:normal;font-weight:normal;font-stretch:normal;font-size:4.6875px;line-height:125%;font-family:Sans;-inkscape-font-specification:Sans;text-align:end;letter-spacing:0px;word-spacing:0px;writing-mode:lr-tb;text-anchor:end;display:inline;fill:#000000;fill-opacity:1;stroke:none;stroke-width:3.32185"
       xml:space="preserve"><tspan
         sodipodi:role="line"
         id="tspan5708"
         x="180.82549"
         y="917.92633"
         style="stroke-width:3.32185">$\boxed{\alpha}$</tspan></text>
    <text
       id="text7689-7-4-8-4-3-1-4-2-6-5"
       y="1060.6469"
       x="180.2679"
       style="font-style:normal;font-variant:normal;font-weight:normal;font-stretch:normal;font-size:4.6875px;line-height:125%;font-family:Sans;-inkscape-font-specification:Sans;text-align:end;letter-spacing:0px;word-spacing:0px;writing-mode:lr-tb;text-anchor:end;display:inline;fill:#000000;fill-opacity:1;stroke:none;stroke-width:3.32185"
       xml:space="preserve"><tspan
         sodipodi:role="line"
         id="tspan5708-4"
         x="180.2679"
         y="1060.6469"
         style="stroke-width:3.32185">$\boxed{\beta}$</tspan></text>
    <text
       id="text7689-7-4-8-4-0-8-2-0-6-6-1-2-8"
       y="944.13501"
       x="188.23637"
       style="font-style:normal;font-variant:normal;font-weight:normal;font-stretch:normal;font-size:7.5px;line-height:125%;font-family:Sans;-inkscape-font-specification:'Sans, Normal';font-variant-ligatures:normal;font-variant-caps:normal;font-variant-numeric:normal;font-feature-settings:normal;text-align:center;letter-spacing:0px;word-spacing:0px;writing-mode:lr-tb;text-anchor:middle;display:inline;fill:#000000;fill-opacity:1;stroke:none;stroke-width:1.00031;stroke-dasharray:none"
       xml:space="preserve"><tspan
         sodipodi:role="line"
         id="tspan7468-1-6"
         x="188.23637"
         y="944.13501">$\cmplx{I}\ped{F}$</tspan></text>
    <text
       id="text7689-7-4-8-4-0-8-2-0-6-6-1-2-8-2"
       y="989.14722"
       x="274.02975"
       style="font-style:normal;font-variant:normal;font-weight:normal;font-stretch:normal;font-size:7.5px;line-height:125%;font-family:Sans;-inkscape-font-specification:'Sans, Normal';font-variant-ligatures:normal;font-variant-caps:normal;font-variant-numeric:normal;font-feature-settings:normal;text-align:center;letter-spacing:0px;word-spacing:0px;writing-mode:lr-tb;text-anchor:middle;display:inline;fill:#000000;fill-opacity:1;stroke:none;stroke-width:1.00031;stroke-dasharray:none"
       xml:space="preserve"><tspan
         sodipodi:role="line"
         id="tspan7468-1-6-0"
         x="274.02975"
         y="989.14722">$\cmplx{I}\ped{4F}$</tspan></text>
    <text
       id="text7689-7-4-8-4-0-8-2-0-6-6-1-2-8-1"
       y="989.6189"
       x="89.958015"
       style="font-style:normal;font-variant:normal;font-weight:normal;font-stretch:normal;font-size:7.5px;line-height:125%;font-family:Sans;-inkscape-font-specification:'Sans, Normal';font-variant-ligatures:normal;font-variant-caps:normal;font-variant-numeric:normal;font-feature-settings:normal;text-align:center;letter-spacing:0px;word-spacing:0px;writing-mode:lr-tb;text-anchor:middle;display:inline;fill:#000000;fill-opacity:1;stroke:none;stroke-width:1.00031;stroke-dasharray:none"
       xml:space="preserve"><tspan
         sodipodi:role="line"
         id="tspan7468-1-6-8"
         x="89.958015"
         y="989.6189">$\cmplx{I}\ped{3F}$</tspan></text>
  </g>
</svg>
